{
.appVersion = "1230";
date = "2019-06-02 22:41:45 +0000";
disablesNiceNames = 1;
familyName = "Marfa Sans";
fontMaster = (
{
alignmentZones = (
"{693, 19}",
"{491, 19}",
"{0, -20}"
);
ascender = 750;
capHeight = 693;
customParameters = (
{
name = typoAscender;
value = 750;
},
{
name = typoDescender;
value = -250;
},
{
name = typoLineGap;
value = 0;
},
{
name = winAscent;
value = 941;
},
{
name = winDescent;
value = 213;
},
{
name = hheaAscender;
value = 750;
},
{
name = hheaDescender;
value = -250;
},
{
name = strikeoutPosition;
value = 250;
},
{
name = strikeoutSize;
value = 50;
},
{
name = "Prep Table Assembly";
value = "PUSHW[ ]	/* 1 value pushed */\0120 \012CALL[ ]	/* CallFunction */\012SVTCA[0]	/* SetFreedomAndProjectionVectorToAxis */\012PUSHW[ ]	/* 3 values pushed */\0121 1 2 \012CALL[ ]	/* CallFunction */\012SVTCA[1]	/* SetFreedomAndProjectionVectorToAxis */\012PUSHW[ ]	/* 3 values pushed */\0122 1 2 \012CALL[ ]	/* CallFunction */\012SVTCA[1]	/* SetFreedomAndProjectionVectorToAxis */\012PUSHW[ ]	/* 8 values pushed */\0122 67 58 46 33 20 0 8 \012CALL[ ]	/* CallFunction */\012SVTCA[0]	/* SetFreedomAndProjectionVectorToAxis */\012PUSHW[ ]	/* 8 values pushed */\0121 75 58 46 33 20 0 8 \012CALL[ ]	/* CallFunction */\012SVTCA[0]	/* SetFreedomAndProjectionVectorToAxis */\012PUSHW[ ]	/* 3 values pushed */\0123 3 7 \012CALL[ ]	/* CallFunction */\012PUSHW[ ]	/* 1 value pushed */\0120 \012DUP[ ]	/* DuplicateTopStack */\012RCVT[ ]	/* ReadCVT */\012RDTG[ ]	/* RoundDownToGrid */\012ROUND[01]	/* Round */\012RTG[ ]	/* RoundToGrid */\012WCVTP[ ]	/* WriteCVTInPixels */";
},
{
name = "Fpgm Table Assembly";

glyphs = (
{
glyphname = A;
lastChange = "2019-07-19 17:21:18 +0000";
layers = (
{
anchors = (
{
name = bottom;
position = "{376, 0}";
},
{
name = ogonek;
position = "{669, 10}";
},
{
name = top;
position = "{376, 693}";
}
);
layerId = "DA405910-5117-420C-9605-F5A44EE03BDF";
paths = (
{
closed = 1;
nodes = (
"89 0 LINE",
"167 167 LINE",
"585 167 LINE",
"663 0 LINE",
"735 0 LINE",
"412 693 LINE",
"340 693 LINE",
"17 0 LINE"
);
},
{
closed = 1;
nodes = (
"376 616 LINE",
"555 232 LINE",
"197 232 LINE"
);
}
);
width = 752;
},
{
anchors = (
{
name = bottom;
position = "{386, 0}";
},
{
name = ogonek;
position = "{679, 10}";
},
{
name = top;
position = "{386, 693}";
}
);
layerId = "37B2A381-2B9F-4DE4-98E5-835D13A27EF0";
paths = (
{
closed = 1;
nodes = (
"116 0 LINE",
"191 161 LINE",
"581 161 LINE",
"656 0 LINE",
"751 0 LINE",
"428 693 LINE",
"344 693 LINE",
"21 0 LINE"
);
},
{
closed = 1;
nodes = (
"386 580 LINE",
"541 247 LINE",
"231 247 LINE"
);
}
);
width = 772;
}
);
unicode = 0041;
},
{
glyphname = AE;
lastChange = "2019-07-03 16:26:27 +0000";
layers = (
{
layerId = "DA405910-5117-420C-9605-F5A44EE03BDF";
paths = (
{
closed = 1;
nodes = (
"56 0 LINE",
"134 167 LINE",
"343 167 LINE",
"343 0 LINE",
"941 0 LINE",
"941 65 LINE",
"409 65 LINE",
"409 372 LINE",
"740 372 LINE",
"740 437 LINE",
"409 437 LINE",
"409 628 LINE",
"941 628 LINE",
"941 693 LINE",
"307 693 LINE",
"-16 0 LINE"
);
},
{
closed = 1;
nodes = (
"343 616 LINE",
"343 232 LINE",
"164 232 LINE"
);
}
);
width = 979;
},
{
layerId = "37B2A381-2B9F-4DE4-98E5-835D13A27EF0";
paths = (
{
closed = 1;
nodes = (
"79 0 LINE",
"154 161 LINE",
"337 161 LINE",
"337 0 LINE",
"938 0 LINE",
"938 86 LINE",
"424 86 LINE",
"424 360 LINE",
"744 360 LINE",
"744 446 LINE",
"424 446 LINE",
"424 607 LINE",
"938 607 LINE",
"938 693 LINE",
"307 693 LINE",
"-16 0 LINE"
);
},
{
closed = 1;
nodes = (
"337 555 LINE",
"337 247 LINE",
"194 247 LINE"
);
}
);
width = 979;
}
);
unicode = 00C6;
},
{
glyphname = B;
lastChange = "2019-07-03 15:11:36 +0000";
layers = (
{
anchors = (
{
name = bottom;
position = "{398, 0}";
},
{
name = top;
position = "{398, 693}";
}
);
background = {
paths = (
{
closed = 1;
nodes = (
"666 134 OFFCURVE",
"605 65 OFFCURVE",
"508 65 CURVE",
"191 65 LINE",
"139 65 LINE",
"139 346 LINE",
"508 346 LINE",
"624 346 OFFCURVE",
"666 272 OFFCURVE",
"666 204 CURVE"
);
},
{
closed = 1;
nodes = (
"191 628 LINE",
"508 628 LINE",
"580 628 OFFCURVE",
"628 583 OFFCURVE",
"628 521 CURVE",
"628 461 OFFCURVE",
"587 412 OFFCURVE",
"508 412 CURVE",
"139 412 LINE",
"139 628 LINE"
);
},
{
closed = 1;
nodes = (
"508 693 LINE",
"73 693 LINE",
"73 0 LINE",
"508 0 LINE",
"656 0 OFFCURVE",
"736 81 OFFCURVE",
"736 208 CURVE",
"736 288 OFFCURVE",
"702 323 OFFCURVE",
"662 354 CURVE",
"626 379 LINE",
"657 409 LINE",
"681 434 OFFCURVE",
"698 479 OFFCURVE",
"698 520 CURVE",
"698 637 OFFCURVE",
"626 693 OFFCURVE",
"508 693 CURVE"
);
}
);
};
layerId = "DA405910-5117-420C-9605-F5A44EE03BDF";
paths = (
{
closed = 1;
nodes = (
"513 0 LINE SMOOTH",
"661 0 OFFCURVE",
"741 81 OFFCURVE",
"741 208 CURVE",
"741 307 OFFCURVE",
"671 356 OFFCURVE",
"629 380 CURVE",
"671 408 OFFCURVE",
"703 464 OFFCURVE",
"703 520 CURVE SMOOTH",
"703 637 OFFCURVE",
"631 693 OFFCURVE",
"513 693 CURVE",
"78 693 LINE",
"78 0 LINE"
);
},
{
closed = 1;
nodes = (
"144 347 LINE",
"513 347 LINE SMOOTH",
"620 347 OFFCURVE",
"671 272 OFFCURVE",
"671 204 CURVE SMOOTH",
"671 134 OFFCURVE",
"620 65 OFFCURVE",
"513 65 CURVE SMOOTH",
"144 65 LINE"
);
},
{
closed = 1;
nodes = (
"144 628 LINE",
"513 628 LINE SMOOTH",
"592 628 OFFCURVE",
"633 583 OFFCURVE",
"633 521 CURVE SMOOTH",
"633 461 OFFCURVE",
"592 412 OFFCURVE",
"513 412 CURVE SMOOTH",
"144 412 LINE"
);
}
);
width = 795;
},
{
anchors = (
{
name = bottom;
position = "{398, 0}";
},
{
name = top;
position = "{398, 693}";
}
);
layerId = "37B2A381-2B9F-4DE4-98E5-835D13A27EF0";
paths = (
{
closed = 1;
nodes = (
"510 0 LINE SMOOTH",
"655 0 OFFCURVE",
"742 79 OFFCURVE",
"742 213 CURVE SMOOTH",
"742 282 OFFCURVE",
"708 338 OFFCURVE",
"642 380 CURVE",
"680 412 OFFCURVE",
"705 465 OFFCURVE",
"705 514 CURVE SMOOTH",
"705 629 OFFCURVE",
"635 693 OFFCURVE",
"510 693 CURVE SMOOTH",
"77 693 LINE",
"77 0 LINE"
);
},
{
closed = 1;
nodes = (
"164 335 LINE",
"510 335 LINE SMOOTH",
"592 335 OFFCURVE",
"651 282 OFFCURVE",
"651 209 CURVE SMOOTH",
"651 136 OFFCURVE",
"594 86 OFFCURVE",
"510 86 CURVE SMOOTH",
"164 86 LINE"
);
},
{
closed = 1;
nodes = (
"164 607 LINE",
"510 607 LINE SMOOTH",
"575 607 OFFCURVE",
"614 573 OFFCURVE",
"614 515 CURVE SMOOTH",
"614 458 OFFCURVE",
"573 421 OFFCURVE",
"510 421 CURVE SMOOTH",
"164 421 LINE"
);
}
);
width = 795;
}
);
unicode = 0042;
},
{
glyphname = C;
lastChange = "2019-07-05 15:16:49 +0000";
layers = (
{
anchors = (
{
name = bottom;
position = "{398, 0}";
},
{
name = top;
position = "{398, 693}";
}
);
background = {
paths = (
{
closed = 1;
nodes = (
"571 -20 OFFCURVE",
"698 67 OFFCURVE",
"750 203 CURVE",
"682 228 LINE",
"641 117 OFFCURVE",
"539 44 OFFCURVE",
"410 44 CURVE SMOOTH",
"241 44 OFFCURVE",
"118 170 OFFCURVE",
"118 345 CURVE SMOOTH",
"118 520 OFFCURVE",
"241 648 OFFCURVE",
"410 648 CURVE SMOOTH",
"538 648 OFFCURVE",
"639 575 OFFCURVE",
"681 465 CURVE",
"749 489 LINE",
"697 625 OFFCURVE",
"571 712 OFFCURVE",
"410 712 CURVE SMOOTH",
"199 712 OFFCURVE",
"46 560 OFFCURVE",
"46 345 CURVE SMOOTH",
"46 132 OFFCURVE",
"199 -20 OFFCURVE",
"410 -20 CURVE SMOOTH"
);
}
);
};
guideLines = (
{
position = "{1061, 719}";
},
{
position = "{1060, -19}";
}
);
hints = (
{
horizontal = 1;
origin = "{0, 19}";
target = down;
type = TopGhost;
},
{
horizontal = 1;
origin = "{0, 25}";
target = up;
type = BottomGhost;
}
);
layerId = "DA405910-5117-420C-9605-F5A44EE03BDF";
paths = (
{
closed = 1;
nodes = (
"571 -20 OFFCURVE",
"698 67 OFFCURVE",
"750 203 CURVE",
"682 228 LINE",
"641 117 OFFCURVE",
"539 44 OFFCURVE",
"410 44 CURVE SMOOTH",
"241 44 OFFCURVE",
"118 170 OFFCURVE",
"118 345 CURVE SMOOTH",
"118 520 OFFCURVE",
"241 648 OFFCURVE",
"410 648 CURVE SMOOTH",
"538 648 OFFCURVE",
"639 575 OFFCURVE",
"681 465 CURVE",
"749 489 LINE",
"697 625 OFFCURVE",
"571 712 OFFCURVE",
"410 712 CURVE SMOOTH",
"199 712 OFFCURVE",
"46 560 OFFCURVE",
"46 345 CURVE SMOOTH",
"46 132 OFFCURVE",
"199 -20 OFFCURVE",
"410 -20 CURVE SMOOTH"
);
}
);
width = 796;
},
{
anchors = (
{
name = bottom;
position = "{398, 0}";
},
{
name = top;
position = "{398, 693}";
}
);
guideLines = (
{
position = "{1070, -19}";
}
);
hints = (
{
horizontal = 1;
origin = "{0, 19}";
target = down;
type = TopGhost;
},
{
horizontal = 1;
origin = "{0, 25}";
target = up;
type = BottomGhost;
}
);
layerId = "37B2A381-2B9F-4DE4-98E5-835D13A27EF0";
paths = (
{
closed = 1;
nodes = (
"572 -20 OFFCURVE",
"704 70 OFFCURVE",
"754 214 CURVE",
"666 247 LINE",
"630 135 OFFCURVE",
"531 65 OFFCURVE",
"410 65 CURVE SMOOTH",
"252 65 OFFCURVE",
"139 182 OFFCURVE",
"139 345 CURVE SMOOTH",
"139 508 OFFCURVE",
"253 627 OFFCURVE",
"410 627 CURVE SMOOTH",
"529 627 OFFCURVE",
"627 558 OFFCURVE",
"665 446 CURVE",
"753 477 LINE",
"703 623 OFFCURVE",
"571 712 OFFCURVE",
"410 712 CURVE SMOOTH",
"198 712 OFFCURVE",
"46 559 OFFCURVE",
"46 345 CURVE SMOOTH",
"46 133 OFFCURVE",
"198 -20 OFFCURVE",
"410 -20 CURVE SMOOTH"
);
}
);
width = 796;
}
);
unicode = 0043;
},
{
glyphname = D;
lastChange = "2019-07-03 16:06:54 +0000";
layers = (
{
anchors = (
{
name = bottom;
position = "{380, 0}";
},
{
name = center;
position = "{402, 347}";
},
{
name = top;
position = "{380, 693}";
}
);
background = {
paths = (
{
closed = 1;
nodes = (
"397 0 LINE SMOOTH",
"533 0 OFFCURVE",
"601 29 OFFCURVE",
"657 96 CURVE SMOOTH",
"704 154 OFFCURVE",
"742 232 OFFCURVE",
"742 348 CURVE SMOOTH",
"742 463 OFFCURVE",
"714 547 OFFCURVE",
"657 605 CURVE SMOOTH",
"600 664 OFFCURVE",
"533 693 OFFCURVE",
"397 693 CURVE SMOOTH",
"78 693 LINE",
"78 0 LINE"
);
},
{
closed = 1;
nodes = (
"143 66 LINE",
"143 628 LINE",
"386 628 LINE SMOOTH",
"502 628 OFFCURVE",
"555 620 OFFCURVE",
"601 571 CURVE SMOOTH",
"647 522 OFFCURVE",
"670 436 OFFCURVE",
"670 348 CURVE SMOOTH",
"670 260 OFFCURVE",
"647 185 OFFCURVE",
"601 133 CURVE SMOOTH",
"555 82 OFFCURVE",
"501 65 OFFCURVE",
"385 65 CURVE SMOOTH"
);
}
);
};
layerId = "DA405910-5117-420C-9605-F5A44EE03BDF";
paths = (
{
closed = 1;
nodes = (
"397 0 LINE SMOOTH",
"533 0 OFFCURVE",
"601 29 OFFCURVE",
"657 96 CURVE SMOOTH",
"704 154 OFFCURVE",
"742 232 OFFCURVE",
"742 348 CURVE SMOOTH",
"742 463 OFFCURVE",
"714 547 OFFCURVE",
"657 605 CURVE SMOOTH",
"600 664 OFFCURVE",
"533 693 OFFCURVE",
"397 693 CURVE SMOOTH",
"78 693 LINE",
"78 0 LINE"
);
},
{
closed = 1;
nodes = (
"143 66 LINE",
"143 628 LINE",
"386 628 LINE SMOOTH",
"502 628 OFFCURVE",
"555 620 OFFCURVE",
"601 571 CURVE SMOOTH",
"647 522 OFFCURVE",
"670 436 OFFCURVE",
"670 348 CURVE SMOOTH",
"670 260 OFFCURVE",
"647 185 OFFCURVE",
"601 133 CURVE SMOOTH",
"555 82 OFFCURVE",
"501 65 OFFCURVE",
"385 65 CURVE SMOOTH"
);
}
);
width = 798;
},
{
anchors = (
{
name = bottom;
position = "{381, 0}";
},
{
name = center;
position = "{402, 347}";
},
{
name = top;
position = "{381, 693}";
}
);
layerId = "37B2A381-2B9F-4DE4-98E5-835D13A27EF0";
paths = (
{
closed = 1;
nodes = (
"397 0 LINE SMOOTH",
"527 0 OFFCURVE",
"599 27 OFFCURVE",
"658 97 CURVE SMOOTH",
"704 154 OFFCURVE",
"742 233 OFFCURVE",
"742 348 CURVE SMOOTH",
"742 462 OFFCURVE",
"714 546 OFFCURVE",
"657 604 CURVE SMOOTH",
"595 668 OFFCURVE",
"523 693 OFFCURVE",
"397 693 CURVE SMOOTH",
"78 693 LINE",
"78 0 LINE"
);
},
{
closed = 1;
nodes = (
"164 87 LINE",
"164 607 LINE",
"387 607 LINE SMOOTH",
"507 607 OFFCURVE",
"548 596 OFFCURVE",
"586 556 CURVE SMOOTH",
"626 513 OFFCURVE",
"650 436 OFFCURVE",
"650 348 CURVE SMOOTH",
"650 264 OFFCURVE",
"628 195 OFFCURVE",
"586 148 CURVE SMOOTH",
"544 101 OFFCURVE",
"495 86 OFFCURVE",
"386 86 CURVE SMOOTH"
);
}
);
width = 798;
}
);
unicode = 0044;
},
{
glyphname = Eth;
lastChange = "2019-07-03 16:29:20 +0000";
layers = (
{
layerId = "DA405910-5117-420C-9605-F5A44EE03BDF";
paths = (
{
closed = 1;
nodes = (
"549 0 LINE SMOOTH",
"685 0 OFFCURVE",
"753 29 OFFCURVE",
"809 96 CURVE SMOOTH",
"856 154 OFFCURVE",
"894 232 OFFCURVE",
"894 348 CURVE SMOOTH",
"894 463 OFFCURVE",
"866 547 OFFCURVE",
"809 605 CURVE SMOOTH",
"752 664 OFFCURVE",
"685 693 OFFCURVE",
"549 693 CURVE SMOOTH",
"230 693 LINE",
"230 0 LINE"
);
},
{
closed = 1;
nodes = (
"295 66 LINE",
"295 628 LINE",
"538 628 LINE SMOOTH",
"654 628 OFFCURVE",
"707 620 OFFCURVE",
"753 571 CURVE SMOOTH",
"799 522 OFFCURVE",
"822 436 OFFCURVE",
"822 348 CURVE SMOOTH",
"822 260 OFFCURVE",
"799 185 OFFCURVE",
"753 133 CURVE SMOOTH",
"707 82 OFFCURVE",
"653 65 OFFCURVE",
"537 65 CURVE SMOOTH"
);
},
{
closed = 1;
nodes = (
"73 334 LINE",
"456 334 LINE",
"456 399 LINE",
"73 399 LINE"
);
}
);
width = 950;
},
{
layerId = "37B2A381-2B9F-4DE4-98E5-835D13A27EF0";
paths = (
{
closed = 1;
nodes = (
"547 0 LINE SMOOTH",
"676 0 OFFCURVE",
"748 27 OFFCURVE",
"807 97 CURVE SMOOTH",
"853 154 OFFCURVE",
"892 233 OFFCURVE",
"892 348 CURVE SMOOTH",
"892 462 OFFCURVE",
"864 546 OFFCURVE",
"806 604 CURVE SMOOTH",
"745 668 OFFCURVE",
"672 693 OFFCURVE",
"547 693 CURVE SMOOTH",
"227 693 LINE",
"227 0 LINE"
);
},
{
closed = 1;
nodes = (
"313 87 LINE",
"313 607 LINE",
"536 607 LINE SMOOTH",
"656 607 OFFCURVE",
"697 596 OFFCURVE",
"736 556 CURVE SMOOTH",
"775 513 OFFCURVE",
"799 436 OFFCURVE",
"799 348 CURVE SMOOTH",
"799 264 OFFCURVE",
"777 195 OFFCURVE",
"735 148 CURVE SMOOTH",
"693 101 OFFCURVE",
"644 86 OFFCURVE",
"535 86 CURVE SMOOTH"
);
},
{
closed = 1;
nodes = (
"75 323 LINE",
"469 323 LINE",
"469 408 LINE",
"75 408 LINE"
);
}
);
width = 950;
}
);
unicode = 00D0;
},
{
glyphname = E;
lastChange = "2019-07-17 16:37:39 +0000";
layers = (
{
anchors = (
{
name = bottom;
position = "{376, 0}";
},
{
name = ogonek;
position = "{644, 10}";
},
{
name = top;
position = "{376, 693}";
},
{
name = topleft;
position = "{22, 693}";
}
);
layerId = "DA405910-5117-420C-9605-F5A44EE03BDF";
paths = (
{
closed = 1;
nodes = (
"680 0 LINE",
"680 65 LINE",
"148 65 LINE",
"148 372 LINE",
"479 372 LINE",
"479 437 LINE",
"148 437 LINE",
"148 628 LINE",
"680 628 LINE",
"680 693 LINE",
"82 693 LINE",
"82 0 LINE"
);
}
);
width = 700;
},
{
anchors = (
{
name = bottom;
position = "{376, 0}";
},
{
name = ogonek;
position = "{644, 10}";
},
{
name = top;
position = "{376, 693}";
},
{
name = topleft;
position = "{22, 693}";
}
);
layerId = "37B2A381-2B9F-4DE4-98E5-835D13A27EF0";
paths = (
{
closed = 1;
nodes = (
"682 0 LINE",
"682 86 LINE",
"167 86 LINE",
"167 360 LINE",
"487 360 LINE",
"487 446 LINE",
"167 446 LINE",
"167 607 LINE",
"682 607 LINE",
"682 693 LINE",
"80 693 LINE",
"80 0 LINE"
);
}
);
width = 700;
}
);
unicode = 0045;
},
{
glyphname = F;
lastChange = "2019-07-17 16:17:15 +0000";
layers = (
{
anchors = (
{
name = bottom;
position = "{281, 0}";
},
{
name = top;
position = "{281, 693}";
}
);
layerId = "DA405910-5117-420C-9605-F5A44EE03BDF";
paths = (
{
closed = 1;
nodes = (
"143 0 LINE",
"143 314 LINE",
"433 314 LINE",
"433 379 LINE",
"143 379 LINE",
"143 628 LINE",
"682 628 LINE",
"682 693 LINE",
"78 693 LINE",
"78 0 LINE"
);
}
);
width = 582;
},
{
anchors = (
{
name = bottom;
position = "{281, 0}";
},
{
name = top;
position = "{281, 693}";
}
);
layerId = "37B2A381-2B9F-4DE4-98E5-835D13A27EF0";
paths = (
{
closed = 1;
nodes = (
"163 0 LINE",
"163 303 LINE",
"443 303 LINE",
"443 390 LINE",
"163 390 LINE",
"163 607 LINE",
"683 607 LINE",
"683 693 LINE",
"77 693 LINE",
"77 0 LINE"
);
}
);
width = 582;
}
);
unicode = 0046;
},
{
glyphname = G;
lastChange = "2019-07-03 16:08:01 +0000";
layers = (
{
anchors = (
{
name = bottom;
position = "{404, 0}";
},
{
name = top;
position = "{404, 693}";
}
);
layerId = "DA405910-5117-420C-9605-F5A44EE03BDF";
paths = (
{
closed = 1;
nodes = (
"582 -20 OFFCURVE",
"749 83 OFFCURVE",
"749 280 CURVE",
"410 280 LINE",
"410 216 LINE",
"674 216 LINE",
"666 148 OFFCURVE",
"571 44 OFFCURVE",
"414 44 CURVE SMOOTH",
"245 44 OFFCURVE",
"118 170 OFFCURVE",
"118 345 CURVE SMOOTH",
"118 520 OFFCURVE",
"241 648 OFFCURVE",
"410 648 CURVE SMOOTH",
"538 648 OFFCURVE",
"639 575 OFFCURVE",
"681 465 CURVE",
"749 489 LINE",
"697 625 OFFCURVE",
"571 712 OFFCURVE",
"410 712 CURVE SMOOTH",
"199 712 OFFCURVE",
"46 560 OFFCURVE",
"46 345 CURVE SMOOTH",
"46 132 OFFCURVE",
"203 -20 OFFCURVE",
"414 -20 CURVE SMOOTH"
);
}
);
width = 813;
},
{
anchors = (
{
name = bottom;
position = "{404, 0}";
},
{
name = top;
position = "{404, 693}";
}
);
layerId = "37B2A381-2B9F-4DE4-98E5-835D13A27EF0";
paths = (
{
closed = 1;
nodes = (
"612 -20 OFFCURVE",
"756 112 OFFCURVE",
"749 294 CURVE",
"398 294 LINE",
"398 209 LINE",
"651 209 LINE",
"635 147 OFFCURVE",
"551 65 OFFCURVE",
"414 65 CURVE SMOOTH",
"255 65 OFFCURVE",
"139 184 OFFCURVE",
"139 345 CURVE SMOOTH",
"139 508 OFFCURVE",
"253 627 OFFCURVE",
"410 627 CURVE SMOOTH",
"529 627 OFFCURVE",
"627 558 OFFCURVE",
"665 446 CURVE",
"753 477 LINE",
"703 623 OFFCURVE",
"571 712 OFFCURVE",
"410 712 CURVE SMOOTH",
"198 712 OFFCURVE",
"46 559 OFFCURVE",
"46 345 CURVE SMOOTH",
"46 134 OFFCURVE",
"201 -20 OFFCURVE",
"414 -20 CURVE SMOOTH"
);
}
);
width = 813;
}
);
unicode = 0047;
},
{
glyphname = H;
lastChange = "2019-07-03 15:13:29 +0000";
layers = (
{
anchors = (
{
name = bottom;
position = "{411, 0}";
},
{
name = center;
position = "{411, 347}";
},
{
name = top;
position = "{411, 693}";
},
{
name = topleft;
position = "{30, 693}";
}
);
layerId = "DA405910-5117-420C-9605-F5A44EE03BDF";
paths = (
{
closed = 1;
nodes = (
"143 0 LINE",
"144 334 LINE",
"677 334 LINE",
"678 0 LINE",
"743 0 LINE",
"743 693 LINE",
"678 693 LINE",
"677 399 LINE",
"144 399 LINE",
"143 693 LINE",
"78 693 LINE",
"78 0 LINE"
);
}
);
width = 821;
},
{
anchors = (
{
name = bottom;
position = "{411, 0}";
},
{
name = center;
position = "{411, 347}";
},
{
name = top;
position = "{411, 693}";
},
{
name = topleft;
position = "{30, 693}";
}
);
layerId = "37B2A381-2B9F-4DE4-98E5-835D13A27EF0";
paths = (
{
closed = 1;
nodes = (
"164 0 LINE",
"164 323 LINE",
"657 323 LINE",
"657 0 LINE",
"743 0 LINE",
"743 693 LINE",
"657 693 LINE",
"657 409 LINE",
"164 409 LINE",
"164 693 LINE",
"78 693 LINE",
"78 0 LINE"
);
}
);
width = 821;
}
);
unicode = 0048;
},
{
glyphname = Hbar;
lastChange = "2019-07-03 17:20:57 +0000";
layers = (
{
layerId = "DA405910-5117-420C-9605-F5A44EE03BDF";
paths = (
{
closed = 1;
nodes = (
"227 0 LINE",
"228 334 LINE",
"761 334 LINE",
"762 0 LINE",
"827 0 LINE",
"827 693 LINE",
"762 693 LINE",
"761 399 LINE",
"228 399 LINE",
"227 693 LINE",
"162 693 LINE",
"162 0 LINE"
);
},
{
closed = 1;
nodes = (
"73 510 LINE",
"915 510 LINE",
"915 574 LINE",
"73 574 LINE"
);
}
);
width = 988;
},
{
layerId = "37B2A381-2B9F-4DE4-98E5-835D13A27EF0";
paths = (
{
closed = 1;
nodes = (
"248 0 LINE",
"248 323 LINE",
"740 323 LINE",
"741 0 LINE",
"827 0 LINE",
"827 693 LINE",
"741 693 LINE",
"741 409 LINE",
"248 409 LINE",
"247 693 LINE",
"162 693 LINE",
"162 0 LINE"
);
},
{
closed = 1;
nodes = (
"75 500 LINE",
"913 500 LINE",
"913 585 LINE",
"75 585 LINE"
);
}
);
width = 988;
}
);
unicode = 0126;
},
{
glyphname = I;
lastChange = "2019-07-03 15:13:38 +0000";
layers = (
{
anchors = (
{
name = bottom;
position = "{205, 0}";
},
{
name = ogonek;
position = "{328, 10}";
},
{
name = top;
position = "{205, 693}";
},
{
name = topleft;
position = "{82, 693}";
}
);
layerId = "DA405910-5117-420C-9605-F5A44EE03BDF";
paths = (
{
closed = 1;
nodes = (
"328 0 LINE",
"328 65 LINE",
"238 65 LINE",
"238 628 LINE",
"328 628 LINE",
"328 693 LINE",
"82 693 LINE",
"82 628 LINE",
"172 628 LINE",
"172 65 LINE",
"82 65 LINE",
"82 0 LINE"
);
}
);
width = 410;
},
{
anchors = (
{
name = bottom;
position = "{205, 0}";
},
{
name = ogonek;
position = "{328, 10}";
},
{
name = top;
position = "{205, 693}";
},
{
name = topleft;
position = "{82, 693}";
}
);
layerId = "37B2A381-2B9F-4DE4-98E5-835D13A27EF0";
paths = (
{
closed = 1;
nodes = (
"335 0 LINE",
"335 86 LINE",
"248 86 LINE",
"248 607 LINE",
"335 607 LINE",
"335 693 LINE",
"75 693 LINE",
"75 607 LINE",
"162 607 LINE",
"162 86 LINE",
"75 86 LINE",
"75 0 LINE"
);
}
);
width = 410;
}
);
unicode = 0049;
},
{
glyphname = J;
lastChange = "2019-07-19 17:28:41 +0000";
layers = (
{
anchors = (
{
name = bottom;
position = "{299, 0}";
},
{
name = top;
position = "{299, 693}";
}
);
layerId = "DA405910-5117-420C-9605-F5A44EE03BDF";
paths = (
{
closed = 1;
nodes = (
"440 -20 OFFCURVE",
"563 77 OFFCURVE",
"565 280 CURVE SMOOTH",
"565 693 LINE",
"203 693 LINE",
"203 628 LINE",
"499 628 LINE",
"499 320 LINE SMOOTH",
"499 145 OFFCURVE",
"425 44 OFFCURVE",
"271 44 CURVE SMOOTH",
"191 44 OFFCURVE",
"103 76 OFFCURVE",
"58 196 CURVE",
"-8 172 LINE",
"38 37 OFFCURVE",
"150 -20 OFFCURVE",
"271 -20 CURVE SMOOTH"
);
}
);
width = 647;
},
{
anchors = (
{
name = bottom;
position = "{299, 0}";
},
{
name = top;
position = "{299, 693}";
}
);
layerId = "37B2A381-2B9F-4DE4-98E5-835D13A27EF0";
paths = (
{
closed = 1;
nodes = (
"455 -20 OFFCURVE",
"565 93 OFFCURVE",
"567 282 CURVE SMOOTH",
"567 693 LINE",
"194 693 LINE",
"194 607 LINE",
"480 607 LINE",
"480 321 LINE SMOOTH",
"480 152 OFFCURVE",
"409 65 OFFCURVE",
"271 65 CURVE SMOOTH",
"174 65 OFFCURVE",
"106 115 OFFCURVE",
"72 215 CURVE",
"-13 184 LINE",
"26 55 OFFCURVE",
"131 -20 OFFCURVE",
"271 -20 CURVE SMOOTH"
);
}
);
width = 647;
}
);
unicode = 004A;
},
{
glyphname = K;
lastChange = "2019-07-03 15:14:04 +0000";
layers = (
{
anchors = (
{
name = bottom;
position = "{366, 0}";
},
{
name = top;
position = "{366, 693}";
}
);
layerId = "DA405910-5117-420C-9605-F5A44EE03BDF";
paths = (
{
closed = 1;
nodes = (
"155 0 LINE",
"155 139 LINE",
"325 309 LINE",
"633 0 LINE",
"723 0 LINE",
"369 354 LINE",
"708 693 LINE",
"618 693 LINE",
"155 230 LINE",
"155 693 LINE",
"90 693 LINE",
"90 0 LINE"
);
}
);
width = 708;
},
{
anchors = (
{
name = bottom;
position = "{366, 0}";
},
{
name = top;
position = "{366, 693}";
}
);
layerId = "37B2A381-2B9F-4DE4-98E5-835D13A27EF0";
paths = (
{
closed = 1;
nodes = (
"175 0 LINE",
"175 141 LINE",
"328 294 LINE",
"621 0 LINE",
"741 0 LINE",
"387 354 LINE",
"726 693 LINE",
"606 693 LINE",
"175 262 LINE",
"175 693 LINE",
"89 693 LINE",
"89 0 LINE"
);
}
);
width = 708;
}
);
unicode = 004B;
},
{
glyphname = L;
lastChange = "2019-07-03 17:00:25 +0000";
layers = (
{
anchors = (
{
name = bottom;
position = "{340, 0}";
},
{
name = center;
position = "{340, 347}";
},
{
name = top;
position = "{110, 693}";
},
{
name = topright;
position = "{650, 693}";
}
);
layerId = "DA405910-5117-420C-9605-F5A44EE03BDF";
paths = (
{
closed = 1;
nodes = (
"642 0 LINE",
"642 65 LINE",
"143 65 LINE",
"143 693 LINE",
"78 693 LINE",
"78 0 LINE"
);
}
);
width = 629;
},
{
anchors = (
{
name = bottom;
position = "{340, 0}";
},
{
name = center;
position = "{340, 347}";
},
{
name = top;
position = "{119, 693}";
},
{
name = topright;
position = "{650, 693}";
}
);
layerId = "37B2A381-2B9F-4DE4-98E5-835D13A27EF0";
paths = (
{
closed = 1;
nodes = (
"644 0 LINE",
"644 86 LINE",
"162 86 LINE",
"162 693 LINE",
"76 693 LINE",
"76 0 LINE"
);
}
);
width = 629;
}
);
unicode = 004C;
},
{
glyphname = Lslash;
lastChange = "2019-07-03 16:59:58 +0000";
layers = (
{
layerId = "DA405910-5117-420C-9605-F5A44EE03BDF";
paths = (
{
closed = 1;
nodes = (
"764 -2 LINE",
"764 63 LINE",
"265 63 LINE",
"265 693 LINE",
"200 693 LINE",
"200 -2 LINE"
);
},
{
closed = 1;
nodes = (
"74 226 LINE",
"495 437 LINE",
"495 509 LINE",
"74 298 LINE"
);
}
);
width = 797;
},
{
background = {
paths = (
{
closed = 1;
nodes = (
"764 -2 LINE",
"764 63 LINE",
"265 63 LINE",
"265 693 LINE",
"200 693 LINE",
"200 -2 LINE"
);
}
);
};
layerId = "37B2A381-2B9F-4DE4-98E5-835D13A27EF0";
paths = (
{
closed = 1;
nodes = (
"62 208 LINE",
"507 431 LINE",
"507 527 LINE",
"62 304 LINE"
);
},
{
closed = 1;
nodes = (
"769 0 LINE",
"769 86 LINE",
"287 86 LINE",
"287 693 LINE",
"201 693 LINE",
"201 0 LINE"
);
}
);
width = 797;
}
);
unicode = 0141;
},
{
glyphname = M;
lastChange = "2019-07-03 15:14:21 +0000";
layers = (
{
anchors = (
{
name = bottom;
position = "{448, 0}";
},
{
name = top;
position = "{448, 693}";
}
);
layerId = "DA405910-5117-420C-9605-F5A44EE03BDF";
paths = (
{
closed = 1;
nodes = (
"143 0 LINE",
"143 600 LINE",
"448 169 LINE",
"753 600 LINE",
"753 0 LINE",
"818 0 LINE",
"818 693 LINE",
"732 693 LINE",
"448 284 LINE",
"164 693 LINE",
"78 693 LINE",
"78 0 LINE"
);
}
);
width = 896;
},
{
anchors = (
{
name = bottom;
position = "{448, 0}";
},
{
name = top;
position = "{448, 693}";
}
);
layerId = "37B2A381-2B9F-4DE4-98E5-835D13A27EF0";
paths = (
{
closed = 1;
nodes = (
"165 0 LINE",
"165 555 LINE",
"448 155 LINE",
"731 555 LINE",
"731 0 LINE",
"817 0 LINE",
"817 693 LINE",
"716 693 LINE",
"448 306 LINE",
"180 693 LINE",
"79 693 LINE",
"79 0 LINE"
);
}
);
width = 896;
}
);
unicode = 004D;
},
{
glyphname = N;
lastChange = "2019-07-05 15:26:32 +0000";
layers = (
{
anchors = (
{
name = bottom;
position = "{424, 0}";
},
{
name = top;
position = "{424, 693}";
}
);
layerId = "DA405910-5117-420C-9605-F5A44EE03BDF";
paths = (
{
closed = 1;
nodes = (
"143 0 LINE",
"143 615 LINE",
"659 0 LINE",
"745 0 LINE",
"745 693 LINE",
"680 693 LINE",
"680 78 LINE",
"164 693 LINE",
"78 693 LINE",
"78 0 LINE"
);
}
);
width = 823;
},
{
anchors = (
{
name = bottom;
position = "{424, 0}";
},
{
name = top;
position = "{424, 693}";
}
);
layerId = "37B2A381-2B9F-4DE4-98E5-835D13A27EF0";
paths = (
{
closed = 1;
nodes = (
"164 0 LINE",
"164 574 LINE",
"645 0 LINE",
"745 0 LINE",
"745 693 LINE",
"659 693 LINE",
"659 119 LINE",
"178 693 LINE",
"78 693 LINE",
"78 0 LINE"
);
}
);
width = 823;
}
);
unicode = 004E;
},
{
glyphname = Eng;
lastChange = "2019-07-03 17:01:14 +0000";
layers = (
{
layerId = "DA405910-5117-420C-9605-F5A44EE03BDF";
paths = (
{
closed = 1;
nodes = (
"160 0 LINE",
"160 615 LINE",
"675 0 LINE",
"675 -31 LINE SMOOTH",
"675 -84 OFFCURVE",
"675 -95 OFFCURVE",
"663 -108 CURVE SMOOTH",
"652 -120 OFFCURVE",
"631 -128 OFFCURVE",
"594 -128 CURVE SMOOTH",
"504 -128 LINE",
"504 -184 LINE",
"593 -184 LINE SMOOTH",
"648 -184 OFFCURVE",
"683 -177 OFFCURVE",
"707 -154 CURVE",
"732 -132 OFFCURVE",
"740 -110 OFFCURVE",
"740 -67 CURVE SMOOTH",
"740 693 LINE",
"675 693 LINE",
"675 93 LINE",
"181 693 LINE",
"95 693 LINE",
"95 0 LINE"
);
}
);
width = 813;
},
{
layerId = "37B2A381-2B9F-4DE4-98E5-835D13A27EF0";
paths = (
{
closed = 1;
nodes = (
"172 -5 LINE",
"172 573 LINE",
"663 0 LINE",
"663 -23 LINE SMOOTH",
"663 -77 OFFCURVE",
"662 -82 OFFCURVE",
"654 -90 CURVE SMOOTH",
"644 -101 OFFCURVE",
"625 -106 OFFCURVE",
"594 -106 CURVE SMOOTH",
"492 -106 LINE",
"492 -184 LINE",
"593 -184 LINE SMOOTH",
"655 -184 OFFCURVE",
"690 -175 OFFCURVE",
"715 -152 CURVE",
"742 -128 OFFCURVE",
"752 -104 OFFCURVE",
"752 -58 CURVE SMOOTH",
"752 693 LINE",
"663 693 LINE",
"663 130 LINE",
"187 693 LINE",
"83 693 LINE",
"83 -5 LINE"
);
}
);
width = 813;
}
);
unicode = 014A;
},
{
glyphname = O;
lastChange = "2019-07-03 15:14:43 +0000";
layers = (
{
anchors = (
{
name = bottom;
position = "{413, 0}";
},
{
name = center;
position = "{413, 347}";
},
{
name = horn;
position = "{727, 491}";
},
{
name = ogonek;
position = "{736, 10}";
},
{
name = top;
position = "{413, 693}";
},
{
name = topleft;
position = "{28, 693}";
},
{
name = topright;
position = "{797, 693}";
}
);
layerId = "DA405910-5117-420C-9605-F5A44EE03BDF";
paths = (
{
closed = 1;
nodes = (
"624 -20 OFFCURVE",
"777 132 OFFCURVE",
"777 345 CURVE SMOOTH",
"777 560 OFFCURVE",
"624 712 OFFCURVE",
"412 712 CURVE SMOOTH",
"201 712 OFFCURVE",
"48 560 OFFCURVE",
"48 345 CURVE SMOOTH",
"48 132 OFFCURVE",
"201 -20 OFFCURVE",
"412 -20 CURVE SMOOTH"
);
},
{
closed = 1;
nodes = (
"243 44 OFFCURVE",
"120 170 OFFCURVE",
"120 345 CURVE SMOOTH",
"120 520 OFFCURVE",
"243 648 OFFCURVE",
"412 648 CURVE SMOOTH",
"582 648 OFFCURVE",
"705 520 OFFCURVE",
"705 345 CURVE SMOOTH",
"705 170 OFFCURVE",
"582 44 OFFCURVE",
"412 44 CURVE SMOOTH"
);
}
);
width = 825;
},
{
anchors = (
{
name = bottom;
position = "{413, 0}";
},
{
name = center;
position = "{413, 347}";
},
{
name = horn;
position = "{727, 491}";
},
{
name = ogonek;
position = "{736, 10}";
},
{
name = top;
position = "{413, 693}";
},
{
name = topleft;
position = "{28, 693}";
},
{
name = topright;
position = "{797, 693}";
}
);
layerId = "37B2A381-2B9F-4DE4-98E5-835D13A27EF0";
paths = (
{
closed = 1;
nodes = (
"624 -20 OFFCURVE",
"777 133 OFFCURVE",
"777 345 CURVE SMOOTH",
"777 559 OFFCURVE",
"625 712 OFFCURVE",
"412 712 CURVE SMOOTH",
"200 712 OFFCURVE",
"48 559 OFFCURVE",
"48 345 CURVE SMOOTH",
"48 133 OFFCURVE",
"201 -20 OFFCURVE",
"412 -20 CURVE SMOOTH"
);
},
{
closed = 1;
nodes = (
"254 65 OFFCURVE",
"141 182 OFFCURVE",
"141 345 CURVE SMOOTH",
"141 508 OFFCURVE",
"255 627 OFFCURVE",
"412 627 CURVE SMOOTH",
"570 627 OFFCURVE",
"684 508 OFFCURVE",
"684 345 CURVE SMOOTH",
"684 182 OFFCURVE",
"570 65 OFFCURVE",
"412 65 CURVE SMOOTH"
);
}
);
width = 825;
}
);
unicode = 004F;
},
{
glyphname = Oslash;
lastChange = "2019-07-03 17:03:59 +0000";
layers = (
{
layerId = "DA405910-5117-420C-9605-F5A44EE03BDF";
paths = (
{
closed = 1;
nodes = (
"622 -20 OFFCURVE",
"775 132 OFFCURVE",
"775 345 CURVE SMOOTH",
"775 560 OFFCURVE",
"622 712 OFFCURVE",
"410 712 CURVE SMOOTH",
"199 712 OFFCURVE",
"45 560 OFFCURVE",
"45 345 CURVE SMOOTH",
"45 132 OFFCURVE",
"199 -20 OFFCURVE",
"410 -20 CURVE SMOOTH"
);
},
{
closed = 1;
nodes = (
"241 44 OFFCURVE",
"118 170 OFFCURVE",
"118 345 CURVE SMOOTH",
"118 520 OFFCURVE",
"241 648 OFFCURVE",
"410 648 CURVE SMOOTH",
"580 648 OFFCURVE",
"703 520 OFFCURVE",
"703 345 CURVE SMOOTH",
"703 170 OFFCURVE",
"579 44 OFFCURVE",
"410 44 CURVE SMOOTH"
);
},
{
closed = 1;
nodes = (
"90 -52 LINE",
"175 -52 LINE",
"730 750 LINE",
"645 750 LINE"
);
}
);
width = 860;
},
{
background = {
paths = (
{
closed = 1;
nodes = (
"622 -20 OFFCURVE",
"775 132 OFFCURVE",
"775 345 CURVE SMOOTH",
"775 560 OFFCURVE",
"622 712 OFFCURVE",
"410 712 CURVE SMOOTH",
"199 712 OFFCURVE",
"45 560 OFFCURVE",
"45 345 CURVE SMOOTH",
"45 132 OFFCURVE",
"199 -20 OFFCURVE",
"410 -20 CURVE SMOOTH"
);
},
{
closed = 1;
nodes = (
"241 44 OFFCURVE",
"118 170 OFFCURVE",
"118 345 CURVE SMOOTH",
"118 520 OFFCURVE",
"241 648 OFFCURVE",
"410 648 CURVE SMOOTH",
"580 648 OFFCURVE",
"703 520 OFFCURVE",
"703 345 CURVE SMOOTH",
"703 170 OFFCURVE",
"579 44 OFFCURVE",
"410 44 CURVE SMOOTH"
);
},
{
closed = 1;
nodes = (
"90 -52 LINE",
"175 -52 LINE",
"730 750 LINE",
"645 750 LINE"
);
}
);
};
layerId = "37B2A381-2B9F-4DE4-98E5-835D13A27EF0";
paths = (
{
closed = 1;
nodes = (
"79 -52 LINE",
"185 -52 LINE",
"740 750 LINE",
"634 750 LINE"
);
},
{
closed = 1;
nodes = (
"624 -20 OFFCURVE",
"777 133 OFFCURVE",
"777 345 CURVE SMOOTH",
"777 559 OFFCURVE",
"625 712 OFFCURVE",
"412 712 CURVE SMOOTH",
"200 712 OFFCURVE",
"48 559 OFFCURVE",
"48 345 CURVE SMOOTH",
"48 133 OFFCURVE",
"201 -20 OFFCURVE",
"412 -20 CURVE SMOOTH"
);
},
{
closed = 1;
nodes = (
"254 65 OFFCURVE",
"141 182 OFFCURVE",
"141 345 CURVE SMOOTH",
"141 508 OFFCURVE",
"255 627 OFFCURVE",
"412 627 CURVE SMOOTH",
"570 627 OFFCURVE",
"684 508 OFFCURVE",
"684 345 CURVE SMOOTH",
"684 182 OFFCURVE",
"570 65 OFFCURVE",
"412 65 CURVE SMOOTH"
);
}
);
width = 860;
}
);
unicode = 00D8;
},
{
glyphname = OE;
lastChange = "2019-07-03 17:04:25 +0000";
layers = (
{
layerId = "DA405910-5117-420C-9605-F5A44EE03BDF";
paths = (
{
closed = 1;
nodes = (
"45 132 OFFCURVE",
"198 -20 OFFCURVE",
"409 -20 CURVE SMOOTH",
"537 -20 OFFCURVE",
"644 35 OFFCURVE",
"708 127 CURVE",
"708 0 LINE",
"1306 0 LINE",
"1306 65 LINE",
"774 65 LINE",
"774 372 LINE",
"1105 372 LINE",
"1105 437 LINE",
"774 437 LINE",
"774 628 LINE",
"1306 628 LINE",
"1306 693 LINE",
"708 693 LINE",
"708 565 LINE",
"644 657 OFFCURVE",
"537 712 OFFCURVE",
"409 712 CURVE SMOOTH",
"198 712 OFFCURVE",
"45 560 OFFCURVE",
"45 345 CURVE SMOOTH"
);
},
{
closed = 1;
nodes = (
"117 520 OFFCURVE",
"240 648 OFFCURVE",
"409 648 CURVE SMOOTH",
"579 648 OFFCURVE",
"702 520 OFFCURVE",
"702 345 CURVE SMOOTH",
"702 170 OFFCURVE",
"579 44 OFFCURVE",
"409 44 CURVE SMOOTH",
"240 44 OFFCURVE",
"117 170 OFFCURVE",
"117 345 CURVE SMOOTH"
);
}
);
width = 1344;
},
{
layerId = "37B2A381-2B9F-4DE4-98E5-835D13A27EF0";
paths = (
{
closed = 1;
nodes = (
"53 133 OFFCURVE",
"206 -20 OFFCURVE",
"417 -20 CURVE SMOOTH",
"530 -20 OFFCURVE",
"629 23 OFFCURVE",
"695 100 CURVE",
"695 -1 LINE",
"1298 -1 LINE",
"1298 86 LINE",
"782 86 LINE",
"782 360 LINE",
"1103 360 LINE",
"1103 446 LINE",
"782 446 LINE",
"782 607 LINE",
"1298 607 LINE",
"1298 694 LINE",
"695 694 LINE",
"695 592 LINE",
"629 669 OFFCURVE",
"530 712 OFFCURVE",
"417 712 CURVE SMOOTH",
"206 712 OFFCURVE",
"53 559 OFFCURVE",
"53 345 CURVE SMOOTH"
);
},
{
closed = 1;
nodes = (
"146 508 OFFCURVE",
"260 627 OFFCURVE",
"417 627 CURVE SMOOTH",
"575 627 OFFCURVE",
"690 508 OFFCURVE",
"690 345 CURVE SMOOTH",
"690 182 OFFCURVE",
"576 65 OFFCURVE",
"417 65 CURVE SMOOTH",
"260 65 OFFCURVE",
"146 182 OFFCURVE",
"146 345 CURVE SMOOTH"
);
}
);
width = 1344;
}
);
unicode = 0152;
},
{
glyphname = P;
lastChange = "2019-07-03 15:15:10 +0000";
layers = (
{
anchors = (
{
name = bottom;
position = "{380, 0}";
},
{
name = top;
position = "{380, 693}";
}
);
background = {
paths = (
{
closed = 1;
nodes = (
"150 0 LINE",
"150 65 LINE",
"150 118 LINE",
"150 307 LINE",
"524 307 LINE SMOOTH",
"602 307 OFFCURVE",
"645 337 OFFCURVE",
"672 372 CURVE SMOOTH",
"694 400 OFFCURVE",
"712 458 OFFCURVE",
"712 499 CURVE SMOOTH",
"712 616 OFFCURVE",
"637 693 OFFCURVE",
"520 693 CURVE SMOOTH",
"85 693 LINE",
"85 0 LINE"
);
},
{
closed = 1;
nodes = (
"150 628 LINE",
"203 628 LINE",
"520 628 LINE SMOOTH",
"591 628 OFFCURVE",
"641 562 OFFCURVE",
"641 500 CURVE SMOOTH",
"641 440 OFFCURVE",
"599 372 OFFCURVE",
"520 372 CURVE SMOOTH",
"150 372 LINE"
);
}
);
};
layerId = "DA405910-5117-420C-9605-F5A44EE03BDF";
paths = (
{
closed = 1;
nodes = (
"155 0 LINE",
"155 307 LINE",
"529 307 LINE SMOOTH",
"644 307 OFFCURVE",
"717 385 OFFCURVE",
"717 500 CURVE SMOOTH",
"717 616 OFFCURVE",
"644 693 OFFCURVE",
"529 693 CURVE SMOOTH",
"90 693 LINE",
"90 0 LINE"
);
},
{
closed = 1;
nodes = (
"155 628 LINE",
"525 628 LINE SMOOTH",
"596 628 OFFCURVE",
"648 568 OFFCURVE",
"648 500 CURVE SMOOTH",
"648 434 OFFCURVE",
"604 372 OFFCURVE",
"525 372 CURVE SMOOTH",
"155 372 LINE"
);
}
);
width = 759;
},
{
anchors = (
{
name = bottom;
position = "{380, 0}";
},
{
name = top;
position = "{380, 693}";
}
);
layerId = "37B2A381-2B9F-4DE4-98E5-835D13A27EF0";
paths = (
{
closed = 1;
nodes = (
"175 0 LINE",
"175 297 LINE",
"525 297 LINE SMOOTH",
"641 297 OFFCURVE",
"718 376 OFFCURVE",
"718 495 CURVE SMOOTH",
"718 614 OFFCURVE",
"641 693 OFFCURVE",
"525 693 CURVE SMOOTH",
"89 693 LINE",
"89 0 LINE"
);
},
{
closed = 1;
nodes = (
"175 607 LINE",
"521 607 LINE SMOOTH",
"580 607 OFFCURVE",
"628 557 OFFCURVE",
"628 495 CURVE SMOOTH",
"628 430 OFFCURVE",
"584 383 OFFCURVE",
"521 383 CURVE SMOOTH",
"175 383 LINE"
);
}
);
width = 759;
}
);
unicode = 0050;
},
{
glyphname = Thorn;
lastChange = "2019-07-03 17:05:02 +0000";
layers = (
{
layerId = "DA405910-5117-420C-9605-F5A44EE03BDF";
paths = (
{
closed = 1;
nodes = (
"150 0 LINE",
"150 170 LINE",
"524 170 LINE SMOOTH",
"639 170 OFFCURVE",
"712 248 OFFCURVE",
"712 363 CURVE SMOOTH",
"712 479 OFFCURVE",
"639 556 OFFCURVE",
"524 556 CURVE SMOOTH",
"150 556 LINE",
"150 693 LINE",
"85 693 LINE",
"85 0 LINE"
);
},
{
closed = 1;
nodes = (
"150 491 LINE",
"520 491 LINE SMOOTH",
"591 491 OFFCURVE",
"643 431 OFFCURVE",
"643 363 CURVE SMOOTH",
"643 297 OFFCURVE",
"599 235 OFFCURVE",
"520 235 CURVE SMOOTH",
"150 235 LINE"
);
}
);
width = 745;
},
{
layerId = "37B2A381-2B9F-4DE4-98E5-835D13A27EF0";
paths = (
{
closed = 1;
nodes = (
"170 0 LINE",
"170 164 LINE",
"520 164 LINE SMOOTH",
"636 164 OFFCURVE",
"713 243 OFFCURVE",
"713 362 CURVE SMOOTH",
"713 482 OFFCURVE",
"636 561 OFFCURVE",
"520 561 CURVE SMOOTH",
"170 561 LINE",
"170 693 LINE",
"84 693 LINE",
"84 0 LINE"
);
},
{
closed = 1;
nodes = (
"170 475 LINE",
"516 475 LINE SMOOTH",
"575 475 OFFCURVE",
"623 425 OFFCURVE",
"623 362 CURVE SMOOTH",
"623 297 OFFCURVE",
"579 250 OFFCURVE",
"516 250 CURVE SMOOTH",
"170 250 LINE"
);
}
);
width = 745;
}
);
unicode = 00DE;
},
{
glyphname = Q;
lastChange = "2019-07-17 16:42:10 +0000";
layers = (
{
anchors = (
{
name = bottom;
position = "{411, 0}";
},
{
name = top;
position = "{411, 693}";
}
);
layerId = "DA405910-5117-420C-9605-F5A44EE03BDF";
paths = (
{
closed = 1;
nodes = (
"622 -19 OFFCURVE",
"775 133 OFFCURVE",
"775 346 CURVE SMOOTH",
"775 560 OFFCURVE",
"622 712 OFFCURVE",
"410 712 CURVE SMOOTH",
"199 712 OFFCURVE",
"46 560 OFFCURVE",
"46 346 CURVE SMOOTH",
"46 133 OFFCURVE",
"199 -19 OFFCURVE",
"410 -19 CURVE SMOOTH"
);
},
{
closed = 1;
nodes = (
"241 45 OFFCURVE",
"118 172 OFFCURVE",
"118 346 CURVE SMOOTH",
"118 520 OFFCURVE",
"241 648 OFFCURVE",
"410 648 CURVE SMOOTH",
"580 648 OFFCURVE",
"703 520 OFFCURVE",
"703 346 CURVE SMOOTH",
"703 171 OFFCURVE",
"580 45 OFFCURVE",
"410 45 CURVE SMOOTH"
);
},
{
closed = 1;
nodes = (
"707 -70 LINE",
"754 -24 LINE",
"444 285 LINE",
"398 239 LINE"
);
}
);
width = 821;
},
{
anchors = (
{
name = bottom;
position = "{411, 0}";
},
{
name = top;
position = "{411, 693}";
}
);
layerId = "37B2A381-2B9F-4DE4-98E5-835D13A27EF0";
paths = (
{
closed = 1;
nodes = (
"621 -19 OFFCURVE",
"774 134 OFFCURVE",
"774 345 CURVE SMOOTH",
"774 557 OFFCURVE",
"622 710 OFFCURVE",
"410 710 CURVE SMOOTH",
"199 710 OFFCURVE",
"47 557 OFFCURVE",
"47 345 CURVE SMOOTH",
"47 134 OFFCURVE",
"199 -19 OFFCURVE",
"410 -19 CURVE SMOOTH"
);
},
{
closed = 1;
nodes = (
"254 66 OFFCURVE",
"140 184 OFFCURVE",
"140 345 CURVE SMOOTH",
"140 507 OFFCURVE",
"254 625 OFFCURVE",
"410 625 CURVE SMOOTH",
"567 625 OFFCURVE",
"681 507 OFFCURVE",
"681 345 CURVE SMOOTH",
"681 183 OFFCURVE",
"568 66 OFFCURVE",
"410 66 CURVE SMOOTH"
);
},
{
closed = 1;
nodes = (
"696 -72 LINE",
"758 -12 LINE",
"443 303 LINE",
"382 242 LINE"
);
}
);
width = 821;
}
);
unicode = 0051;
},
{
glyphname = R;
lastChange = "2019-07-17 16:22:19 +0000";
layers = (
{
anchors = (
{
name = bottom;
position = "{368, 0}";
},
{
name = top;
position = "{368, 693}";
}
);
layerId = "DA405910-5117-420C-9605-F5A44EE03BDF";
paths = (
{
closed = 1;
nodes = (
"147 0 LINE",
"147 307 LINE",
"428 307 LINE",
"629 0 LINE",
"709 0 LINE",
"508 307 LINE",
"521 307 LINE SMOOTH",
"636 307 OFFCURVE",
"709 385 OFFCURVE",
"709 500 CURVE SMOOTH",
"709 616 OFFCURVE",
"636 693 OFFCURVE",
"521 693 CURVE SMOOTH",
"82 693 LINE",
"82 0 LINE"
);
},
{
closed = 1;
nodes = (
"147 628 LINE",
"517 628 LINE SMOOTH",
"588 628 OFFCURVE",
"640 568 OFFCURVE",
"640 500 CURVE SMOOTH",
"640 434 OFFCURVE",
"596 372 OFFCURVE",
"517 372 CURVE SMOOTH",
"147 372 LINE"
);
}
);
width = 751;
},
{
anchors = (
{
name = bottom;
position = "{367, 0}";
},
{
name = top;
position = "{367, 693}";
}
);
layerId = "37B2A381-2B9F-4DE4-98E5-835D13A27EF0";
paths = (
{
closed = 1;
nodes = (
"166 0 LINE",
"166 297 LINE",
"420 297 LINE",
"614 0 LINE",
"719 0 LINE",
"525 297 LINE",
"516 297 LINE",
"632 297 OFFCURVE",
"709 376 OFFCURVE",
"709 495 CURVE SMOOTH",
"709 614 OFFCURVE",
"633 693 OFFCURVE",
"516 693 CURVE SMOOTH",
"80 693 LINE",
"80 0 LINE"
);
},
{
closed = 1;
nodes = (
"166 607 LINE",
"512 607 LINE SMOOTH",
"572 607 OFFCURVE",
"619 557 OFFCURVE",
"619 495 CURVE SMOOTH",
"619 430 OFFCURVE",
"575 383 OFFCURVE",
"512 383 CURVE SMOOTH",
"166 383 LINE"
);
}
);
width = 750;
}
);
unicode = 0052;
},
{
glyphname = S;
lastChange = "2019-07-19 17:22:28 +0000";
layers = (
{
anchors = (
{
name = bottom;
position = "{362, 0}";
},
{
name = top;
position = "{362, 693}";
}
);
background = {
paths = (
{
closed = 1;
nodes = (
"577 -20 OFFCURVE",
"666 77 OFFCURVE",
"666 175 CURVE SMOOTH",
"666 288 OFFCURVE",
"570 332 OFFCURVE",
"479 350 CURVE SMOOTH",
"401 365 OFFCURVE",
"311 381 OFFCURVE",
"267 391 CURVE SMOOTH",
"193 408 OFFCURVE",
"132 441 OFFCURVE",
"132 516 CURVE SMOOTH",
"132 565 OFFCURVE",
"189 650 OFFCURVE",
"364 648 CURVE SMOOTH",
"539 646 OFFCURVE",
"603 527 OFFCURVE",
"611 490 CURVE",
"677 509 LINE",
"660 572 OFFCURVE",
"584 712 OFFCURVE",
"364 712 CURVE SMOOTH",
"133 712 OFFCURVE",
"60 594 OFFCURVE",
"60 516 CURVE SMOOTH",
"60 403 OFFCURVE",
"134 352 OFFCURVE",
"250 327 CURVE SMOOTH",
"306 315 OFFCURVE",
"371 306 OFFCURVE",
"458 288 CURVE SMOOTH",
"524 274 OFFCURVE",
"596 249 OFFCURVE",
"596 175 CURVE SMOOTH",
"596 113 OFFCURVE",
"522 44 OFFCURVE",
"371 44 CURVE SMOOTH",
"207 44 OFFCURVE",
"132 156 OFFCURVE",
"119 194 CURVE",
"46 176 LINE",
"71 105 OFFCURVE",
"157 -20 OFFCURVE",
"369 -20 CURVE SMOOTH"
);
}
);
};
hints = (
{
horizontal = 1;
origin = "{0, 21}";
target = down;
type = TopGhost;
}
);
layerId = "DA405910-5117-420C-9605-F5A44EE03BDF";
paths = (
{
closed = 1;
nodes = (
"583 -20 OFFCURVE",
"666 77 OFFCURVE",
"667 175 CURVE SMOOTH",
"668 288 OFFCURVE",
"570 329 OFFCURVE",
"479 350 CURVE SMOOTH",
"401 368 OFFCURVE",
"311 381 OFFCURVE",
"267 391 CURVE SMOOTH",
"193 408 OFFCURVE",
"132 441 OFFCURVE",
"132 516 CURVE SMOOTH",
"132 565 OFFCURVE",
"189 650 OFFCURVE",
"364 648 CURVE SMOOTH",
"539 646 OFFCURVE",
"603 527 OFFCURVE",
"611 490 CURVE",
"677 509 LINE",
"660 572 OFFCURVE",
"584 712 OFFCURVE",
"364 712 CURVE SMOOTH",
"133 712 OFFCURVE",
"60 594 OFFCURVE",
"60 516 CURVE SMOOTH",
"60 403 OFFCURVE",
"134 352 OFFCURVE",
"250 327 CURVE SMOOTH",
"306 315 OFFCURVE",
"379 305 OFFCURVE",
"466 285 CURVE SMOOTH",
"532 270 OFFCURVE",
"596 247 OFFCURVE",
"596 177 CURVE SMOOTH",
"596 110 OFFCURVE",
"522 44 OFFCURVE",
"371 44 CURVE SMOOTH",
"207 44 OFFCURVE",
"130 156 OFFCURVE",
"119 194 CURVE",
"46 176 LINE",
"71 103 OFFCURVE",
"157 -20 OFFCURVE",
"369 -20 CURVE SMOOTH"
);
}
);
width = 723;
},
{
anchors = (
{
name = bottom;
position = "{362, 0}";
},
{
name = top;
position = "{362, 693}";
}
);
background = {
paths = (
{
closed = 1;
nodes = (
"549 -20 OFFCURVE",
"668 60 OFFCURVE",
"668 180 CURVE SMOOTH",
"668 275 OFFCURVE",
"602 337 OFFCURVE",
"477 361 CURVE SMOOTH",
"402 376 OFFCURVE",
"315 391 OFFCURVE",
"273 401 CURVE SMOOTH",
"189 420 OFFCURVE",
"151 455 OFFCURVE",
"151 511 CURVE SMOOTH",
"151 577 OFFCURVE",
"242 628 OFFCURVE",
"364 627 CURVE SMOOTH",
"526 625 OFFCURVE",
"584 517 OFFCURVE",
"594 471 CURVE",
"681 496 LINE",
"671 550 OFFCURVE",
"598 712 OFFCURVE",
"364 712 CURVE SMOOTH",
"134 712 OFFCURVE",
"58 594 OFFCURVE",
"58 511 CURVE SMOOTH",
"58 406 OFFCURVE",
"119 345 OFFCURVE",
"251 316 CURVE SMOOTH",
"306 305 OFFCURVE",
"369 296 OFFCURVE",
"453 278 CURVE SMOOTH",
"539 260 OFFCURVE",
"577 231 OFFCURVE",
"577 180 CURVE SMOOTH",
"577 116 OFFCURVE",
"490 65 OFFCURVE",
"371 65 CURVE SMOOTH",
"197 65 OFFCURVE",
"141 187 OFFCURVE",
"135 212 CURVE",
"41 190 LINE",
"60 123 OFFCURVE",
"144 -20 OFFCURVE",
"369 -20 CURVE SMOOTH"
);
}
);
};
hints = (
{
horizontal = 1;
place = "{712, -20}";
target = down;
type = TopGhost;
}
);
layerId = "37B2A381-2B9F-4DE4-98E5-835D13A27EF0";
paths = (
{
closed = 1;
nodes = (
"552 -20 OFFCURVE",
"668 57 OFFCURVE",
"669 180 CURVE SMOOTH",
"670 273 OFFCURVE",
"608 331 OFFCURVE",
"478 361 CURVE SMOOTH",
"402 379 OFFCURVE",
"315 391 OFFCURVE",
"273 401 CURVE SMOOTH",
"189 420 OFFCURVE",
"151 455 OFFCURVE",
"151 511 CURVE SMOOTH",
"151 577 OFFCURVE",
"242 628 OFFCURVE",
"364 627 CURVE SMOOTH",
"526 625 OFFCURVE",
"584 517 OFFCURVE",
"594 471 CURVE",
"681 496 LINE",
"671 550 OFFCURVE",
"598 712 OFFCURVE",
"364 712 CURVE SMOOTH",
"134 712 OFFCURVE",
"58 589 OFFCURVE",
"58 511 CURVE SMOOTH",
"58 406 OFFCURVE",
"119 345 OFFCURVE",
"251 316 CURVE SMOOTH",
"306 305 OFFCURVE",
"376 295 OFFCURVE",
"460 276 CURVE SMOOTH",
"543 257 OFFCURVE",
"577 231 OFFCURVE",
"577 182 CURVE SMOOTH",
"577 114 OFFCURVE",
"493 65 OFFCURVE",
"371 65 CURVE SMOOTH",
"218 65 OFFCURVE",
"148 167 OFFCURVE",
"135 213 CURVE",
"44 190 LINE",
"63 121 OFFCURVE",
"146 -20 OFFCURVE",
"370 -20 CURVE SMOOTH"
);
}
);
width = 723;
}
);
unicode = 0053;
},
{
glyphname = Germandbls;
lastChange = "2019-07-03 17:06:17 +0000";
layers = (
{
layerId = "DA405910-5117-420C-9605-F5A44EE03BDF";
paths = (
{
closed = 1;
nodes = (
"68 70 OFFCURVE",
"129 -20 OFFCURVE",
"289 -20 CURVE SMOOTH",
"458 -20 OFFCURVE",
"515 61 OFFCURVE",
"515 122 CURVE SMOOTH",
"515 246 OFFCURVE",
"370 255 OFFCURVE",
"291 265 CURVE SMOOTH",
"212 275 OFFCURVE",
"111 288 OFFCURVE",
"111 365 CURVE SMOOTH",
"111 405 OFFCURVE",
"161 458 OFFCURVE",
"288 454 CURVE SMOOTH",
"415 450 OFFCURVE",
"453 378 OFFCURVE",
"460 357 CURVE",
"519 378 LINE",
"505 411 OFFCURVE",
"453 510 OFFCURVE",
"288 510 CURVE SMOOTH",
"121 510 OFFCURVE",
"50 438 OFFCURVE",
"50 365 CURVE SMOOTH",
"50 235 OFFCURVE",
"191 221 OFFCURVE",
"291 208 CURVE SMOOTH",
"391 195 OFFCURVE",
"454 187 OFFCURVE",
"454 123 CURVE SMOOTH",
"454 79 OFFCURVE",
"401 34 OFFCURVE",
"288 36 CURVE SMOOTH",
"178 38 OFFCURVE",
"126 98 OFFCURVE",
"106 139 CURVE",
"46 118 LINE"
);
},
{
closed = 1;
nodes = (
"624 70 OFFCURVE",
"685 -20 OFFCURVE",
"845 -20 CURVE SMOOTH",
"1014 -20 OFFCURVE",
"1071 61 OFFCURVE",
"1071 122 CURVE SMOOTH",
"1071 246 OFFCURVE",
"926 255 OFFCURVE",
"847 265 CURVE SMOOTH",
"768 275 OFFCURVE",
"667 288 OFFCURVE",
"667 365 CURVE SMOOTH",
"667 405 OFFCURVE",
"717 458 OFFCURVE",
"844 454 CURVE SMOOTH",
"971 450 OFFCURVE",
"1009 378 OFFCURVE",
"1016 357 CURVE",
"1075 378 LINE",
"1061 411 OFFCURVE",
"1009 510 OFFCURVE",
"844 510 CURVE SMOOTH",
"677 510 OFFCURVE",
"606 438 OFFCURVE",
"606 365 CURVE SMOOTH",
"606 235 OFFCURVE",
"747 221 OFFCURVE",
"847 208 CURVE SMOOTH",
"947 195 OFFCURVE",
"1010 187 OFFCURVE",
"1010 123 CURVE SMOOTH",
"1010 79 OFFCURVE",
"957 34 OFFCURVE",
"844 36 CURVE SMOOTH",
"734 38 OFFCURVE",
"682 98 OFFCURVE",
"662 139 CURVE",
"602 118 LINE"
);
}
);
width = 1121;
},
{
background = {
paths = (
{
closed = 1;
nodes = (
"68 70 OFFCURVE",
"129 -20 OFFCURVE",
"289 -20 CURVE SMOOTH",
"458 -20 OFFCURVE",
"515 61 OFFCURVE",
"515 122 CURVE SMOOTH",
"515 246 OFFCURVE",
"370 255 OFFCURVE",
"291 265 CURVE SMOOTH",
"212 275 OFFCURVE",
"111 288 OFFCURVE",
"111 365 CURVE SMOOTH",
"111 405 OFFCURVE",
"161 458 OFFCURVE",
"288 454 CURVE SMOOTH",
"415 450 OFFCURVE",
"453 378 OFFCURVE",
"460 357 CURVE",
"519 378 LINE",
"505 411 OFFCURVE",
"453 510 OFFCURVE",
"288 510 CURVE SMOOTH",
"121 510 OFFCURVE",
"50 438 OFFCURVE",
"50 365 CURVE SMOOTH",
"50 235 OFFCURVE",
"191 221 OFFCURVE",
"291 208 CURVE SMOOTH",
"391 195 OFFCURVE",
"454 187 OFFCURVE",
"454 123 CURVE SMOOTH",
"454 79 OFFCURVE",
"401 34 OFFCURVE",
"288 36 CURVE SMOOTH",
"178 38 OFFCURVE",
"126 98 OFFCURVE",
"106 139 CURVE",
"46 118 LINE"
);
},
{
closed = 1;
nodes = (
"624 70 OFFCURVE",
"685 -20 OFFCURVE",
"845 -20 CURVE SMOOTH",
"1014 -20 OFFCURVE",
"1071 61 OFFCURVE",
"1071 122 CURVE SMOOTH",
"1071 246 OFFCURVE",
"926 255 OFFCURVE",
"847 265 CURVE SMOOTH",
"768 275 OFFCURVE",
"667 288 OFFCURVE",
"667 365 CURVE SMOOTH",
"667 405 OFFCURVE",
"717 458 OFFCURVE",
"844 454 CURVE SMOOTH",
"971 450 OFFCURVE",
"1009 378 OFFCURVE",
"1016 357 CURVE",
"1075 378 LINE",
"1061 411 OFFCURVE",
"1009 510 OFFCURVE",
"844 510 CURVE SMOOTH",
"677 510 OFFCURVE",
"606 438 OFFCURVE",
"606 365 CURVE SMOOTH",
"606 235 OFFCURVE",
"747 221 OFFCURVE",
"847 208 CURVE SMOOTH",
"947 195 OFFCURVE",
"1010 187 OFFCURVE",
"1010 123 CURVE SMOOTH",
"1010 79 OFFCURVE",
"957 34 OFFCURVE",
"844 36 CURVE SMOOTH",
"734 38 OFFCURVE",
"682 98 OFFCURVE",
"662 139 CURVE",
"602 118 LINE"
);
}
);
};
layerId = "37B2A381-2B9F-4DE4-98E5-835D13A27EF0";
paths = (
{
closed = 1;
nodes = (
"427 -20 OFFCURVE",
"514 39 OFFCURVE",
"514 130 CURVE SMOOTH",
"514 249 OFFCURVE",
"368 269 OFFCURVE",
"292 278 CURVE SMOOTH",
"216 287 OFFCURVE",
"134 296 OFFCURVE",
"134 353 CURVE SMOOTH",
"134 401 OFFCURVE",
"196 435 OFFCURVE",
"287 433 CURVE SMOOTH",
"365 431 OFFCURVE",
"423 398 OFFCURVE",
"450 339 CURVE",
"523 365 LINE",
"520 383 OFFCURVE",
"462 510 OFFCURVE",
"285 510 CURVE SMOOTH",
"140 510 OFFCURVE",
"50 451 OFFCURVE",
"50 353 CURVE SMOOTH",
"50 223 OFFCURVE",
"194 210 OFFCURVE",
"289 198 CURVE SMOOTH",
"391 185 OFFCURVE",
"431 166 OFFCURVE",
"431 130 CURVE SMOOTH",
"431 86 OFFCURVE",
"376 56 OFFCURVE",
"291 57 CURVE SMOOTH",
"210 58 OFFCURVE",
"144 97 OFFCURVE",
"120 158 CURVE",
"41 130 LINE",
"76 35 OFFCURVE",
"168 -20 OFFCURVE",
"292 -20 CURVE SMOOTH"
);
},
{
closed = 1;
nodes = (
"984 -20 OFFCURVE",
"1071 39 OFFCURVE",
"1071 130 CURVE SMOOTH",
"1071 249 OFFCURVE",
"925 269 OFFCURVE",
"849 278 CURVE SMOOTH",
"773 287 OFFCURVE",
"691 296 OFFCURVE",
"691 353 CURVE SMOOTH",
"691 401 OFFCURVE",
"753 435 OFFCURVE",
"844 433 CURVE SMOOTH",
"922 431 OFFCURVE",
"980 398 OFFCURVE",
"1007 339 CURVE",
"1080 365 LINE",
"1077 383 OFFCURVE",
"1019 510 OFFCURVE",
"842 510 CURVE SMOOTH",
"697 510 OFFCURVE",
"607 451 OFFCURVE",
"607 353 CURVE SMOOTH",
"607 223 OFFCURVE",
"751 210 OFFCURVE",
"846 198 CURVE SMOOTH",
"948 185 OFFCURVE",
"988 166 OFFCURVE",
"988 130 CURVE SMOOTH",
"988 86 OFFCURVE",
"933 56 OFFCURVE",
"848 57 CURVE SMOOTH",
"767 58 OFFCURVE",
"701 97 OFFCURVE",
"677 158 CURVE",
"598 130 LINE",
"633 35 OFFCURVE",
"725 -20 OFFCURVE",
"849 -20 CURVE SMOOTH"
);
}
);
width = 1121;
}
);
unicode = 1E9E;
},
{
glyphname = T;
lastChange = "2019-07-19 17:25:14 +0000";
layers = (
{
anchors = (
{
name = bottom;
position = "{304, 0}";
},
{
name = center;
position = "{308, 347}";
},
{
name = top;
position = "{308, 693}";
}
);
layerId = "DA405910-5117-420C-9605-F5A44EE03BDF";
paths = (
{
closed = 1;
nodes = (
"340 0 LINE",
"340 628 LINE",
"619 628 LINE",
"619 693 LINE",
"-4 693 LINE",
"-4 628 LINE",
"275 628 LINE",
"275 0 LINE"
);
}
);
width = 615;
},
{
anchors = (
{
name = bottom;
position = "{300, 0}";
},
{
name = center;
position = "{308, 347}";
},
{
name = top;
position = "{308, 693}";
}
);
layerId = "37B2A381-2B9F-4DE4-98E5-835D13A27EF0";
paths = (
{
closed = 1;
nodes = (
"351 0 LINE",
"351 607 LINE",
"620 607 LINE",
"620 693 LINE",
"-5 693 LINE",
"-5 607 LINE",
"264 607 LINE",
"264 0 LINE"
);
}
);
width = 615;
}
);
unicode = 0054;
},
{
glyphname = Tbar;
lastChange = "2019-07-03 17:22:45 +0000";
layers = (
{
layerId = "DA405910-5117-420C-9605-F5A44EE03BDF";
paths = (
{
closed = 1;
nodes = (
"349 0 LINE",
"349 628 LINE",
"628 628 LINE",
"628 693 LINE",
"5 693 LINE",
"5 628 LINE",
"284 628 LINE",
"284 0 LINE"
);
},
{
closed = 1;
nodes = (
"509 334 LINE",
"509 398 LINE",
"126 398 LINE",
"126 334 LINE"
);
}
);
width = 633;
},
{
background = {
paths = (
{
closed = 1;
nodes = (
"345 0 LINE",
"345 628 LINE",
"624 628 LINE",
"624 693 LINE",
"1 693 LINE",
"1 628 LINE",
"280 628 LINE",
"280 0 LINE"
);
}
);
};
layerId = "37B2A381-2B9F-4DE4-98E5-835D13A27EF0";
paths = (
{
closed = 1;
nodes = (
"509 324 LINE",
"509 409 LINE",
"116 409 LINE",
"116 324 LINE"
);
},
{
closed = 1;
nodes = (
"356 0 LINE",
"356 607 LINE",
"625 607 LINE",
"625 693 LINE",
"0 693 LINE",
"0 607 LINE",
"269 607 LINE",
"269 0 LINE"
);
}
);
width = 625;
}
);
unicode = 0166;
},
{
glyphname = U;
lastChange = "2019-07-03 15:16:16 +0000";
layers = (
{
anchors = (
{
name = bottom;
position = "{416, 0}";
},
{
name = horn;
position = "{750, 528}";
},
{
name = ogonek;
position = "{741, 10}";
},
{
name = top;
position = "{416, 693}";
},
{
name = topright;
position = "{802, 693}";
}
);
layerId = "DA405910-5117-420C-9605-F5A44EE03BDF";
paths = (
{
closed = 1;
nodes = (
"599 -20 OFFCURVE",
"750 108 OFFCURVE",
"750 315 CURVE SMOOTH",
"750 693 LINE",
"684 693 LINE",
"684 339 LINE SMOOTH",
"684 155 OFFCURVE",
"563 50 OFFCURVE",
"416 50 CURVE SMOOTH",
"269 50 OFFCURVE",
"148 147 OFFCURVE",
"148 339 CURVE SMOOTH",
"148 693 LINE",
"82 693 LINE",
"82 315 LINE SMOOTH",
"82 100 OFFCURVE",
"233 -20 OFFCURVE",
"416 -20 CURVE SMOOTH"
);
}
);
width = 832;
},
{
anchors = (
{
name = bottom;
position = "{416, 0}";
},
{
name = horn;
position = "{750, 528}";
},
{
name = ogonek;
position = "{741, 10}";
},
{
name = top;
position = "{416, 693}";
},
{
name = topright;
position = "{802, 693}";
}
);
layerId = "37B2A381-2B9F-4DE4-98E5-835D13A27EF0";
paths = (
{
closed = 1;
nodes = (
"610 -20 OFFCURVE",
"751 120 OFFCURVE",
"751 316 CURVE SMOOTH",
"751 693 LINE",
"664 693 LINE",
"664 339 LINE SMOOTH",
"664 179 OFFCURVE",
"563 71 OFFCURVE",
"416 71 CURVE SMOOTH",
"265 71 OFFCURVE",
"168 175 OFFCURVE",
"168 339 CURVE SMOOTH",
"168 693 LINE",
"81 693 LINE",
"81 316 LINE SMOOTH",
"81 116 OFFCURVE",
"217 -20 OFFCURVE",
"416 -20 CURVE SMOOTH"
);
}
);
width = 832;
}
);
unicode = 0055;
},
{
glyphname = V;
lastChange = "2019-07-19 17:25:45 +0000";
layers = (
{
anchors = (
{
name = bottom;
position = "{356, 0}";
},
{
name = top;
position = "{356, 693}";
}
);
layerId = "DA405910-5117-420C-9605-F5A44EE03BDF";
paths = (
{
closed = 1;
nodes = (
"319 0 LINE",
"393 0 LINE",
"716 693 LINE",
"641 693 LINE",
"355 78 LINE",
"71 693 LINE",
"-4 693 LINE"
);
}
);
width = 712;
},
{
anchors = (
{
name = bottom;
position = "{356, 0}";
},
{
name = top;
position = "{356, 693}";
}
);
layerId = "37B2A381-2B9F-4DE4-98E5-835D13A27EF0";
paths = (
{
closed = 1;
nodes = (
"313 0 LINE",
"399 0 LINE",
"722 693 LINE",
"624 693 LINE",
"355 115 LINE",
"88 693 LINE",
"-10 693 LINE"
);
}
);
width = 712;
}
);
unicode = 0056;
},
{
glyphname = W;
lastChange = "2019-07-19 17:25:30 +0000";
layers = (
{
anchors = (
{
name = bottom;
position = "{483, 0}";
},
{
name = top;
position = "{483, 693}";
}
);
layerId = "DA405910-5117-420C-9605-F5A44EE03BDF";
paths = (
{
closed = 1;
nodes = (
"335 0 LINE",
"483 354 LINE",
"631 0 LINE",
"697 0 LINE",
"969 693 LINE",
"895 693 LINE",
"664 95 LINE",
"482 510 LINE",
"302 96 LINE",
"70 693 LINE",
"-4 693 LINE",
"269 0 LINE"
);
}
);
width = 965;
},
{
anchors = (
{
name = bottom;
position = "{483, 0}";
},
{
name = top;
position = "{483, 693}";
}
);
layerId = "37B2A381-2B9F-4DE4-98E5-835D13A27EF0";
paths = (
{
closed = 1;
nodes = (
"348 0 LINE",
"483 324 LINE",
"618 0 LINE",
"698 0 LINE",
"970 693 LINE",
"873 693 LINE",
"657 134 LINE",
"482 534 LINE",
"309 135 LINE",
"92 693 LINE",
"-5 693 LINE",
"268 0 LINE"
);
}
);
width = 965;
}
);
unicode = 0057;
},
{
glyphname = X;
lastChange = "2019-07-19 17:28:58 +0000";
layers = (
{
anchors = (
{
name = bottom;
position = "{341, 0}";
},
{
name = top;
position = "{341, 693}";
}
);
layerId = "DA405910-5117-420C-9605-F5A44EE03BDF";
paths = (
{
closed = 1;
nodes = (
"85 0 LINE",
"335 297 LINE",
"584 0 LINE",
"672 0 LINE",
"379 349 LINE",
"667 693 LINE",
"579 693 LINE",
"335 402 LINE",
"90 693 LINE",
"3 693 LINE",
"291 349 LINE",
"-2 0 LINE"
);
}
);
width = 670;
},
{
anchors = (
{
name = bottom;
position = "{341, 0}";
},
{
name = top;
position = "{341, 693}";
}
);
layerId = "37B2A381-2B9F-4DE4-98E5-835D13A27EF0";
paths = (
{
closed = 1;
nodes = (
"99 0 LINE",
"335 281 LINE",
"570 0 LINE",
"686 0 LINE",
"393 349 LINE",
"681 693 LINE",
"565 693 LINE",
"335 418 LINE",
"104 693 LINE",
"-11 693 LINE",
"277 349 LINE",
"-16 0 LINE"
);
}
);
width = 670;
}
);
unicode = 0058;
},
{
glyphname = Y;
lastChange = "2019-07-19 17:29:37 +0000";
layers = (
{
anchors = (
{
name = bottom;
position = "{378, 0}";
},
{
name = top;
position = "{378, 693}";
},
{
name = topleft;
position = "{31, 693}";
}
);
layerId = "DA405910-5117-420C-9605-F5A44EE03BDF";
paths = (
{
closed = 1;
nodes = (
"258 0 LINE",
"720 693 LINE",
"639 693 LINE",
"394 325 LINE",
"85 693 LINE",
"-2 693 LINE",
"356 268 LINE",
"178 0 LINE"
);
}
);
width = 718;
},
{
anchors = (
{
name = bottom;
position = "{378, 0}";
},
{
name = top;
position = "{378, 693}";
},
{
name = topleft;
position = "{31, 693}";
}
);
layerId = "37B2A381-2B9F-4DE4-98E5-835D13A27EF0";
paths = (
{
closed = 1;
nodes = (
"268 0 LINE",
"730 693 LINE",
"623 693 LINE",
"392 345 LINE",
"100 693 LINE",
"-15 693 LINE",
"342 270 LINE",
"162 0 LINE"
);
}
);
width = 718;
}
);
unicode = 0059;
},
{
glyphname = Z;
lastChange = "2019-07-17 16:39:57 +0000";
layers = (
{
anchors = (
{
name = bottom;
position = "{371, 0}";
},
{
name = center;
position = "{371, 347}";
},
{
name = top;
position = "{371, 693}";
}
);
layerId = "DA405910-5117-420C-9605-F5A44EE03BDF";
paths = (
{
closed = 1;
nodes = (
"705 0 LINE",
"705 65 LINE",
"132 65 LINE",
"705 628 LINE",
"705 693 LINE",
"36 693 LINE",
"36 628 LINE",
"609 628 LINE",
"37 65 LINE",
"37 0 LINE"
);
}
);
width = 741;
},
{
anchors = (
{
name = bottom;
position = "{371, 0}";
},
{
name = center;
position = "{371, 347}";
},
{
name = top;
position = "{371, 693}";
}
);
layerId = "37B2A381-2B9F-4DE4-98E5-835D13A27EF0";
paths = (
{
closed = 1;
nodes = (
"705 0 LINE",
"705 86 LINE",
"168 86 LINE",
"705 614 LINE",
"705 693 LINE",
"36 693 LINE",
"36 607 LINE",
"573 607 LINE",
"37 79 LINE",
"37 0 LINE"
);
}
);
width = 741;
}
);
unicode = 005A;
},
{
glyphname = a;
lastChange = "2019-07-17 17:10:32 +0000";
layers = (
{
anchors = (
{
name = bottom;
position = "{288, 0}";
},
{
name = ogonek;
position = "{510, 10}";
},
{
name = top;
position = "{298, 491}";
}
);
layerId = "DA405910-5117-420C-9605-F5A44EE03BDF";
paths = (
{
closed = 1;
nodes = (
"45 59 OFFCURVE",
"98 -20 OFFCURVE",
"271 -20 CURVE SMOOTH",
"379 -20 OFFCURVE",
"457 22 OFFCURVE",
"485 61 CURVE",
"485 33 OFFCURVE",
"486 16 OFFCURVE",
"488 0 CURVE",
"551 0 LINE",
"549 14 OFFCURVE",
"548 38 OFFCURVE",
"548 66 CURVE SMOOTH",
"548 260 LINE SMOOTH",
"548 436 OFFCURVE",
"472 510 OFFCURVE",
"298 510 CURVE SMOOTH",
"173.711 510 OFFCURVE",
"79.113 446.788 OFFCURVE",
"55.447 366.292 CURVE",
"114 345 LINE",
"133 403 OFFCURVE",
"198 454 OFFCURVE",
"298 454 CURVE SMOOTH",
"410 454 OFFCURVE",
"483 418 OFFCURVE",
"483 283 CURVE",
"293 277 LINE SMOOTH",
"191 274 OFFCURVE",
"142 263 OFFCURVE",
"108 246 CURVE SMOOTH",
"72 227 OFFCURVE",
"39 186 OFFCURVE",
"42 125 CURVE SMOOTH"
);
},
{
closed = 1;
nodes = (
"108 206 OFFCURVE",
"172 216 OFFCURVE",
"296 220 CURVE SMOOTH",
"484 226 LINE",
"484 211 OFFCURVE",
"484 208 OFFCURVE",
"484 188 CURVE SMOOTH",
"484 82 OFFCURVE",
"370 36 OFFCURVE",
"271 36 CURVE SMOOTH",
"175 36 OFFCURVE",
"108 70 OFFCURVE",
"108 129 CURVE SMOOTH"
);
}
);
width = 611;
},
{
anchors = (
{
name = bottom;
position = "{288, 0}";
},
{
name = ogonek;
position = "{510, 10}";
},
{
name = top;
position = "{298, 491}";
}
);
layerId = "37B2A381-2B9F-4DE4-98E5-835D13A27EF0";
paths = (
{
closed = 1;
nodes = (
"46 36 OFFCURVE",
"133 -20 OFFCURVE",
"272 -20 CURVE SMOOTH",
"349 -20 OFFCURVE",
"423 4 OFFCURVE",
"466 40 CURVE",
"466 25 OFFCURVE",
"468 14 OFFCURVE",
"470 0 CURVE",
"553 0 LINE",
"550 26 OFFCURVE",
"549 47 OFFCURVE",
"549 74 CURVE SMOOTH",
"549 259 LINE SMOOTH",
"549 433 OFFCURVE",
"472 510 OFFCURVE",
"298 510 CURVE SMOOTH",
"175 510 OFFCURVE",
"72 446 OFFCURVE",
"52 354 CURVE",
"130 326 LINE",
"144 390 OFFCURVE",
"212 433 OFFCURVE",
"298 433 CURVE SMOOTH",
"411 433 OFFCURVE",
"460 392 OFFCURVE",
"463 292 CURVE",
"293 287 LINE SMOOTH",
"203 284 OFFCURVE",
"149 275 OFFCURVE",
"111 256 CURVE SMOOTH",
"65 232 OFFCURVE",
"39 184 OFFCURVE",
"42 130 CURVE SMOOTH"
);
},
{
closed = 1;
nodes = (
"128 190 OFFCURVE",
"162 205 OFFCURVE",
"296 210 CURVE SMOOTH",
"464 215 LINE",
"464 209 OFFCURVE",
"464 203 OFFCURVE",
"464 190 CURVE SMOOTH",
"464 112 OFFCURVE",
"385 57 OFFCURVE",
"272 57 CURVE SMOOTH",
"183 57 OFFCURVE",
"128 87 OFFCURVE",
"128 134 CURVE SMOOTH"
);
}
);
width = 611;
}
);
leftKerningGroup = "0";
unicode = 0061;
},
{
glyphname = ae;
lastChange = "2019-07-03 17:32:52 +0000";
layers = (
{
layerId = "DA405910-5117-420C-9605-F5A44EE03BDF";
paths = (
{
closed = 1;
nodes = (
"51 59 OFFCURVE",
"104 -20 OFFCURVE",
"277 -20 CURVE SMOOTH",
"426 -20 OFFCURVE",
"505 52 OFFCURVE",
"528 98 CURVE",
"549 60 OFFCURVE",
"615 -20 OFFCURVE",
"763 -20 CURVE SMOOTH",
"894 -20 OFFCURVE",
"990 41 OFFCURVE",
"1027 142 CURVE",
"961 166 LINE",
"933 84 OFFCURVE",
"862 36 OFFCURVE",
"763 36 CURVE SMOOTH",
"639 36 OFFCURVE",
"559 105 OFFCURVE",
"553 225 CURVE",
"1041 225 LINE",
"1041 241 LINE SMOOTH",
"1041 403 OFFCURVE",
"934 510 OFFCURVE",
"763 510 CURVE SMOOTH",
"655 510 OFFCURVE",
"573 464 OFFCURVE",
"528 396 CURVE",
"488 468 OFFCURVE",
"423 509 OFFCURVE",
"304 509 CURVE SMOOTH",
"179.55 509 OFFCURVE",
"84.868 445.624 OFFCURVE",
"61.355 364.979 CURVE",
"120 344 LINE",
"137 396 OFFCURVE",
"204 453 OFFCURVE",
"304 453 CURVE SMOOTH",
"416 453 OFFCURVE",
"489 407 OFFCURVE",
"489 282 CURVE",
"299 276 LINE SMOOTH",
"197 273 OFFCURVE",
"148 262 OFFCURVE",
"114 245 CURVE SMOOTH",
"78 227 OFFCURVE",
"45 186 OFFCURVE",
"48 125 CURVE SMOOTH"
);
},
{
closed = 1;
nodes = (
"114 206 OFFCURVE",
"178 216 OFFCURVE",
"302 220 CURVE SMOOTH",
"490 226 LINE",
"490 188 LINE SMOOTH",
"490 82 OFFCURVE",
"376 36 OFFCURVE",
"277 36 CURVE SMOOTH",
"181 36 OFFCURVE",
"114 70 OFFCURVE",
"114 129 CURVE SMOOTH"
);
},
{
closed = 1;
nodes = (
"573 389 OFFCURVE",
"650 454 OFFCURVE",
"763 454 CURVE SMOOTH",
"878 454 OFFCURVE",
"955 389 OFFCURVE",
"971 282 CURVE",
"556 282 LINE"
);
}
);
width = 1089;
},
{
layerId = "37B2A381-2B9F-4DE4-98E5-835D13A27EF0";
paths = (
{
closed = 1;
nodes = (
"52 36 OFFCURVE",
"138 -20 OFFCURVE",
"277 -20 CURVE SMOOTH",
"407 -20 OFFCURVE",
"491 33 OFFCURVE",
"529 98 CURVE",
"567 23 OFFCURVE",
"664 -20 OFFCURVE",
"765 -20 CURVE SMOOTH",
"893 -20 OFFCURVE",
"991 40 OFFCURVE",
"1028 143 CURVE",
"943 174 LINE",
"918 98 OFFCURVE",
"854 56 OFFCURVE",
"765 56 CURVE SMOOTH",
"657 56 OFFCURVE",
"586 117 OFFCURVE",
"576 218 CURVE",
"1042 218 LINE",
"1042 241 LINE SMOOTH",
"1042 404 OFFCURVE",
"933 510 OFFCURVE",
"765 510 CURVE SMOOTH",
"658 510 OFFCURVE",
"576 469 OFFCURVE",
"529 398 CURVE",
"487 469 OFFCURVE",
"421 510 OFFCURVE",
"303 510 CURVE SMOOTH",
"180 510 OFFCURVE",
"77 446 OFFCURVE",
"57 354 CURVE",
"135 326 LINE",
"149 390 OFFCURVE",
"217 433 OFFCURVE",
"303 433 CURVE SMOOTH",
"416 433 OFFCURVE",
"465 392 OFFCURVE",
"468 292 CURVE",
"298 287 LINE SMOOTH",
"208 284 OFFCURVE",
"154 275 OFFCURVE",
"116 256 CURVE SMOOTH",
"70 233 OFFCURVE",
"44 184 OFFCURVE",
"47 130 CURVE SMOOTH"
);
},
{
closed = 1;
nodes = (
"133 190 OFFCURVE",
"167 206 OFFCURVE",
"301 210 CURVE SMOOTH",
"469 215 LINE",
"469 190 LINE SMOOTH",
"469 112 OFFCURVE",
"390 57 OFFCURVE",
"277 57 CURVE SMOOTH",
"188 57 OFFCURVE",
"133 87 OFFCURVE",
"133 134 CURVE SMOOTH"
);
},
{
closed = 1;
nodes = (
"600 384 OFFCURVE",
"667 434 OFFCURVE",
"765 434 CURVE SMOOTH",
"865 434 OFFCURVE",
"932 384 OFFCURVE",
"950 296 CURVE",
"581 296 LINE"
);
}
);
width = 1089;
}
);
unicode = 00E6;
},
{
glyphname = b;
lastChange = "2019-07-03 15:17:50 +0000";
layers = (
{
anchors = (
{
name = bottom;
position = "{349, 0}";
},
{
name = top;
position = "{349, 750}";
}
);
layerId = "DA405910-5117-420C-9605-F5A44EE03BDF";
paths = (
{
closed = 1;
nodes = (
"528 -20 OFFCURVE",
"638 83 OFFCURVE",
"638 244 CURVE SMOOTH",
"638 407 OFFCURVE",
"528 510 OFFCURVE",
"357 510 CURVE SMOOTH",
"265 510 OFFCURVE",
"181 471 OFFCURVE",
"142 417 CURVE",
"142 693 LINE",
"78 693 LINE",
"78 0 LINE",
"142 0 LINE",
"142 72 LINE",
"194 12 OFFCURVE",
"265 -20 OFFCURVE",
"357 -20 CURVE SMOOTH"
);
},
{
closed = 1;
nodes = (
"223 35 OFFCURVE",
"142 117 OFFCURVE",
"142 244 CURVE SMOOTH",
"142 373 OFFCURVE",
"223 455 OFFCURVE",
"352 455 CURVE SMOOTH",
"479 455 OFFCURVE",
"564 373 OFFCURVE",
"566 244 CURVE SMOOTH",
"568 117 OFFCURVE",
"483 35 OFFCURVE",
"352 35 CURVE SMOOTH"
);
}
);
width = 678;
},
{
anchors = (
{
name = bottom;
position = "{349, 0}";
},
{
name = top;
position = "{349, 750}";
}
);
layerId = "37B2A381-2B9F-4DE4-98E5-835D13A27EF0";
paths = (
{
closed = 1;
nodes = (
"529 -20 OFFCURVE",
"640 85 OFFCURVE",
"640 247 CURVE SMOOTH",
"640 411 OFFCURVE",
"529 516 OFFCURVE",
"357 516 CURVE SMOOTH",
"281 516 OFFCURVE",
"206 488 OFFCURVE",
"161 445 CURVE",
"161 693 LINE",
"76 693 LINE",
"76 -1 LINE",
"161 -1 LINE",
"161 52 LINE",
"212 4 OFFCURVE",
"278 -20 OFFCURVE",
"357 -20 CURVE SMOOTH"
);
},
{
closed = 1;
nodes = (
"234 56 OFFCURVE",
"161 130 OFFCURVE",
"161 247 CURVE SMOOTH",
"161 366 OFFCURVE",
"234 440 OFFCURVE",
"352 440 CURVE SMOOTH",
"470 440 OFFCURVE",
"546 364 OFFCURVE",
"548 247 CURVE SMOOTH",
"549 131 OFFCURVE",
"473 56 OFFCURVE",
"352 56 CURVE SMOOTH"
);
}
);
width = 678;
}
);
unicode = 0062;
},
{
glyphname = c;
lastChange = "2019-07-03 22:05:02 +0000";
layers = (
{
anchors = (
{
name = bottom;
position = "{312, 0}";
},
{
name = top;
position = "{312, 491}";
}
);
hints = (
{
horizontal = 1;
origin = "{0, 19}";
target = down;
type = TopGhost;
}
);
layerId = "DA405910-5117-420C-9605-F5A44EE03BDF";
paths = (
{
closed = 1;
nodes = (
"450 -20 OFFCURVE",
"546 41 OFFCURVE",
"583 143 CURVE",
"517 167 LINE",
"489 85 OFFCURVE",
"417 36 OFFCURVE",
"319 36 CURVE SMOOTH",
"190 36 OFFCURVE",
"109 118 OFFCURVE",
"109 246 CURVE SMOOTH",
"109 373 OFFCURVE",
"190 455 OFFCURVE",
"319 455 CURVE SMOOTH",
"420 455 OFFCURVE",
"492 406 OFFCURVE",
"519 325 CURVE",
"583 348 LINE",
"546 449 OFFCURVE",
"450 510 OFFCURVE",
"319 510 CURVE SMOOTH",
"149 510 OFFCURVE",
"40 407 OFFCURVE",
"40 246 CURVE SMOOTH",
"40 84 OFFCURVE",
"149 -20 OFFCURVE",
"319 -20 CURVE SMOOTH"
);
}
);
width = 623;
},
{
anchors = (
{
name = bottom;
position = "{312, 0}";
},
{
name = top;
position = "{312, 491}";
}
);
hints = (
{
horizontal = 1;
origin = "{0, 19}";
target = down;
type = TopGhost;
}
);
layerId = "37B2A381-2B9F-4DE4-98E5-835D13A27EF0";
paths = (
{
closed = 1;
nodes = (
"452 -21 OFFCURVE",
"552 44 OFFCURVE",
"586 153 CURVE",
"501 184 LINE",
"477 102 OFFCURVE",
"411 55 OFFCURVE",
"319 55 CURVE SMOOTH",
"202 55 OFFCURVE",
"129 128 OFFCURVE",
"129 245 CURVE SMOOTH",
"129 361 OFFCURVE",
"202 434 OFFCURVE",
"319 434 CURVE SMOOTH",
"414 434 OFFCURVE",
"480 387 OFFCURVE",
"503 306 CURVE",
"586 336 LINE",
"552 445 OFFCURVE",
"452 510 OFFCURVE",
"319 510 CURVE SMOOTH",
"149 510 OFFCURVE",
"40 406 OFFCURVE",
"40 245 CURVE SMOOTH",
"40 84 OFFCURVE",
"149 -21 OFFCURVE",
"319 -21 CURVE SMOOTH"
);
}
);
width = 623;
}
);
unicode = 0063;
},
{
glyphname = d;
lastChange = "2019-07-17 17:10:34 +0000";
layers = (
{
anchors = (
{
name = bottom;
position = "{328, 0}";
},
{
name = center;
position = "{328, 246}";
},
{
name = top;
position = "{321, 510}";
},
{
name = topright;
position = "{639, 491}";
}
);
layerId = "DA405910-5117-420C-9605-F5A44EE03BDF";
paths = (
{
closed = 1;
nodes = (
"413 -20 OFFCURVE",
"484 12 OFFCURVE",
"536 72 CURVE",
"536 0 LINE",
"600 0 LINE",
"600 693 LINE",
"536 693 LINE",
"536 417 LINE",
"497 471 OFFCURVE",
"413 510 OFFCURVE",
"321 510 CURVE SMOOTH",
"150 510 OFFCURVE",
"40 407 OFFCURVE",
"40 244 CURVE SMOOTH",
"40 83 OFFCURVE",
"150 -20 OFFCURVE",
"321 -20 CURVE SMOOTH"
);
},
{
closed = 1;
nodes = (
"195 35 OFFCURVE",
"110 117 OFFCURVE",
"112 244 CURVE SMOOTH",
"114 373 OFFCURVE",
"199 455 OFFCURVE",
"326 455 CURVE SMOOTH",
"455 455 OFFCURVE",
"536 373 OFFCURVE",
"536 244 CURVE SMOOTH",
"536 117 OFFCURVE",
"455 35 OFFCURVE",
"326 35 CURVE SMOOTH"
);
}
);
width = 678;
},
{
anchors = (
{
name = bottom;
position = "{328, 0}";
},
{
name = center;
position = "{328, 246}";
},
{
name = top;
position = "{321, 516}";
},
{
name = topright;
position = "{639, 491}";
}
);
layerId = "37B2A381-2B9F-4DE4-98E5-835D13A27EF0";
paths = (
{
closed = 1;
nodes = (
"400 -20 OFFCURVE",
"466 4 OFFCURVE",
"517 52 CURVE",
"517 0 LINE",
"602 0 LINE",
"602 693 LINE",
"517 693 LINE",
"517 445 LINE",
"472 488 OFFCURVE",
"397 516 OFFCURVE",
"321 516 CURVE SMOOTH",
"149 516 OFFCURVE",
"38 411 OFFCURVE",
"38 247 CURVE SMOOTH",
"38 85 OFFCURVE",
"149 -20 OFFCURVE",
"321 -20 CURVE SMOOTH"
);
},
{
closed = 1;
nodes = (
"205 56 OFFCURVE",
"129 131 OFFCURVE",
"130 247 CURVE SMOOTH",
"132 364 OFFCURVE",
"208 440 OFFCURVE",
"326 440 CURVE SMOOTH",
"444 440 OFFCURVE",
"517 366 OFFCURVE",
"517 247 CURVE SMOOTH",
"517 130 OFFCURVE",
"444 56 OFFCURVE",
"326 56 CURVE SMOOTH"
);
}
);
width = 678;
}
);
unicode = 0064;
},
{
glyphname = eth;
lastChange = "2019-07-03 17:40:25 +0000";
layers = (
{
layerId = "DA405910-5117-420C-9605-F5A44EE03BDF";
paths = (
{
closed = 1;
nodes = (
"555 289 OFFCURVE",
"520 363 OFFCURVE",
"458 448 CURVE",
"283 693 LINE",
"201 693 LINE",
"389 433 LINE",
"376 441 OFFCURVE",
"335 452 OFFCURVE",
"303 452 CURVE SMOOTH",
"146 452 OFFCURVE",
"49 351 OFFCURVE",
"50 217 CURVE SMOOTH",
"51 82 OFFCURVE",
"146 -20 OFFCURVE",
"303 -20 CURVE SMOOTH",
"455 -20 OFFCURVE",
"552 82 OFFCURVE",
"554 217 CURVE SMOOTH"
);
},
{
closed = 1;
nodes = (
"485 107 OFFCURVE",
"412 41 OFFCURVE",
"303 41 CURVE SMOOTH",
"195 41 OFFCURVE",
"123 107 OFFCURVE",
"120 217 CURVE SMOOTH",
"118 324 OFFCURVE",
"192 394 OFFCURVE",
"303 394 CURVE SMOOTH",
"409 394 OFFCURVE",
"483 320 OFFCURVE",
"484 217 CURVE SMOOTH"
);
},
{
closed = 1;
nodes = (
"194 493 LINE",
"459 646 LINE",
"431 695 LINE",
"166 542 LINE"
);
}
);
width = 610;
},
{
layerId = "37B2A381-2B9F-4DE4-98E5-835D13A27EF0";
paths = (
{
closed = 1;
nodes = (
"557 289 OFFCURVE",
"527 359 OFFCURVE",
"461 451 CURVE SMOOTH",
"289 693 LINE",
"189 693 LINE",
"362 449 LINE",
"353 453 OFFCURVE",
"327 459 OFFCURVE",
"303 459 CURVE SMOOTH",
"151 459 OFFCURVE",
"47 362 OFFCURVE",
"48 222 CURVE SMOOTH",
"49 79 OFFCURVE",
"152 -18 OFFCURVE",
"303 -18 CURVE SMOOTH",
"450 -18 OFFCURVE",
"554 80 OFFCURVE",
"556 221 CURVE SMOOTH"
);
},
{
closed = 1;
nodes = (
"466 124 OFFCURVE",
"404 64 OFFCURVE",
"303 64 CURVE SMOOTH",
"204 64 OFFCURVE",
"141 124 OFFCURVE",
"138 222 CURVE SMOOTH",
"137 318 OFFCURVE",
"202 380 OFFCURVE",
"303 380 CURVE SMOOTH",
"398 380 OFFCURVE",
"465 315 OFFCURVE",
"466 222 CURVE SMOOTH"
);
},
{
closed = 1;
nodes = (
"190 473 LINE",
"465 632 LINE",
"430 693 LINE",
"155 535 LINE"
);
}
);
width = 610;
}
);
unicode = 00F0;
},
{
glyphname = dcroat;
lastChange = "2019-07-03 18:53:12 +0000";
layers = (
{
layerId = "DA405910-5117-420C-9605-F5A44EE03BDF";
paths = (
{
closed = 1;
nodes = (
"544 693 LINE",
"544 417 LINE",
"505 471 OFFCURVE",
"421 510 OFFCURVE",
"329 510 CURVE SMOOTH",
"158 510 OFFCURVE",
"48 407 OFFCURVE",
"48 244 CURVE SMOOTH",
"48 83 OFFCURVE",
"158 -20 OFFCURVE",
"329 -20 CURVE SMOOTH",
"421 -20 OFFCURVE",
"492 12 OFFCURVE",
"544 72 CURVE",
"544 0 LINE",
"608 0 LINE",
"608 693 LINE"
);
},
{
closed = 1;
nodes = (
"544 117 OFFCURVE",
"463 35 OFFCURVE",
"334 35 CURVE SMOOTH",
"203 35 OFFCURVE",
"118 117 OFFCURVE",
"120 244 CURVE SMOOTH",
"122 373 OFFCURVE",
"207 455 OFFCURVE",
"334 455 CURVE SMOOTH",
"463 455 OFFCURVE",
"544 373 OFFCURVE",
"544 244 CURVE SMOOTH"
);
},
{
closed = 1;
nodes = (
"406 556 LINE",
"680 556 LINE",
"680 610 LINE",
"406 610 LINE"
);
}
);
width = 722;
},
{
layerId = "37B2A381-2B9F-4DE4-98E5-835D13A27EF0";
paths = (
{
closed = 1;
nodes = (
"388 556 LINE",
"680 556 LINE",
"680 622 LINE",
"388 622 LINE"
);
},
{
closed = 1;
nodes = (
"406 -20 OFFCURVE",
"472 4 OFFCURVE",
"523 52 CURVE",
"523 0 LINE",
"608 0 LINE",
"608 693 LINE",
"523 693 LINE",
"523 445 LINE",
"478 488 OFFCURVE",
"403 516 OFFCURVE",
"327 516 CURVE SMOOTH",
"155 516 OFFCURVE",
"44 411 OFFCURVE",
"44 247 CURVE SMOOTH",
"44 85 OFFCURVE",
"155 -20 OFFCURVE",
"327 -20 CURVE SMOOTH"
);
},
{
closed = 1;
nodes = (
"211 56 OFFCURVE",
"135 131 OFFCURVE",
"136 247 CURVE SMOOTH",
"137 364 OFFCURVE",
"214 440 OFFCURVE",
"332 440 CURVE SMOOTH",
"450 440 OFFCURVE",
"523 366 OFFCURVE",
"523 247 CURVE SMOOTH",
"523 130 OFFCURVE",
"450 56 OFFCURVE",
"332 56 CURVE SMOOTH"
);
}
);
width = 722;
}
);
unicode = 0111;
},
{
glyphname = e;
lastChange = "2019-07-17 17:10:38 +0000";
layers = (
{
anchors = (
{
name = bottom;
position = "{319, 0}";
},
{
name = ogonek;
position = "{576, 10}";
},
{
name = top;
position = "{319, 491}";
}
);
background = {
paths = (
{
closed = 1;
nodes = (
"35 83 OFFCURVE",
"144 -20 OFFCURVE",
"314 -20 CURVE SMOOTH",
"445 -20 OFFCURVE",
"541 41 OFFCURVE",
"578 142 CURVE",
"512 166 LINE",
"484 84 OFFCURVE",
"413 35 OFFCURVE",
"314 35 CURVE SMOOTH",
"190 35 OFFCURVE",
"110 109 OFFCURVE",
"104 229 CURVE",
"592 229 LINE",
"592 241 LINE SMOOTH",
"592 403 OFFCURVE",
"485 510 OFFCURVE",
"314 510 CURVE SMOOTH",
"144 510 OFFCURVE",
"35 407 OFFCURVE",
"35 246 CURVE SMOOTH"
);
},
{
closed = 1;
nodes = (
"124 393 OFFCURVE",
"201 455 OFFCURVE",
"314 455 CURVE SMOOTH",
"429 455 OFFCURVE",
"506 393 OFFCURVE",
"522 286 CURVE",
"107 286 LINE"
);
}
);
};
layerId = "DA405910-5117-420C-9605-F5A44EE03BDF";
paths = (
{
closed = 1;
nodes = (
"450 -20 OFFCURVE",
"546 41 OFFCURVE",
"583 142 CURVE",
"517 166 LINE",
"489 84 OFFCURVE",
"418 35 OFFCURVE",
"319 35 CURVE SMOOTH",
"195 35 OFFCURVE",
"115 109 OFFCURVE",
"109 229 CURVE",
"597 229 LINE",
"597 241 LINE SMOOTH",
"597 403 OFFCURVE",
"490 510 OFFCURVE",
"319 510 CURVE SMOOTH",
"149 510 OFFCURVE",
"40 407 OFFCURVE",
"40 246 CURVE SMOOTH",
"40 83 OFFCURVE",
"149 -20 OFFCURVE",
"319 -20 CURVE SMOOTH"
);
},
{
closed = 1;
nodes = (
"129 393 OFFCURVE",
"206 455 OFFCURVE",
"319 455 CURVE SMOOTH",
"434 455 OFFCURVE",
"511 393 OFFCURVE",
"527 286 CURVE",
"112 286 LINE"
);
}
);
width = 637;
},
{
anchors = (
{
name = bottom;
position = "{319, 0}";
},
{
name = ogonek;
position = "{565, 20}";
},
{
name = top;
position = "{319, 491}";
}
);
layerId = "37B2A381-2B9F-4DE4-98E5-835D13A27EF0";
paths = (
{
closed = 1;
nodes = (
"447.755 -20 OFFCURVE",
"545.583 39.98 OFFCURVE",
"582.544 142.701 CURVE",
"497.951 174.083 LINE",
"472.535 98.3 OFFCURVE",
"408.182 56 OFFCURVE",
"319 56 CURVE SMOOTH",
"211 56 OFFCURVE",
"140 117 OFFCURVE",
"130 218 CURVE",
"596 218 LINE",
"596 241 LINE SMOOTH",
"596 404 OFFCURVE",
"487 510 OFFCURVE",
"319 510 CURVE SMOOTH",
"150 510 OFFCURVE",
"41 406 OFFCURVE",
"41 246 CURVE SMOOTH",
"41 84 OFFCURVE",
"150 -20 OFFCURVE",
"319 -20 CURVE SMOOTH"
);
},
{
closed = 1;
nodes = (
"154 384 OFFCURVE",
"221 434 OFFCURVE",
"319 434 CURVE SMOOTH",
"419 434 OFFCURVE",
"486 384 OFFCURVE",
"504 296 CURVE",
"135 296 LINE"
);
}
);
width = 637;
}
);
unicode = 0065;
},
{
glyphname = f;
lastChange = "2019-07-03 16:15:20 +0000";
layers = (
{
anchors = (
{
name = bottom;
position = "{227, 0}";
},
{
name = top;
position = "{227, 750}";
}
);
layerId = "DA405910-5117-420C-9605-F5A44EE03BDF";
paths = (
{
closed = 1;
nodes = (
"195 0 LINE",
"195 396 LINE",
"414 396 LINE",
"414 454 LINE",
"195 454 LINE",
"195 553 LINE",
"195 606 OFFCURVE",
"196 616 OFFCURVE",
"208 629 CURVE SMOOTH",
"219 641 OFFCURVE",
"239 650 OFFCURVE",
"276 650 CURVE",
"414 650 LINE",
"414 706 LINE",
"277 706 LINE",
"222 706 OFFCURVE",
"189 698 OFFCURVE",
"165 675 CURVE SMOOTH",
"140 653 OFFCURVE",
"131 632 OFFCURVE",
"131 589 CURVE",
"131 454 LINE",
"20 454 LINE",
"20 396 LINE",
"131 396 LINE",
"131 0 LINE"
);
}
);
width = 434;
},
{
anchors = (
{
name = bottom;
position = "{227, 0}";
},
{
name = top;
position = "{227, 750}";
}
);
layerId = "37B2A381-2B9F-4DE4-98E5-835D13A27EF0";
paths = (
{
closed = 1;
nodes = (
"207 0 LINE",
"207 375 LINE",
"419 375 LINE",
"419 454 LINE",
"207 454 LINE",
"207 546 LINE SMOOTH",
"207 597 OFFCURVE",
"208 603 OFFCURVE",
"217 612 CURVE SMOOTH",
"227 623 OFFCURVE",
"246 629 OFFCURVE",
"274 629 CURVE SMOOTH",
"419 629 LINE",
"419 706 LINE",
"275 706 LINE SMOOTH",
"217 706 OFFCURVE",
"183 697 OFFCURVE",
"159 673 CURVE",
"132 649 OFFCURVE",
"122 625 OFFCURVE",
"122 581 CURVE SMOOTH",
"122 454 LINE",
"15 454 LINE",
"15 375 LINE",
"122 375 LINE",
"122 0 LINE"
);
}
);
width = 434;
}
);
unicode = 0066;
},
{
glyphname = g;
lastChange = "2019-07-19 17:40:01 +0000";
layers = (
{
anchors = (
{
name = bottom;
position = "{333, -250}";
},
{
name = top;
position = "{333, 491}";
}
);
background = {
paths = (
{
closed = 1;
nodes = (
"195 35 OFFCURVE",
"110 117 OFFCURVE",
"112 244 CURVE SMOOTH",
"114 373 OFFCURVE",
"199 455 OFFCURVE",
"326 455 CURVE SMOOTH",
"455 455 OFFCURVE",
"536 373 OFFCURVE",
"536 245 CURVE SMOOTH",
"536 118 OFFCURVE",
"455 35 OFFCURVE",
"326 35 CURVE SMOOTH"
);
},
{
closed = 1;
nodes = (
"600 491 LINE",
"536 491 LINE",
"536 417 LINE",
"497 471 OFFCURVE",
"413 510 OFFCURVE",
"321 510 CURVE SMOOTH",
"150 510 OFFCURVE",
"40 407 OFFCURVE",
"40 244 CURVE SMOOTH",
"40 83 OFFCURVE",
"150 -20 OFFCURVE",
"321 -20 CURVE SMOOTH",
"413 -20 OFFCURVE",
"484 12 OFFCURVE",
"536 72 CURVE",
"536 2 LINE",
"600 5 LINE"
);
},
{
closed = 1;
nodes = (
"596 -44 OFFCURVE",
"593 -105 OFFCURVE",
"537 -154 CURVE",
"488 -196 OFFCURVE",
"429 -221 OFFCURVE",
"347 -222 CURVE",
"264 -224 OFFCURVE",
"203 -203 OFFCURVE",
"156 -175 CURVE",
"114 -149 OFFCURVE",
"89 -121 OFFCURVE",
"70 -84 CURVE",
"123 -55 LINE",
"149 -96 OFFCURVE",
"167 -113 OFFCURVE",
"205 -137 CURVE",
"233 -154 OFFCURVE",
"276 -164 OFFCURVE",
"343 -164 CURVE",
"392 -165 OFFCURVE",
"447 -150 OFFCURVE",
"486 -122 CURVE",
"532 -88 OFFCURVE",
"533 -44 OFFCURVE",
"536 -14 CURVE",
"597 -12 LINE"
);
}
);
};
layerId = "DA405910-5117-420C-9605-F5A44EE03BDF";
paths = (
{
closed = 1;
nodes = (
"40 83 OFFCURVE",
"150 -20 OFFCURVE",
"321 -20 CURVE SMOOTH",
"413 -20 OFFCURVE",
"484 12 OFFCURVE",
"536 72 CURVE",
"536 -20 LINE",
"535 -91 OFFCURVE",
"473 -165 OFFCURVE",
"337 -165 CURVE SMOOTH",
"213 -165 OFFCURVE",
"156 -106 OFFCURVE",
"123 -55 CURVE",
"65 -77 LINE",
"98 -142 OFFCURVE",
"180 -222 OFFCURVE",
"337 -222 CURVE SMOOTH",
"501 -222 OFFCURVE",
"600 -134 OFFCURVE",
"600 -20 CURVE",
"600 491 LINE",
"536 491 LINE",
"536 417 LINE",
"497 471 OFFCURVE",
"413 510 OFFCURVE",
"321 510 CURVE SMOOTH",
"150 510 OFFCURVE",
"40 407 OFFCURVE",
"40 244 CURVE SMOOTH"
);
},
{
closed = 1;
nodes = (
"114 373 OFFCURVE",
"199 455 OFFCURVE",
"326 455 CURVE SMOOTH",
"455 455 OFFCURVE",
"536 373 OFFCURVE",
"536 245 CURVE SMOOTH",
"536 118 OFFCURVE",
"455 35 OFFCURVE",
"326 35 CURVE SMOOTH",
"195 35 OFFCURVE",
"110 117 OFFCURVE",
"112 244 CURVE SMOOTH"
);
}
);
width = 674;
},
{
anchors = (
{
name = bottom;
position = "{333, -250}";
},
{
name = top;
position = "{333, 491}";
}
);
layerId = "37B2A381-2B9F-4DE4-98E5-835D13A27EF0";
paths = (
{
closed = 1;
nodes = (
"37 79 OFFCURVE",
"149 -26 OFFCURVE",
"321 -26 CURVE SMOOTH",
"400 -26 OFFCURVE",
"466 -2 OFFCURVE",
"518 45 CURVE",
"518 -15 LINE SMOOTH",
"516 -91 OFFCURVE",
"444 -144 OFFCURVE",
"336 -144 CURVE SMOOTH",
"243 -144 OFFCURVE",
"179 -109 OFFCURVE",
"134 -34 CURVE",
"57 -64 LINE",
"101 -163 OFFCURVE",
"206 -222 OFFCURVE",
"336 -222 CURVE SMOOTH",
"494 -222 OFFCURVE",
"603 -137 OFFCURVE",
"603 -15 CURVE SMOOTH",
"603 492 LINE",
"518 492 LINE",
"518 439 LINE",
"472 483 OFFCURVE",
"397 510 OFFCURVE",
"321 510 CURVE SMOOTH",
"148 510 OFFCURVE",
"37 405 OFFCURVE",
"37 241 CURVE SMOOTH"
);
},
{
closed = 1;
nodes = (
"132 358 OFFCURVE",
"208 434 OFFCURVE",
"326 434 CURVE SMOOTH",
"444 434 OFFCURVE",
"518 360 OFFCURVE",
"518 242 CURVE SMOOTH",
"518 124 OFFCURVE",
"443 50 OFFCURVE",
"326 50 CURVE SMOOTH",
"205 50 OFFCURVE",
"128 125 OFFCURVE",
"130 241 CURVE SMOOTH"
);
}
);
width = 674;
}
);
unicode = 0067;
},
{
glyphname = h;
lastChange = "2019-07-03 15:22:11 +0000";
layers = (
{
anchors = (
{
name = bottom;
position = "{333, 0}";
},
{
name = center;
position = "{333, 375}";
},
{
name = top;
position = "{333, 750}";
}
);
layerId = "DA405910-5117-420C-9605-F5A44EE03BDF";
paths = (
{
closed = 1;
nodes = (
"142 0 LINE",
"142 269 LINE SMOOTH",
"142 371 OFFCURVE",
"216 455 OFFCURVE",
"350 455 CURVE SMOOTH",
"445 455 OFFCURVE",
"523 422 OFFCURVE",
"523 279 CURVE SMOOTH",
"523 0 LINE",
"588 0 LINE",
"588 288 LINE SMOOTH",
"588 466 OFFCURVE",
"472 510 OFFCURVE",
"357 510 CURVE SMOOTH",
"244 510 OFFCURVE",
"182 469 OFFCURVE",
"142 414 CURVE",
"142 693 LINE",
"78 693 LINE",
"78 0 LINE"
);
}
);
width = 652;
},
{
anchors = (
{
name = bottom;
position = "{333, 0}";
},
{
name = center;
position = "{333, 375}";
},
{
name = top;
position = "{333, 750}";
}
);
layerId = "37B2A381-2B9F-4DE4-98E5-835D13A27EF0";
paths = (
{
closed = 1;
nodes = (
"160 0 LINE",
"160 272 LINE SMOOTH",
"160 372 OFFCURVE",
"236 440 OFFCURVE",
"349 440 CURVE SMOOTH",
"458 440 OFFCURVE",
"505 392 OFFCURVE",
"505 281 CURVE SMOOTH",
"505 0 LINE",
"591 0 LINE",
"591 290 LINE SMOOTH",
"591 438 OFFCURVE",
"510 516 OFFCURVE",
"356 516 CURVE SMOOTH",
"271 516 OFFCURVE",
"207 492 OFFCURVE",
"160 444 CURVE",
"160 693 LINE",
"75 693 LINE",
"75 0 LINE"
);
}
);
width = 652;
}
);
unicode = 0068;
},
{
glyphname = hbar;
lastChange = "2019-07-03 18:53:27 +0000";
layers = (
{
layerId = "DA405910-5117-420C-9605-F5A44EE03BDF";
paths = (
{
closed = 1;
nodes = (
"155 0 LINE",
"155 269 LINE SMOOTH",
"155 371 OFFCURVE",
"229 455 OFFCURVE",
"363 455 CURVE SMOOTH",
"458 455 OFFCURVE",
"536 422 OFFCURVE",
"536 279 CURVE SMOOTH",
"536 0 LINE",
"601 0 LINE",
"601 288 LINE SMOOTH",
"601 466 OFFCURVE",
"485 510 OFFCURVE",
"370 510 CURVE SMOOTH",
"257 510 OFFCURVE",
"195 469 OFFCURVE",
"155 414 CURVE",
"155 693 LINE",
"91 693 LINE",
"91 0 LINE"
);
},
{
closed = 1;
nodes = (
"19 556 LINE",
"293 556 LINE",
"293 610 LINE",
"19 610 LINE"
);
}
);
width = 638;
},
{
layerId = "37B2A381-2B9F-4DE4-98E5-835D13A27EF0";
paths = (
{
closed = 1;
nodes = (
"196 0 LINE",
"196 272 LINE SMOOTH",
"196 372 OFFCURVE",
"272 440 OFFCURVE",
"385 440 CURVE SMOOTH",
"494 440 OFFCURVE",
"541 392 OFFCURVE",
"541 281 CURVE SMOOTH",
"541 0 LINE",
"627 0 LINE",
"627 290 LINE SMOOTH",
"627 438 OFFCURVE",
"546 516 OFFCURVE",
"392 516 CURVE SMOOTH",
"307 516 OFFCURVE",
"243 492 OFFCURVE",
"196 444 CURVE",
"196 693 LINE",
"111 693 LINE",
"111 0 LINE"
);
},
{
closed = 1;
nodes = (
"43 556 LINE",
"335 556 LINE",
"335 622 LINE",
"43 622 LINE"
);
}
);
width = 685;
}
);
unicode = 0127;
},
{
glyphname = i;
lastChange = "2019-07-03 15:22:46 +0000";
layers = (
{
anchors = (
{
name = bottom;
position = "{113, 0}";
},
{
name = top;
position = "{113, 491}";
}
);
layerId = "DA405910-5117-420C-9605-F5A44EE03BDF";
paths = (
{
closed = 1;
nodes = (
"145 0 LINE",
"145 491 LINE",
"81 491 LINE",
"81 0 LINE"
);
},
{
closed = 1;
nodes = (
"148 593 LINE",
"148 693 LINE",
"78 693 LINE",
"78 593 LINE"
);
}
);
width = 226;
},
{
anchors = (
{
name = bottom;
position = "{113, 0}";
},
{
name = top;
position = "{113, 491}";
}
);
layerId = "37B2A381-2B9F-4DE4-98E5-835D13A27EF0";
paths = (
{
closed = 1;
nodes = (
"156 0 LINE",
"156 491 LINE",
"70 491 LINE",
"70 0 LINE"
);
},
{
closed = 1;
nodes = (
"158 593 LINE",
"158 693 LINE",
"68 693 LINE",
"68 593 LINE"
);
}
);
width = 226;
}
);
unicode = 0069;
},
{
glyphname = idotless;
lastChange = "2019-07-17 17:10:41 +0000";
layers = (
{
anchors = (
{
name = bottom;
position = "{107, 0}";
},
{
name = top;
position = "{105, 491}";
}
);
layerId = "DA405910-5117-420C-9605-F5A44EE03BDF";
paths = (
{
closed = 1;
nodes = (
"136 0 LINE",
"136 491 LINE",
"72 491 LINE",
"72 0 LINE"
);
}
);
width = 208;
},
{
anchors = (
{
name = bottom;
position = "{107, 0}";
},
{
name = top;
position = "{105, 491}";
}
);
layerId = "37B2A381-2B9F-4DE4-98E5-835D13A27EF0";
paths = (
{
closed = 1;
nodes = (
"147 0 LINE",
"147 491 LINE",
"61 491 LINE",
"61 0 LINE"
);
}
);
width = 208;
}
);
unicode = 0131;
},
{
glyphname = j;
lastChange = "2019-07-17 17:04:35 +0000";
layers = (
{
layerId = "DA405910-5117-420C-9605-F5A44EE03BDF";
paths = (
{
closed = 1;
nodes = (
"23 -202 LINE",
"78 -202 OFFCURVE",
"112 -195 OFFCURVE",
"136 -172 CURVE",
"161 -150 OFFCURVE",
"169 -128 OFFCURVE",
"169 -85 CURVE",
"169 491 LINE",
"105 491 LINE",
"105 -49 LINE",
"105 -102 OFFCURVE",
"105 -113 OFFCURVE",
"93 -126 CURVE",
"82 -138 OFFCURVE",
"61 -146 OFFCURVE",
"24 -146 CURVE",
"-65 -146 LINE",
"-65 -202 LINE"
);
},
{
closed = 1;
nodes = (
"172 607 LINE",
"172 693 LINE",
"102 693 LINE",
"102 607 LINE"
);
}
);
width = 252;
},
{
layerId = "37B2A381-2B9F-4DE4-98E5-835D13A27EF0";
paths = (
{
closed = 1;
nodes = (
"24 -202 LINE SMOOTH",
"84 -202 OFFCURVE",
"118 -193 OFFCURVE",
"142 -170 CURVE SMOOTH",
"168 -146 OFFCURVE",
"178 -122 OFFCURVE",
"178 -76 CURVE SMOOTH",
"178 491 LINE",
"92 491 LINE",
"92 -41 LINE SMOOTH",
"92 -95 OFFCURVE",
"91 -100 OFFCURVE",
"83 -108 CURVE SMOOTH",
"74 -119 OFFCURVE",
"55 -124 OFFCURVE",
"25 -124 CURVE SMOOTH",
"-74 -124 LINE",
"-74 -202 LINE"
);
},
{
closed = 1;
nodes = (
"181 607 LINE",
"181 693 LINE",
"89 693 LINE",
"89 607 LINE"
);
}
);
width = 252;
}
);
unicode = 006A;
},
{
glyphname = k;
lastChange = "2019-07-03 16:11:17 +0000";
layers = (
{
anchors = (
{
name = bottom;
position = "{291, 0}";
},
{
name = top;
position = "{291, 750}";
}
);
layerId = "DA405910-5117-420C-9605-F5A44EE03BDF";
paths = (
{
closed = 1;
nodes = (
"142 0 LINE",
"142 130 LINE",
"266 240 LINE",
"485 0 LINE",
"563 0 LINE",
"311 282 LINE",
"538 491 LINE",
"454 491 LINE",
"142 210 LINE",
"142 693 LINE",
"78 693 LINE",
"78 0 LINE"
);
}
);
width = 563;
},
{
anchors = (
{
name = bottom;
position = "{291, 0}";
},
{
name = top;
position = "{291, 750}";
}
);
layerId = "37B2A381-2B9F-4DE4-98E5-835D13A27EF0";
paths = (
{
closed = 1;
nodes = (
"160 0 LINE",
"160 132 LINE",
"267 227 LINE",
"475 0 LINE",
"581 0 LINE",
"328 283 LINE",
"553 491 LINE",
"437 491 LINE",
"160 241 LINE",
"160 693 LINE",
"75 693 LINE",
"75 0 LINE"
);
}
);
width = 563;
}
);
unicode = 006B;
},
{
glyphname = l;
lastChange = "2019-07-03 15:24:04 +0000";
layers = (
{
anchors = (
{
name = bottom;
position = "{110, 0}";
},
{
name = center;
position = "{110, 375}";
},
{
name = top;
position = "{110, 750}";
},
{
name = topright;
position = "{142, 750}";
}
);
layerId = "DA405910-5117-420C-9605-F5A44EE03BDF";
paths = (
{
closed = 1;
nodes = (
"142 0 LINE",
"142 693 LINE",
"78 693 LINE",
"78 0 LINE"
);
}
);
width = 220;
},
{
anchors = (
{
name = bottom;
position = "{116, 0}";
},
{
name = center;
position = "{116, 375}";
},
{
name = top;
position = "{116, 750}";
},
{
name = topright;
position = "{148, 750}";
}
);
layerId = "37B2A381-2B9F-4DE4-98E5-835D13A27EF0";
paths = (
{
closed = 1;
nodes = (
"159 0 LINE",
"159 693 LINE",
"73 693 LINE",
"73 0 LINE"
);
}
);
width = 232;
}
);
unicode = 006C;
},
{
glyphname = lslash;
lastChange = "2019-07-03 17:35:49 +0000";
layers = (
{
layerId = "DA405910-5117-420C-9605-F5A44EE03BDF";
paths = (
{
closed = 1;
nodes = (
"183 0 LINE",
"247 0 LINE",
"247 693 LINE",
"183 693 LINE"
);
},
{
closed = 1;
nodes = (
"72 198 LINE",
"358 341 LINE",
"358 413 LINE",
"72 270 LINE"
);
}
);
width = 430;
},
{
background = {
paths = (
{
closed = 1;
nodes = (
"183 0 LINE",
"247 0 LINE",
"247 693 LINE",
"183 693 LINE"
);
},
{
closed = 1;
nodes = (
"72 198 LINE",
"358 341 LINE",
"358 413 LINE",
"72 270 LINE"
);
}
);
};
layerId = "37B2A381-2B9F-4DE4-98E5-835D13A27EF0";
paths = (
{
closed = 1;
nodes = (
"69 186 LINE",
"361 332 LINE",
"361 425 LINE",
"69 279 LINE"
);
},
{
closed = 1;
nodes = (
"258 0 LINE",
"258 693 LINE",
"172 693 LINE",
"172 0 LINE"
);
}
);
width = 430;
}
);
unicode = 0142;
},
{
glyphname = m;
lastChange = "2019-07-17 17:09:50 +0000";
layers = (
{
anchors = (
{
name = bottom;
position = "{542, 0}";
},
{
name = top;
position = "{542, 491}";
}
);
layerId = "DA405910-5117-420C-9605-F5A44EE03BDF";
paths = (
{
closed = 1;
nodes = (
"142 0 LINE",
"142 269 LINE SMOOTH",
"142 371 OFFCURVE",
"214 455 OFFCURVE",
"344 455 CURVE SMOOTH",
"436 455 OFFCURVE",
"511 422 OFFCURVE",
"511 279 CURVE SMOOTH",
"511 0 LINE",
"575 0 LINE",
"575 269 LINE SMOOTH",
"575 371 OFFCURVE",
"646 455 OFFCURVE",
"776 455 CURVE SMOOTH",
"868 455 OFFCURVE",
"942 422 OFFCURVE",
"942 279 CURVE SMOOTH",
"942 0 LINE",
"1006 0 LINE",
"1006 288 LINE SMOOTH",
"1006 466 OFFCURVE",
"894 510 OFFCURVE",
"783 510 CURVE SMOOTH",
"650 510 OFFCURVE",
"595 450 OFFCURVE",
"556 395 CURVE",
"520 485 OFFCURVE",
"435 510 OFFCURVE",
"351 510 CURVE SMOOTH",
"241 510 OFFCURVE",
"181 469 OFFCURVE",
"142 414 CURVE",
"142 491 LINE",
"78 491 LINE",
"78 0 LINE"
);
}
);
width = 1070;
},
{
anchors = (
{
name = bottom;
position = "{542, 0}";
},
{
name = top;
position = "{542, 491}";
}
);
layerId = "37B2A381-2B9F-4DE4-98E5-835D13A27EF0";
paths = (
{
closed = 1;
nodes = (
"171 0 LINE",
"171 268 LINE SMOOTH",
"171 368 OFFCURVE",
"244 435 OFFCURVE",
"353 435 CURVE SMOOTH",
"456 435 OFFCURVE",
"501 388 OFFCURVE",
"501 278 CURVE SMOOTH",
"501 0 LINE",
"585 0 LINE",
"585 268 LINE SMOOTH",
"585 368 OFFCURVE",
"656 435 OFFCURVE",
"765 435 CURVE SMOOTH",
"868 435 OFFCURVE",
"913 388 OFFCURVE",
"913 278 CURVE SMOOTH",
"913 0 LINE",
"997 0 LINE",
"997 287 LINE SMOOTH",
"997 432 OFFCURVE",
"919 510 OFFCURVE",
"772 510 CURVE SMOOTH",
"653 510 OFFCURVE",
"595 460 OFFCURVE",
"558 411 CURVE",
"523 476 OFFCURVE",
"456 510 OFFCURVE",
"360 510 CURVE SMOOTH",
"278 510 OFFCURVE",
"217 487 OFFCURVE",
"171 439 CURVE",
"171 491 LINE",
"87 491 LINE",
"87 0 LINE"
);
}
);
width = 1070;
}
);
unicode = 006D;
},
{
glyphname = n;
lastChange = "2019-07-17 17:08:52 +0000";
layers = (
{
anchors = (
{
name = bottom;
position = "{333, 0}";
},
{
name = top;
position = "{333, 491}";
}
);
layerId = "DA405910-5117-420C-9605-F5A44EE03BDF";
paths = (
{
closed = 1;
nodes = (
"142 0 LINE",
"142 269 LINE SMOOTH",
"142 371 OFFCURVE",
"216 455 OFFCURVE",
"350 455 CURVE SMOOTH",
"445 455 OFFCURVE",
"523 422 OFFCURVE",
"523 279 CURVE SMOOTH",
"523 0 LINE",
"588 0 LINE",
"588 288 LINE SMOOTH",
"588 466 OFFCURVE",
"472 510 OFFCURVE",
"357 510 CURVE SMOOTH",
"244 510 OFFCURVE",
"182 469 OFFCURVE",
"142 414 CURVE",
"142 491 LINE",
"78 491 LINE",
"78 0 LINE"
);
}
);
width = 652;
},
{
anchors = (
{
name = bottom;
position = "{333, 0}";
},
{
name = top;
position = "{333, 491}";
}
);
layerId = "37B2A381-2B9F-4DE4-98E5-835D13A27EF0";
paths = (
{
closed = 1;
nodes = (
"162 0 LINE",
"162 268 LINE SMOOTH",
"162 368 OFFCURVE",
"237 435 OFFCURVE",
"349 435 CURVE SMOOTH",
"456 435 OFFCURVE",
"503 387 OFFCURVE",
"503 278 CURVE SMOOTH",
"503 0 LINE",
"588 0 LINE",
"588 287 LINE SMOOTH",
"588 433 OFFCURVE",
"507 510 OFFCURVE",
"356 510 CURVE SMOOTH",
"272 510 OFFCURVE",
"208 487 OFFCURVE",
"162 438 CURVE",
"162 491 LINE",
"78 491 LINE",
"78 0 LINE"
);
}
);
width = 652;
}
);
unicode = 006E;
},
{
glyphname = eng;
lastChange = "2019-07-03 18:46:22 +0000";
layers = (
{
layerId = "DA405910-5117-420C-9605-F5A44EE03BDF";
paths = (
{
closed = 1;
nodes = (
"128 0 LINE",
"128 269 LINE SMOOTH",
"128 371 OFFCURVE",
"202 455 OFFCURVE",
"336 455 CURVE SMOOTH",
"431 455 OFFCURVE",
"509 422 OFFCURVE",
"509 279 CURVE SMOOTH",
"509 -31 LINE SMOOTH",
"509 -84 OFFCURVE",
"509 -95 OFFCURVE",
"497 -108 CURVE SMOOTH",
"486 -120 OFFCURVE",
"465 -128 OFFCURVE",
"428 -128 CURVE SMOOTH",
"338 -128 LINE",
"338 -184 LINE",
"427 -184 LINE SMOOTH",
"482 -184 OFFCURVE",
"517 -177 OFFCURVE",
"541 -154 CURVE SMOOTH",
"566 -132 OFFCURVE",
"574 -110 OFFCURVE",
"574 -67 CURVE SMOOTH",
"574 288 LINE SMOOTH",
"574 466 OFFCURVE",
"458 510 OFFCURVE",
"343 510 CURVE SMOOTH",
"230 510 OFFCURVE",
"168 469 OFFCURVE",
"128 414 CURVE",
"128 491 LINE",
"64 491 LINE",
"64 0 LINE"
);
}
);
width = 610;
},
{
layerId = "37B2A381-2B9F-4DE4-98E5-835D13A27EF0";
paths = (
{
closed = 1;
nodes = (
"145 0 LINE",
"145 265 LINE SMOOTH",
"145 366 OFFCURVE",
"221 434 OFFCURVE",
"334 434 CURVE SMOOTH",
"443 434 OFFCURVE",
"490 386 OFFCURVE",
"490 275 CURVE SMOOTH",
"490 -25 LINE SMOOTH",
"490 -78 OFFCURVE",
"489 -83 OFFCURVE",
"482 -91 CURVE SMOOTH",
"473 -102 OFFCURVE",
"453 -107 OFFCURVE",
"423 -107 CURVE SMOOTH",
"325 -107 LINE",
"325 -184 LINE",
"422 -184 LINE SMOOTH",
"482 -184 OFFCURVE",
"517 -175 OFFCURVE",
"540 -152 CURVE",
"567 -129 OFFCURVE",
"576 -104 OFFCURVE",
"576 -59 CURVE SMOOTH",
"576 284 LINE SMOOTH",
"576 432 OFFCURVE",
"495 510 OFFCURVE",
"341 510 CURVE SMOOTH",
"256 510 OFFCURVE",
"192 486 OFFCURVE",
"145 438 CURVE",
"145 491 LINE",
"61 491 LINE",
"61 0 LINE"
);
}
);
width = 610;
}
);
unicode = 014B;
},
{
glyphname = o;
lastChange = "2019-07-17 17:10:55 +0000";
layers = (
{
anchors = (
{
name = bottom;
position = "{320, 0}";
},
{
name = center;
position = "{320, 246}";
},
{
name = horn;
position = "{552, 334}";
},
{
name = ogonek;
position = "{578, 10}";
},
{
name = top;
position = "{320, 491}";
},
{
name = topright;
position = "{623, 491}";
}
);
layerId = "DA405910-5117-420C-9605-F5A44EE03BDF";
paths = (
{
closed = 1;
nodes = (
"490 -20 OFFCURVE",
"600 83 OFFCURVE",
"600 246 CURVE SMOOTH",
"600 407 OFFCURVE",
"490 510 OFFCURVE",
"319 510 CURVE SMOOTH",
"149 510 OFFCURVE",
"40 407 OFFCURVE",
"40 246 CURVE SMOOTH",
"40 83 OFFCURVE",
"149 -20 OFFCURVE",
"319 -20 CURVE SMOOTH"
);
},
{
closed = 1;
nodes = (
"190 35 OFFCURVE",
"109 117 OFFCURVE",
"109 246 CURVE SMOOTH",
"109 373 OFFCURVE",
"190 455 OFFCURVE",
"319 455 CURVE SMOOTH",
"450 455 OFFCURVE",
"532 373 OFFCURVE",
"530 246 CURVE SMOOTH",
"528 117 OFFCURVE",
"446 35 OFFCURVE",
"319 35 CURVE SMOOTH"
);
}
);
width = 640;
},
{
anchors = (
{
name = bottom;
position = "{320, 0}";
},
{
name = center;
position = "{320, 246}";
},
{
name = horn;
position = "{539, 334}";
},
{
name = ogonek;
position = "{578, 10}";
},
{
name = top;
position = "{320, 491}";
},
{
name = topright;
position = "{623, 491}";
}
);
layerId = "37B2A381-2B9F-4DE4-98E5-835D13A27EF0";
paths = (
{
closed = 1;
nodes = (
"489 -20 OFFCURVE",
"599 84 OFFCURVE",
"599 246 CURVE SMOOTH",
"599 406 OFFCURVE",
"489 510 OFFCURVE",
"319 510 CURVE SMOOTH",
"150 510 OFFCURVE",
"41 406 OFFCURVE",
"41 246 CURVE SMOOTH",
"41 84 OFFCURVE",
"150 -20 OFFCURVE",
"319 -20 CURVE SMOOTH"
);
},
{
closed = 1;
nodes = (
"202 56 OFFCURVE",
"130 129 OFFCURVE",
"130 246 CURVE SMOOTH",
"130 362 OFFCURVE",
"203 434 OFFCURVE",
"319 434 CURVE SMOOTH",
"438 434 OFFCURVE",
"511 362 OFFCURVE",
"509 246 CURVE SMOOTH",
"508 129 OFFCURVE",
"434 56 OFFCURVE",
"319 56 CURVE SMOOTH"
);
}
);
width = 640;
}
);
unicode = 006F;
},
{
glyphname = oslash;
lastChange = "2019-07-03 17:59:41 +0000";
layers = (
{
layerId = "DA405910-5117-420C-9605-F5A44EE03BDF";
paths = (
{
closed = 1;
nodes = (
"482 -20 OFFCURVE",
"592 83 OFFCURVE",
"592 246 CURVE SMOOTH",
"592 407 OFFCURVE",
"482 510 OFFCURVE",
"311 510 CURVE SMOOTH",
"141 510 OFFCURVE",
"32 407 OFFCURVE",
"32 246 CURVE SMOOTH",
"32 83 OFFCURVE",
"141 -20 OFFCURVE",
"311 -20 CURVE SMOOTH"
);
},
{
closed = 1;
nodes = (
"182 35 OFFCURVE",
"101 117 OFFCURVE",
"101 246 CURVE SMOOTH",
"101 373 OFFCURVE",
"182 455 OFFCURVE",
"311 455 CURVE SMOOTH",
"442 455 OFFCURVE",
"524 373 OFFCURVE",
"522 246 CURVE SMOOTH",
"520 117 OFFCURVE",
"438 35 OFFCURVE",
"311 35 CURVE SMOOTH"
);
},
{
closed = 1;
nodes = (
"78 -39 LINE",
"150 -39 LINE",
"547 528 LINE",
"475 528 LINE"
);
}
);
width = 610;
},
{
layerId = "37B2A381-2B9F-4DE4-98E5-835D13A27EF0";
paths = (
{
closed = 1;
nodes = (
"68 -39 LINE",
"158 -39 LINE",
"555 528 LINE",
"465 528 LINE"
);
},
{
closed = 1;
nodes = (
"481 -20 OFFCURVE",
"591 84 OFFCURVE",
"591 246 CURVE SMOOTH",
"591 406 OFFCURVE",
"481 510 OFFCURVE",
"311 510 CURVE SMOOTH",
"142 510 OFFCURVE",
"33 406 OFFCURVE",
"33 246 CURVE SMOOTH",
"33 84 OFFCURVE",
"142 -20 OFFCURVE",
"311 -20 CURVE SMOOTH"
);
},
{
closed = 1;
nodes = (
"194 56 OFFCURVE",
"122 129 OFFCURVE",
"122 246 CURVE SMOOTH",
"122 362 OFFCURVE",
"195 434 OFFCURVE",
"311 434 CURVE SMOOTH",
"430 434 OFFCURVE",
"503 362 OFFCURVE",
"501 246 CURVE SMOOTH",
"499 129 OFFCURVE",
"426 56 OFFCURVE",
"311 56 CURVE SMOOTH"
);
}
);
width = 610;
}
);
unicode = 00F8;
},
{
glyphname = oe;
lastChange = "2019-07-03 18:42:27 +0000";
layers = (
{
layerId = "DA405910-5117-420C-9605-F5A44EE03BDF";
paths = (
{
closed = 1;
nodes = (
"31 83 OFFCURVE",
"140 -20 OFFCURVE",
"310 -20 CURVE SMOOTH",
"424 -20 OFFCURVE",
"511 25 OFFCURVE",
"556 103 CURVE",
"601 25 OFFCURVE",
"687 -20 OFFCURVE",
"800 -20 CURVE SMOOTH",
"931 -20 OFFCURVE",
"1027 41 OFFCURVE",
"1064 142 CURVE",
"998 166 LINE",
"970 84 OFFCURVE",
"899 35 OFFCURVE",
"800 35 CURVE SMOOTH",
"678 35 OFFCURVE",
"598 107 OFFCURVE",
"590 223 CURVE",
"591 229 LINE",
"1078 229 LINE",
"1078 241 LINE SMOOTH",
"1078 403 OFFCURVE",
"971 510 OFFCURVE",
"800 510 CURVE SMOOTH",
"687 510 OFFCURVE",
"601 464 OFFCURVE",
"556 387 CURVE",
"511 464 OFFCURVE",
"424 510 OFFCURVE",
"310 510 CURVE SMOOTH",
"140 510 OFFCURVE",
"31 407 OFFCURVE",
"31 246 CURVE SMOOTH"
);
},
{
closed = 1;
nodes = (
"100 373 OFFCURVE",
"181 455 OFFCURVE",
"310 455 CURVE SMOOTH",
"439 455 OFFCURVE",
"521 375 OFFCURVE",
"521 251 CURVE SMOOTH",
"521 246 LINE SMOOTH",
"519 117 OFFCURVE",
"437 35 OFFCURVE",
"310 35 CURVE SMOOTH",
"181 35 OFFCURVE",
"100 117 OFFCURVE",
"100 246 CURVE SMOOTH"
);
},
{
closed = 1;
nodes = (
"610 393 OFFCURVE",
"687 455 OFFCURVE",
"800 455 CURVE SMOOTH",
"915 455 OFFCURVE",
"992 393 OFFCURVE",
"1008 286 CURVE",
"593 286 LINE"
);
}
);
width = 1109;
},
{
background = {
paths = (
{
closed = 1;
nodes = (
"31 83 OFFCURVE",
"140 -20 OFFCURVE",
"310 -20 CURVE SMOOTH",
"424 -20 OFFCURVE",
"511 25 OFFCURVE",
"556 103 CURVE",
"601 25 OFFCURVE",
"687 -20 OFFCURVE",
"800 -20 CURVE SMOOTH",
"931 -20 OFFCURVE",
"1027 41 OFFCURVE",
"1064 142 CURVE",
"998 166 LINE",
"970 84 OFFCURVE",
"899 35 OFFCURVE",
"800 35 CURVE SMOOTH",
"678 35 OFFCURVE",
"598 107 OFFCURVE",
"590 223 CURVE",
"591 229 LINE",
"1078 229 LINE",
"1078 241 LINE SMOOTH",
"1078 403 OFFCURVE",
"971 510 OFFCURVE",
"800 510 CURVE SMOOTH",
"687 510 OFFCURVE",
"601 464 OFFCURVE",
"556 387 CURVE",
"511 464 OFFCURVE",
"424 510 OFFCURVE",
"310 510 CURVE SMOOTH",
"140 510 OFFCURVE",
"31 407 OFFCURVE",
"31 246 CURVE SMOOTH"
);
},
{
closed = 1;
nodes = (
"100 373 OFFCURVE",
"181 455 OFFCURVE",
"310 455 CURVE SMOOTH",
"439 455 OFFCURVE",
"521 375 OFFCURVE",
"521 251 CURVE SMOOTH",
"521 246 LINE SMOOTH",
"519 117 OFFCURVE",
"437 35 OFFCURVE",
"310 35 CURVE SMOOTH",
"181 35 OFFCURVE",
"100 117 OFFCURVE",
"100 246 CURVE SMOOTH"
);
},
{
closed = 1;
nodes = (
"610 393 OFFCURVE",
"687 455 OFFCURVE",
"800 455 CURVE SMOOTH",
"915 455 OFFCURVE",
"992 393 OFFCURVE",
"1008 286 CURVE",
"593 286 LINE"
);
}
);
};
layerId = "37B2A381-2B9F-4DE4-98E5-835D13A27EF0";
paths = (
{
closed = 1;
nodes = (
"485 -21 OFFCURVE",
"595 83 OFFCURVE",
"595 245 CURVE SMOOTH",
"595 405 OFFCURVE",
"485 509 OFFCURVE",
"315 509 CURVE SMOOTH",
"146 509 OFFCURVE",
"37 405 OFFCURVE",
"37 245 CURVE SMOOTH",
"37 83 OFFCURVE",
"146 -21 OFFCURVE",
"315 -21 CURVE SMOOTH"
);
},
{
closed = 1;
nodes = (
"198 55 OFFCURVE",
"126 128 OFFCURVE",
"126 245 CURVE SMOOTH",
"126 361 OFFCURVE",
"199 433 OFFCURVE",
"315 433 CURVE SMOOTH",
"434 433 OFFCURVE",
"507 361 OFFCURVE",
"505 245 CURVE SMOOTH",
"503 128 OFFCURVE",
"430 55 OFFCURVE",
"315 55 CURVE SMOOTH"
);
},
{
closed = 1;
nodes = (
"522 84 OFFCURVE",
"631 -20 OFFCURVE",
"800 -20 CURVE SMOOTH",
"929 -20 OFFCURVE",
"1027 40 OFFCURVE",
"1064 143 CURVE",
"979 174 LINE",
"954 98 OFFCURVE",
"889 56 OFFCURVE",
"800 56 CURVE SMOOTH",
"692 56 OFFCURVE",
"621 117 OFFCURVE",
"611 218 CURVE",
"1077 218 LINE",
"1077 241 LINE SMOOTH",
"1077 404 OFFCURVE",
"968 510 OFFCURVE",
"800 510 CURVE SMOOTH",
"631 510 OFFCURVE",
"522 406 OFFCURVE",
"522 246 CURVE SMOOTH"
);
},
{
closed = 1;
nodes = (
"635 384 OFFCURVE",
"702 434 OFFCURVE",
"800 434 CURVE SMOOTH",
"900 434 OFFCURVE",
"967 384 OFFCURVE",
"985 296 CURVE",
"616 296 LINE"
);
}
);
width = 1109;
}
);
unicode = 0153;
},
{
glyphname = p;
lastChange = "2019-07-17 17:09:05 +0000";
layers = (
{
anchors = (
{
name = bottom;
position = "{349, 0}";
},
{
name = top;
position = "{349, 491}";
}
);
layerId = "DA405910-5117-420C-9605-F5A44EE03BDF";
paths = (
{
closed = 1;
nodes = (
"142 -202 LINE",
"142 73 LINE",
"181 19 OFFCURVE",
"265 -20 OFFCURVE",
"357 -20 CURVE SMOOTH",
"528 -20 OFFCURVE",
"638 83 OFFCURVE",
"638 246 CURVE SMOOTH",
"638 407 OFFCURVE",
"528 510 OFFCURVE",
"357 510 CURVE SMOOTH",
"265 510 OFFCURVE",
"194 478 OFFCURVE",
"142 418 CURVE",
"142 491 LINE",
"78 491 LINE",
"78 -202 LINE"
);
},
{
closed = 1;
nodes = (
"223 35 OFFCURVE",
"142 117 OFFCURVE",
"142 246 CURVE SMOOTH",
"142 373 OFFCURVE",
"223 455 OFFCURVE",
"352 455 CURVE SMOOTH",
"483 455 OFFCURVE",
"568 373 OFFCURVE",
"566 246 CURVE SMOOTH",
"564 117 OFFCURVE",
"479 35 OFFCURVE",
"352 35 CURVE SMOOTH"
);
}
);
width = 678;
},
{
anchors = (
{
name = bottom;
position = "{349, 0}";
},
{
name = top;
position = "{349, 491}";
}
);
layerId = "37B2A381-2B9F-4DE4-98E5-835D13A27EF0";
paths = (
{
closed = 1;
nodes = (
"161 -202 LINE",
"161 45 LINE",
"206 2 OFFCURVE",
"281 -26 OFFCURVE",
"357 -26 CURVE SMOOTH",
"529 -26 OFFCURVE",
"640 79 OFFCURVE",
"640 243 CURVE SMOOTH",
"640 405 OFFCURVE",
"529 510 OFFCURVE",
"357 510 CURVE SMOOTH",
"278 510 OFFCURVE",
"212 486 OFFCURVE",
"161 438 CURVE",
"161 491 LINE",
"76 491 LINE",
"76 -202 LINE"
);
},
{
closed = 1;
nodes = (
"234 50 OFFCURVE",
"161 124 OFFCURVE",
"161 243 CURVE SMOOTH",
"161 360 OFFCURVE",
"234 434 OFFCURVE",
"352 434 CURVE SMOOTH",
"473 434 OFFCURVE",
"549 359 OFFCURVE",
"548 243 CURVE SMOOTH",
"546 126 OFFCURVE",
"470 50 OFFCURVE",
"352 50 CURVE SMOOTH"
);
}
);
width = 678;
}
);
unicode = 0070;
},
{
glyphname = thorn;
lastChange = "2019-07-03 17:25:17 +0000";
layers = (
{
anchors = (
{
name = bottom;
position = "{335, 0}";
},
{
name = top;
position = "{335, 491}";
}
);
layerId = "DA405910-5117-420C-9605-F5A44EE03BDF";
paths = (
{
closed = 1;
nodes = (
"128 -202 LINE",
"128 73 LINE",
"167 19 OFFCURVE",
"251 -20 OFFCURVE",
"343 -20 CURVE SMOOTH",
"514 -20 OFFCURVE",
"624 83 OFFCURVE",
"624 246 CURVE SMOOTH",
"624 407 OFFCURVE",
"514 510 OFFCURVE",
"343 510 CURVE SMOOTH",
"251 510 OFFCURVE",
"180 478 OFFCURVE",
"128 418 CURVE",
"129 701 LINE",
"65 701 LINE",
"64 -202 LINE"
);
},
{
closed = 1;
nodes = (
"128 373 OFFCURVE",
"209 455 OFFCURVE",
"338 455 CURVE SMOOTH",
"469 455 OFFCURVE",
"554 373 OFFCURVE",
"552 246 CURVE SMOOTH",
"550 117 OFFCURVE",
"465 35 OFFCURVE",
"338 35 CURVE SMOOTH",
"209 35 OFFCURVE",
"128 117 OFFCURVE",
"128 246 CURVE SMOOTH"
);
}
);
width = 670;
},
{
anchors = (
{
name = bottom;
position = "{335, 0}";
},
{
name = top;
position = "{335, 491}";
}
);
layerId = "37B2A381-2B9F-4DE4-98E5-835D13A27EF0";
paths = (
{
closed = 1;
nodes = (
"146 -202 LINE",
"146 45 LINE",
"191 2 OFFCURVE",
"266 -26 OFFCURVE",
"342 -26 CURVE SMOOTH",
"514 -26 OFFCURVE",
"625 79 OFFCURVE",
"625 243 CURVE SMOOTH",
"625 405 OFFCURVE",
"514 510 OFFCURVE",
"342 510 CURVE SMOOTH",
"263 510 OFFCURVE",
"197 486 OFFCURVE",
"146 438 CURVE",
"146 693 LINE",
"61 693 LINE",
"61 -202 LINE"
);
},
{
closed = 1;
nodes = (
"219 50 OFFCURVE",
"146 124 OFFCURVE",
"146 243 CURVE SMOOTH",
"146 360 OFFCURVE",
"219 434 OFFCURVE",
"337 434 CURVE SMOOTH",
"458 434 OFFCURVE",
"534 359 OFFCURVE",
"533 243 CURVE SMOOTH",
"532 126 OFFCURVE",
"455 50 OFFCURVE",
"337 50 CURVE SMOOTH"
);
}
);
width = 670;
}
);
unicode = 00FE;
},
{
glyphname = q;
lastChange = "2019-07-03 15:26:12 +0000";
layers = (
{
anchors = (
{
name = bottom;
position = "{329, 0}";
},
{
name = top;
position = "{329, 491}";
}
);
layerId = "DA405910-5117-420C-9605-F5A44EE03BDF";
paths = (
{
closed = 1;
nodes = (
"600 -202 LINE",
"600 491 LINE",
"536 491 LINE",
"536 418 LINE",
"484 478 OFFCURVE",
"413 510 OFFCURVE",
"321 510 CURVE SMOOTH",
"150 510 OFFCURVE",
"40 407 OFFCURVE",
"40 246 CURVE SMOOTH",
"40 83 OFFCURVE",
"150 -20 OFFCURVE",
"321 -20 CURVE SMOOTH",
"413 -20 OFFCURVE",
"497 19 OFFCURVE",
"536 73 CURVE",
"536 -202 LINE"
);
},
{
closed = 1;
nodes = (
"199 35 OFFCURVE",
"114 117 OFFCURVE",
"112 246 CURVE SMOOTH",
"110 373 OFFCURVE",
"195 455 OFFCURVE",
"326 455 CURVE SMOOTH",
"455 455 OFFCURVE",
"536 373 OFFCURVE",
"536 246 CURVE SMOOTH",
"536 117 OFFCURVE",
"455 35 OFFCURVE",
"326 35 CURVE SMOOTH"
);
}
);
width = 678;
},
{
anchors = (
{
name = bottom;
position = "{329, 0}";
},
{
name = top;
position = "{329, 491}";
}
);
layerId = "37B2A381-2B9F-4DE4-98E5-835D13A27EF0";
paths = (
{
closed = 1;
nodes = (
"602 -202 LINE",
"602 491 LINE",
"517 491 LINE",
"517 438 LINE",
"466 486 OFFCURVE",
"400 510 OFFCURVE",
"321 510 CURVE SMOOTH",
"149 510 OFFCURVE",
"38 405 OFFCURVE",
"38 243 CURVE SMOOTH",
"38 79 OFFCURVE",
"149 -26 OFFCURVE",
"321 -26 CURVE SMOOTH",
"397 -26 OFFCURVE",
"472 2 OFFCURVE",
"517 45 CURVE",
"517 -202 LINE"
);
},
{
closed = 1;
nodes = (
"208 50 OFFCURVE",
"132 126 OFFCURVE",
"130 243 CURVE SMOOTH",
"129 359 OFFCURVE",
"205 434 OFFCURVE",
"326 434 CURVE SMOOTH",
"444 434 OFFCURVE",
"517 360 OFFCURVE",
"517 243 CURVE SMOOTH",
"517 124 OFFCURVE",
"444 50 OFFCURVE",
"326 50 CURVE SMOOTH"
);
}
);
width = 678;
}
);
unicode = 0071;
},
{
glyphname = r;
lastChange = "2019-07-17 17:11:04 +0000";
layers = (
{
anchors = (
{
name = bottom;
position = "{113, 0}";
},
{
name = top;
position = "{179, 491}";
}
);
background = {
paths = (
{
closed = 1;
nodes = (
"144 0 LINE",
"144 284 LINE",
"144 394 OFFCURVE",
"235 438 OFFCURVE",
"339 438 CURVE",
"347 503 LINE",
"235 503 OFFCURVE",
"180 465 OFFCURVE",
"144 413 CURVE",
"144 491 LINE",
"80 491 LINE",
"80 0 LINE"
);
}
);
};
layerId = "DA405910-5117-420C-9605-F5A44EE03BDF";
paths = (
{
closed = 1;
nodes = (
"144 0 LINE",
"144 284 LINE",
"144 394 OFFCURVE",
"235 438 OFFCURVE",
"339 438 CURVE",
"347 503 LINE",
"235 503 OFFCURVE",
"180 465 OFFCURVE",
"144 413 CURVE",
"144 491 LINE",
"80 491 LINE",
"80 0 LINE"
);
}
);
width = 367;
},
{
anchors = (
{
name = bottom;
position = "{113, 0}";
},
{
name = top;
position = "{179, 491}";
}
);
layerId = "37B2A381-2B9F-4DE4-98E5-835D13A27EF0";
paths = (
{
closed = 1;
nodes = (
"159 0 LINE",
"159 282 LINE SMOOTH",
"159 370 OFFCURVE",
"227 420 OFFCURVE",
"343 417 CURVE",
"353 502 LINE",
"265 504 OFFCURVE",
"203 484 OFFCURVE",
"159 437 CURVE",
"159 491 LINE",
"75 491 LINE",
"75 0 LINE"
);
}
);
width = 367;
}
);
unicode = 0072;
},
{
glyphname = s;
lastChange = "2019-07-17 17:09:10 +0000";
layers = (
{
anchors = (
{
name = bottom;
position = "{273, 0}";
},
{
name = top;
position = "{273, 491}";
}
);
hints = (
{
horizontal = 1;
origin = "{0, 18}";
target = down;
type = TopGhost;
}
);
layerId = "DA405910-5117-420C-9605-F5A44EE03BDF";
paths = (
{
closed = 1;
nodes = (
"447 -20 OFFCURVE",
"503 58 OFFCURVE",
"503 125 CURVE SMOOTH",
"503 239 OFFCURVE",
"360 258 OFFCURVE",
"281 268 CURVE SMOOTH",
"202 278 OFFCURVE",
"105 287 OFFCURVE",
"105 358 CURVE SMOOTH",
"105 400 OFFCURVE",
"150 456 OFFCURVE",
"277 453 CURVE SMOOTH",
"399 450 OFFCURVE",
"441 382 OFFCURVE",
"454 358 CURVE",
"509 378 LINE",
"493 415 OFFCURVE",
"430 510 OFFCURVE",
"275 510 CURVE SMOOTH",
"102 510 OFFCURVE",
"42 433 OFFCURVE",
"42 358 CURVE SMOOTH",
"42 233 OFFCURVE",
"181 220 OFFCURVE",
"281 208 CURVE SMOOTH",
"370 197 OFFCURVE",
"440 179 OFFCURVE",
"440 125 CURVE SMOOTH",
"440 81 OFFCURVE",
"394 35 OFFCURVE",
"281 37 CURVE SMOOTH",
"171 39 OFFCURVE",
"116 98 OFFCURVE",
"96 139 CURVE",
"36 118 LINE",
"58 66 OFFCURVE",
"122 -20 OFFCURVE",
"282 -20 CURVE SMOOTH"
);
}
);
width = 545;
},
{
anchors = (
{
name = bottom;
position = "{273, 0}";
},
{
name = top;
position = "{273, 491}";
}
);
hints = (
{
horizontal = 1;
origin = "{0, 18}";
target = down;
type = TopGhost;
}
);
layerId = "37B2A381-2B9F-4DE4-98E5-835D13A27EF0";
paths = (
{
closed = 1;
nodes = (
"417 -20 OFFCURVE",
"504 39 OFFCURVE",
"504 130 CURVE SMOOTH",
"504 249 OFFCURVE",
"358 269 OFFCURVE",
"282 278 CURVE SMOOTH",
"206 288 OFFCURVE",
"124 296 OFFCURVE",
"124 353 CURVE SMOOTH",
"124 401 OFFCURVE",
"186 435 OFFCURVE",
"277 433 CURVE SMOOTH",
"355 431 OFFCURVE",
"413 398 OFFCURVE",
"440 339 CURVE",
"513 365 LINE",
"510 383 OFFCURVE",
"452 510 OFFCURVE",
"275 510 CURVE SMOOTH",
"130 510 OFFCURVE",
"40 451 OFFCURVE",
"40 353 CURVE SMOOTH",
"40 223 OFFCURVE",
"184 210 OFFCURVE",
"279 198 CURVE SMOOTH",
"381 186 OFFCURVE",
"421 166 OFFCURVE",
"421 130 CURVE SMOOTH",
"421 86 OFFCURVE",
"366 56 OFFCURVE",
"281 57 CURVE SMOOTH",
"200 59 OFFCURVE",
"134 97 OFFCURVE",
"110 158 CURVE",
"31 130 LINE",
"66 35 OFFCURVE",
"158 -20 OFFCURVE",
"282 -20 CURVE SMOOTH"
);
}
);
width = 545;
}
);
unicode = 0073;
},
{
glyphname = germandbls;
lastChange = "2019-07-03 17:51:20 +0000";
layers = (
{
layerId = "DA405910-5117-420C-9605-F5A44EE03BDF";
paths = (
{
closed = 1;
nodes = (
"466 441 OFFCURVE",
"408 426 OFFCURVE",
"408 374 CURVE SMOOTH",
"408 322 OFFCURVE",
"459 310 OFFCURVE",
"517 293 CURVE SMOOTH",
"594 270 OFFCURVE",
"683 236 OFFCURVE",
"683 131 CURVE SMOOTH",
"683 46 OFFCURVE",
"604 -20 OFFCURVE",
"484 -20 CURVE SMOOTH",
"349 -20 OFFCURVE",
"295 42 OFFCURVE",
"272 93 CURVE",
"326 115 LINE",
"345 75 OFFCURVE",
"394 35 OFFCURVE",
"486 35 CURVE SMOOTH",
"572 35 OFFCURVE",
"624 80 OFFCURVE",
"624 131 CURVE SMOOTH",
"624 182 OFFCURVE",
"591 217 OFFCURVE",
"517 238 CURVE SMOOTH",
"436 261 OFFCURVE",
"348 283 OFFCURVE",
"348 375 CURVE SMOOTH",
"348 459 OFFCURVE",
"423 491 OFFCURVE",
"562 491 CURVE",
"562 541 LINE",
"562 617 OFFCURVE",
"488 650 OFFCURVE",
"397 650 CURVE SMOOTH",
"302 650 OFFCURVE",
"223 617 OFFCURVE",
"223 541 CURVE SMOOTH",
"223 0 LINE",
"159 0 LINE",
"159 433 LINE",
"48 433 LINE",
"48 491 LINE",
"159 491 LINE",
"159 541 LINE",
"159 661 OFFCURVE",
"265 708 OFFCURVE",
"397 708 CURVE SMOOTH",
"503 708 OFFCURVE",
"623 666 OFFCURVE",
"623 541 CURVE",
"623 441 LINE",
"567 441 LINE"
);
}
);
width = 727;
},
{
layerId = "37B2A381-2B9F-4DE4-98E5-835D13A27EF0";
paths = (
{
closed = 1;
nodes = (
"598 -20 OFFCURVE",
"683 46 OFFCURVE",
"683 138 CURVE SMOOTH",
"683 243 OFFCURVE",
"589 279 OFFCURVE",
"514 302 CURVE SMOOTH",
"458 319 OFFCURVE",
"417 325 OFFCURVE",
"417 366 CURVE SMOOTH",
"417 403 OFFCURVE",
"457 421 OFFCURVE",
"560 421 CURVE SMOOTH",
"625 421 LINE",
"625 535 LINE SMOOTH",
"625 642 OFFCURVE",
"535 708 OFFCURVE",
"395 708 CURVE SMOOTH",
"242 708 OFFCURVE",
"153 645 OFFCURVE",
"153 535 CURVE SMOOTH",
"153 491 LINE",
"46 491 LINE",
"46 412 LINE",
"153 412 LINE",
"153 0 LINE",
"238 0 LINE",
"238 535 LINE SMOOTH",
"238 593 OFFCURVE",
"296 629 OFFCURVE",
"395 629 CURVE SMOOTH",
"489 629 OFFCURVE",
"543 594 OFFCURVE",
"543 535 CURVE SMOOTH",
"543 491 LINE",
"399 491 OFFCURVE",
"336 450 OFFCURVE",
"336 367 CURVE SMOOTH",
"336 269 OFFCURVE",
"430 248 OFFCURVE",
"508 226 CURVE SMOOTH",
"574 207 OFFCURVE",
"603 182 OFFCURVE",
"603 138 CURVE SMOOTH",
"603 91 OFFCURVE",
"552 56 OFFCURVE",
"481 56 CURVE SMOOTH",
"406 56 OFFCURVE",
"357 83 OFFCURVE",
"333 137 CURVE",
"259 107 LINE",
"291 24 OFFCURVE",
"367 -20 OFFCURVE",
"479 -20 CURVE SMOOTH"
);
}
);
width = 727;
}
);
unicode = 00DF;
},
{
glyphname = t;
lastChange = "2019-07-17 17:14:30 +0000";
layers = (
{
anchors = (
{
name = bottom;
position = "{231, 0}";
},
{
name = center;
position = "{217, 246}";
},
{
name = top;
position = "{175, 672}";
},
{
name = topright;
position = "{414, 491}";
}
);
layerId = "DA405910-5117-420C-9605-F5A44EE03BDF";
paths = (
{
closed = 1;
nodes = (
"404 -9 LINE",
"404 47 LINE",
"288 47 LINE SMOOTH",
"251 47 OFFCURVE",
"231 56 OFFCURVE",
"220 68 CURVE SMOOTH",
"208 81 OFFCURVE",
"207 91 OFFCURVE",
"207 144 CURVE SMOOTH",
"207 433 LINE",
"404 433 LINE",
"404 491 LINE",
"207 491 LINE",
"207 693 LINE",
"143 693 LINE",
"143 491 LINE",
"10 491 LINE",
"10 433 LINE",
"143 433 LINE",
"143 108 LINE SMOOTH",
"143 65 OFFCURVE",
"154 43 OFFCURVE",
"177 22 CURVE SMOOTH",
"200 1 OFFCURVE",
"234 -9 OFFCURVE",
"289 -9 CURVE SMOOTH"
);
}
);
width = 439;
},
{
anchors = (
{
name = bottom;
position = "{238, 0}";
},
{
name = center;
position = "{217, 246}";
},
{
name = top;
position = "{175, 672}";
},
{
name = topright;
position = "{409, 491}";
}
);
layerId = "37B2A381-2B9F-4DE4-98E5-835D13A27EF0";
paths = (
{
closed = 1;
nodes = (
"409 -9 LINE",
"409 68 LINE",
"285 68 LINE SMOOTH",
"257 68 OFFCURVE",
"238 74 OFFCURVE",
"228 85 CURVE SMOOTH",
"220 94 OFFCURVE",
"219 100 OFFCURVE",
"219 151 CURVE SMOOTH",
"219 411 LINE",
"409 411 LINE",
"409 491 LINE",
"219 491 LINE",
"219 693 LINE",
"134 693 LINE",
"134 491 LINE",
"5 491 LINE",
"5 411 LINE",
"134 411 LINE",
"134 116 LINE SMOOTH",
"134 74 OFFCURVE",
"144 48 OFFCURVE",
"170 24 CURVE SMOOTH",
"195 1 OFFCURVE",
"231 -9 OFFCURVE",
"286 -9 CURVE SMOOTH"
);
}
);
width = 439;
}
);
unicode = 0074;
},
{
glyphname = tbar;
lastChange = "2019-07-03 18:53:40 +0000";
layers = (
{
layerId = "DA405910-5117-420C-9605-F5A44EE03BDF";
paths = (
{
closed = 1;
nodes = (
"409 -9 LINE",
"409 47 LINE",
"293 47 LINE SMOOTH",
"256 47 OFFCURVE",
"236 56 OFFCURVE",
"225 68 CURVE SMOOTH",
"213 81 OFFCURVE",
"212 91 OFFCURVE",
"212 144 CURVE SMOOTH",
"212 433 LINE",
"409 433 LINE",
"409 491 LINE",
"212 491 LINE",
"212 693 LINE",
"148 693 LINE",
"148 491 LINE",
"15 491 LINE",
"15 433 LINE",
"148 433 LINE",
"148 108 LINE SMOOTH",
"148 65 OFFCURVE",
"159 43 OFFCURVE",
"182 22 CURVE SMOOTH",
"205 1 OFFCURVE",
"239 -9 OFFCURVE",
"294 -9 CURVE SMOOTH"
);
},
{
closed = 1;
nodes = (
"341 270 LINE",
"341 324 LINE",
"67 324 LINE",
"67 270 LINE"
);
}
);
width = 444;
},
{
layerId = "37B2A381-2B9F-4DE4-98E5-835D13A27EF0";
paths = (
{
closed = 1;
nodes = (
"414 -9 LINE",
"414 68 LINE",
"290 68 LINE SMOOTH",
"262 68 OFFCURVE",
"243 74 OFFCURVE",
"233 85 CURVE SMOOTH",
"225 94 OFFCURVE",
"224 100 OFFCURVE",
"224 151 CURVE SMOOTH",
"224 411 LINE",
"414 411 LINE",
"414 491 LINE",
"224 491 LINE",
"224 693 LINE",
"139 693 LINE",
"139 491 LINE",
"10 491 LINE",
"10 411 LINE",
"139 411 LINE",
"139 116 LINE SMOOTH",
"139 74 OFFCURVE",
"149 48 OFFCURVE",
"175 24 CURVE SMOOTH",
"200 1 OFFCURVE",
"236 -9 OFFCURVE",
"291 -9 CURVE SMOOTH"
);
},
{
closed = 1;
nodes = (
"350 270 LINE",
"350 336 LINE",
"58 336 LINE",
"58 270 LINE"
);
}
);
width = 444;
}
);
unicode = 0167;
},
{
glyphname = u;
lastChange = "2019-07-17 17:11:08 +0000";
layers = (
{
anchors = (
{
name = bottom;
position = "{319, 0}";
},
{
name = horn;
position = "{573, 327}";
},
{
name = ogonek;
position = "{569, 10}";
},
{
name = top;
position = "{319, 491}";
},
{
name = topright;
position = "{612, 491}";
}
);
layerId = "DA405910-5117-420C-9605-F5A44EE03BDF";
paths = (
{
closed = 1;
nodes = (
"524 491 LINE",
"524 222 LINE SMOOTH",
"524 120 OFFCURVE",
"450 36 OFFCURVE",
"316 36 CURVE SMOOTH",
"221 36 OFFCURVE",
"143 69 OFFCURVE",
"143 212 CURVE SMOOTH",
"143 491 LINE",
"78 491 LINE",
"78 203 LINE SMOOTH",
"78 25 OFFCURVE",
"194 -19 OFFCURVE",
"309 -19 CURVE SMOOTH",
"422 -19 OFFCURVE",
"484 22 OFFCURVE",
"524 77 CURVE",
"524 0 LINE",
"588 0 LINE",
"588 491 LINE"
);
}
);
width = 652;
},
{
anchors = (
{
name = bottom;
position = "{329, 0}";
},
{
name = horn;
position = "{573, 327}";
},
{
name = ogonek;
position = "{569, 10}";
},
{
name = top;
position = "{329, 491}";
},
{
name = topright;
position = "{612, 491}";
}
);
layerId = "37B2A381-2B9F-4DE4-98E5-835D13A27EF0";
paths = (
{
closed = 1;
nodes = (
"504 491 LINE",
"504 223 LINE SMOOTH",
"504 123 OFFCURVE",
"429 56 OFFCURVE",
"317 56 CURVE SMOOTH",
"210 56 OFFCURVE",
"163 104 OFFCURVE",
"163 213 CURVE SMOOTH",
"163 491 LINE",
"78 491 LINE",
"78 205 LINE SMOOTH",
"78 59 OFFCURVE",
"159 -20 OFFCURVE",
"310 -20 CURVE SMOOTH",
"393 -20 OFFCURVE",
"457 4 OFFCURVE",
"504 53 CURVE",
"504 0 LINE",
"588 0 LINE",
"588 491 LINE"
);
}
);
width = 651;
}
);
unicode = 0075;
},
{
glyphname = v;
lastChange = "2019-07-03 15:32:51 +0000";
layers = (
{
anchors = (
{
name = bottom;
position = "{272, 0}";
},
{
name = top;
position = "{272, 491}";
}
);
layerId = "DA405910-5117-420C-9605-F5A44EE03BDF";
paths = (
{
closed = 1;
nodes = (
"304 0 LINE",
"535 491 LINE",
"465 491 LINE",
"272 71 LINE",
"78 491 LINE",
"8 491 LINE",
"239 0 LINE"
);
}
);
width = 543;
},
{
anchors = (
{
name = bottom;
position = "{272, 0}";
},
{
name = top;
position = "{272, 491}";
}
);
layerId = "37B2A381-2B9F-4DE4-98E5-835D13A27EF0";
paths = (
{
closed = 1;
nodes = (
"310 0 LINE",
"541 491 LINE",
"449 491 LINE",
"272 106 LINE",
"94 491 LINE",
"2 491 LINE",
"233 0 LINE"
);
}
);
width = 543;
}
);
unicode = 0076;
},
{
glyphname = w;
lastChange = "2019-07-03 15:33:05 +0000";
layers = (
{
anchors = (
{
name = bottom;
position = "{440, 0}";
},
{
name = top;
position = "{440, 491}";
}
);
layerId = "DA405910-5117-420C-9605-F5A44EE03BDF";
paths = (
{
closed = 1;
nodes = (
"269 0 LINE",
"440 306 LINE",
"612 0 LINE",
"671 0 LINE",
"871 491 LINE",
"801 491 LINE",
"636 76 LINE",
"440 418 LINE",
"244 76 LINE",
"78 491 LINE",
"8 491 LINE",
"210 0 LINE"
);
}
);
width = 879;
},
{
anchors = (
{
name = bottom;
position = "{440, 0}";
},
{
name = top;
position = "{440, 491}";
}
);
layerId = "37B2A381-2B9F-4DE4-98E5-835D13A27EF0";
paths = (
{
closed = 1;
nodes = (
"284 0 LINE",
"440 280 LINE",
"597 0 LINE",
"668 0 LINE",
"868 491 LINE",
"776 491 LINE",
"625 110 LINE",
"440 433 LINE",
"255 110 LINE",
"103 491 LINE",
"11 491 LINE",
"213 0 LINE"
);
}
);
width = 879;
}
);
unicode = 0077;
},
{
glyphname = x;
lastChange = "2019-07-03 15:33:13 +0000";
layers = (
{
anchors = (
{
name = bottom;
position = "{299, 0}";
},
{
name = top;
position = "{299, 491}";
}
);
layerId = "DA405910-5117-420C-9605-F5A44EE03BDF";
paths = (
{
closed = 1;
nodes = (
"94 0 LINE",
"299 205 LINE",
"504 0 LINE",
"590 0 LINE",
"342 248 LINE",
"585 491 LINE",
"499 491 LINE",
"299 291 LINE",
"99 491 LINE",
"13 491 LINE",
"256 248 LINE",
"8 0 LINE"
);
}
);
width = 598;
},
{
anchors = (
{
name = bottom;
position = "{299, 0}";
},
{
name = top;
position = "{299, 491}";
}
);
layerId = "37B2A381-2B9F-4DE4-98E5-835D13A27EF0";
paths = (
{
closed = 1;
nodes = (
"108 0 LINE",
"299 191 LINE",
"490 0 LINE",
"604 0 LINE",
"356 248 LINE",
"599 491 LINE",
"485 491 LINE",
"299 305 LINE",
"113 491 LINE",
"-1 491 LINE",
"242 248 LINE",
"-6 0 LINE"
);
}
);
width = 598;
}
);
unicode = 0078;
},
{
glyphname = y;
lastChange = "2019-07-17 16:29:38 +0000";
layers = (
{
anchors = (
{
name = bottom;
position = "{325, -185}";
},
{
name = top;
position = "{305, 491}";
}
);
layerId = "DA405910-5117-420C-9605-F5A44EE03BDF";
paths = (
{
closed = 1;
nodes = (
"44 -202 OFFCURVE",
"118 -202 OFFCURVE",
"172 -201 CURVE",
"257 -201 OFFCURVE",
"297 -161 OFFCURVE",
"368 0 CURVE",
"605 491 LINE",
"533 491 LINE",
"327 59 LINE",
"78 491 LINE",
"4 491 LINE",
"288 0 LINE",
"250 -105 OFFCURVE",
"210 -146 OFFCURVE",
"148 -146 CURVE SMOOTH",
"44 -146 LINE",
"44 -202 LINE"
);
}
);
width = 613;
},
{
anchors = (
{
name = bottom;
position = "{325, -185}";
},
{
name = top;
position = "{305, 491}";
}
);
layerId = "37B2A381-2B9F-4DE4-98E5-835D13A27EF0";
paths = (
{
closed = 1;
nodes = (
"78 -202 OFFCURVE",
"135 -202 OFFCURVE",
"177 -201 CURVE SMOOTH",
"264 -201 OFFCURVE",
"307 -158 OFFCURVE",
"376 0 CURVE",
"613 491 LINE",
"518 491 LINE",
"325 87 LINE",
"92 491 LINE",
"-6 491 LINE",
"276 0 LINE",
"241 -93 OFFCURVE",
"207 -125 OFFCURVE",
"153 -125 CURVE SMOOTH",
"41 -125 LINE",
"41 -202 LINE"
);
}
);
width = 613;
}
);
unicode = 0079;
},
{
glyphname = z;
lastChange = "2019-07-03 15:33:58 +0000";
layers = (
{
anchors = (
{
name = bottom;
position = "{303, 0}";
},
{
name = center;
position = "{303, 246}";
},
{
name = top;
position = "{303, 491}";
}
);
layerId = "DA405910-5117-420C-9605-F5A44EE03BDF";
paths = (
{
closed = 1;
nodes = (
"557 0 LINE",
"557 56 LINE",
"137 56 LINE",
"560 435 LINE",
"560 491 LINE",
"46 491 LINE",
"46 435 LINE",
"469 435 LINE",
"46 56 LINE",
"46 0 LINE"
);
}
);
width = 606;
},
{
anchors = (
{
name = bottom;
position = "{303, 11}";
},
{
name = center;
position = "{303, 246}";
},
{
name = top;
position = "{303, 480}";
}
);
layerId = "37B2A381-2B9F-4DE4-98E5-835D13A27EF0";
paths = (
{
closed = 1;
nodes = (
"557 0 LINE",
"557 76 LINE",
"175 76 LINE",
"559 421 LINE",
"559 491 LINE",
"47 491 LINE",
"47 415 LINE",
"431 415 LINE",
"47 70 LINE",
"47 0 LINE"
);
}
);
width = 606;
}
);
unicode = 007A;
},
{
glyphname = zero;
lastChange = "2019-07-17 16:52:13 +0000";
layers = (
{
layerId = "DA405910-5117-420C-9605-F5A44EE03BDF";
paths = (
{
closed = 1;
nodes = (
"514 -19 OFFCURVE",
"619 115 OFFCURVE",
"619 343 CURVE SMOOTH",
"619 570 OFFCURVE",
"514 704 OFFCURVE",
"336 704 CURVE SMOOTH",
"159 704 OFFCURVE",
"55 570 OFFCURVE",
"55 343 CURVE SMOOTH",
"55 115 OFFCURVE",
"159 -19 OFFCURVE",
"336 -19 CURVE SMOOTH"
);
},
{
closed = 1;
nodes = (
"206 44 OFFCURVE",
"122 158 OFFCURVE",
"121 344 CURVE SMOOTH",
"122 527 OFFCURVE",
"206 641 OFFCURVE",
"337 641 CURVE SMOOTH",
"468 641 OFFCURVE",
"552 527 OFFCURVE",
"553 344 CURVE SMOOTH",
"552 158 OFFCURVE",
"468 44 OFFCURVE",
"337 44 CURVE SMOOTH"
);
}
);
width = 674;
},
{
layerId = "37B2A381-2B9F-4DE4-98E5-835D13A27EF0";
paths = (
{
closed = 1;
nodes = (
"515 -19 OFFCURVE",
"622 116 OFFCURVE",
"622 343 CURVE SMOOTH",
"622 569 OFFCURVE",
"515 704 OFFCURVE",
"336 704 CURVE SMOOTH",
"158 704 OFFCURVE",
"52 569 OFFCURVE",
"52 343 CURVE SMOOTH",
"52 116 OFFCURVE",
"158 -19 OFFCURVE",
"336 -19 CURVE SMOOTH"
);
},
{
closed = 1;
nodes = (
"216 65 OFFCURVE",
"140 171 OFFCURVE",
"140 344 CURVE",
"140 514 OFFCURVE",
"217 620 OFFCURVE",
"337 620 CURVE SMOOTH",
"457 620 OFFCURVE",
"534 514 OFFCURVE",
"534 344 CURVE SMOOTH",
"534 171 OFFCURVE",
"458 65 OFFCURVE",
"337 65 CURVE SMOOTH"
);
}
);
width = 674;
}
);
unicode = 0030;
},
{
glyphname = one;
lastChange = "2019-07-03 20:27:55 +0000";
layers = (
{
layerId = "DA405910-5117-420C-9605-F5A44EE03BDF";
paths = (
{
closed = 1;
nodes = (
"42 510 LINE",
"133 510 OFFCURVE",
"215 527 OFFCURVE",
"250 565 CURVE",
"250 0 LINE",
"314 0 LINE",
"314 693 LINE",
"254 693 LINE",
"230 627 OFFCURVE",
"165 570 OFFCURVE",
"42 570 CURVE"
);
},
{
closed = 1;
nodes = (
"483 0 LINE",
"483 65 LINE",
"83 65 LINE",
"83 0 LINE"
);
}
);
width = 507;
},
{
layerId = "37B2A381-2B9F-4DE4-98E5-835D13A27EF0";
paths = (
{
closed = 1;
nodes = (
"38 493 LINE",
"126 492 OFFCURVE",
"198 506 OFFCURVE",
"239 533 CURVE",
"239 0 LINE",
"324 0 LINE",
"324 693 LINE",
"246 693 LINE",
"221 614 OFFCURVE",
"146 571 OFFCURVE",
"38 574 CURVE"
);
},
{
closed = 1;
nodes = (
"487 0 LINE",
"487 86 LINE",
"77 86 LINE",
"77 0 LINE"
);
}
);
width = 507;
}
);
unicode = 0031;
},
{
glyphname = two;
lastChange = "2019-07-17 16:51:54 +0000";
layers = (
{
background = {
paths = (
{
closed = 1;
nodes = (
"102 510 LINE",
"124 578 OFFCURVE",
"181 647 OFFCURVE",
"313 647 CURVE SMOOTH",
"451 647 OFFCURVE",
"503 573 OFFCURVE",
"503 519 CURVE SMOOTH",
"503 461 OFFCURVE",
"449 417 OFFCURVE",
"350 323 CURVE SMOOTH",
"79 65 LINE",
"79 0 LINE",
"582 0 LINE",
"582 65 LINE",
"177 65 LINE",
"406 286 LINE SMOOTH",
"501 377 OFFCURVE",
"575 431 OFFCURVE",
"575 519 CURVE SMOOTH",
"575 603 OFFCURVE",
"498 711 OFFCURVE",
"313 711 CURVE SMOOTH",
"151 711 OFFCURVE",
"63 628 OFFCURVE",
"42 532 CURVE"
);
}
);
};
layerId = "DA405910-5117-420C-9605-F5A44EE03BDF";
paths = (
{
closed = 1;
nodes = (
"98 469 LINE",
"111 580 OFFCURVE",
"181 647 OFFCURVE",
"313 647 CURVE SMOOTH",
"451 647 OFFCURVE",
"503 573 OFFCURVE",
"503 519 CURVE SMOOTH",
"503 461 OFFCURVE",
"449 417 OFFCURVE",
"350 323 CURVE SMOOTH",
"79 65 LINE",
"79 0 LINE",
"582 0 LINE",
"582 65 LINE",
"177 65 LINE",
"406 286 LINE SMOOTH",
"501 377 OFFCURVE",
"575 431 OFFCURVE",
"575 519 CURVE SMOOTH",
"575 603 OFFCURVE",
"498 711 OFFCURVE",
"313 711 CURVE SMOOTH",
"151 711 OFFCURVE",
"48 631 OFFCURVE",
"34 491 CURVE"
);
}
);
width = 637;
},
{
background = {
paths = (
{
closed = 1;
nodes = (
"102 510 LINE",
"124 578 OFFCURVE",
"181 647 OFFCURVE",
"313 647 CURVE SMOOTH",
"451 647 OFFCURVE",
"503 573 OFFCURVE",
"503 519 CURVE SMOOTH",
"503 461 OFFCURVE",
"449 417 OFFCURVE",
"350 323 CURVE SMOOTH",
"79 65 LINE",
"79 0 LINE",
"582 0 LINE",
"582 65 LINE",
"177 65 LINE",
"406 286 LINE SMOOTH",
"501 377 OFFCURVE",
"575 431 OFFCURVE",
"575 519 CURVE SMOOTH",
"575 603 OFFCURVE",
"498 711 OFFCURVE",
"313 711 CURVE SMOOTH",
"151 711 OFFCURVE",
"63 628 OFFCURVE",
"42 532 CURVE"
);
}
);
};
layerId = "37B2A381-2B9F-4DE4-98E5-835D13A27EF0";
paths = (
{
closed = 1;
nodes = (
"115 450 LINE",
"123 565 OFFCURVE",
"191 626 OFFCURVE",
"313 626 CURVE SMOOTH",
"413 626 OFFCURVE",
"485 579 OFFCURVE",
"485 514 CURVE SMOOTH",
"485 463 OFFCURVE",
"437 424 OFFCURVE",
"341 332 CURVE SMOOTH",
"75 79 LINE",
"75 0 LINE",
"585 0 LINE",
"585 86 LINE",
"210 86 LINE",
"411 280 LINE SMOOTH",
"502 367 OFFCURVE",
"578 423 OFFCURVE",
"578 514 CURVE SMOOTH",
"578 627 OFFCURVE",
"466 711 OFFCURVE",
"313 711 CURVE SMOOTH",
"146 711 OFFCURVE",
"41 625 OFFCURVE",
"31 479 CURVE"
);
}
);
width = 637;
}
);
unicode = 0032;
},
{
glyphname = three;
lastChange = "2019-07-03 20:28:18 +0000";
layers = (
{
layerId = "DA405910-5117-420C-9605-F5A44EE03BDF";
paths = (
{
closed = 1;
nodes = (
"45 70 OFFCURVE",
"139 -20 OFFCURVE",
"301 -20 CURVE SMOOTH",
"480 -20 OFFCURVE",
"588 86 OFFCURVE",
"588 216 CURVE SMOOTH",
"588 332 OFFCURVE",
"500 417 OFFCURVE",
"348 433 CURVE",
"559 629 LINE",
"559 693 LINE",
"76 693 LINE",
"76 629 LINE",
"464 629 LINE",
"259 434 LINE",
"259 378 LINE",
"267 378 OFFCURVE",
"288 378 OFFCURVE",
"301 378 CURVE SMOOTH",
"424 378 OFFCURVE",
"515 318 OFFCURVE",
"515 216 CURVE SMOOTH",
"515 126 OFFCURVE",
"441 45 OFFCURVE",
"301 45 CURVE SMOOTH",
"170 45 OFFCURVE",
"102 129 OFFCURVE",
"76 192 CURVE",
"14 169 LINE"
);
}
);
width = 643;
},
{
layerId = "37B2A381-2B9F-4DE4-98E5-835D13A27EF0";
paths = (
{
closed = 1;
nodes = (
"43 57 OFFCURVE",
"155 -20 OFFCURVE",
"301 -20 CURVE SMOOTH",
"471 -20 OFFCURVE",
"590 80 OFFCURVE",
"590 220 CURVE SMOOTH",
"590 334 OFFCURVE",
"507 416 OFFCURVE",
"372 438 CURVE",
"562 614 LINE",
"562 693 LINE",
"72 693 LINE",
"72 608 LINE",
"430 608 LINE",
"249 436 LINE",
"249 365 LINE",
"267 365 OFFCURVE",
"289 365 OFFCURVE",
"301 365 CURVE SMOOTH",
"419 365 OFFCURVE",
"496 307 OFFCURVE",
"496 220 CURVE SMOOTH",
"496 129 OFFCURVE",
"418 66 OFFCURVE",
"301 66 CURVE SMOOTH",
"202 66 OFFCURVE",
"123 121 OFFCURVE",
"90 212 CURVE",
"9 182 LINE"
);
}
);
width = 643;
}
);
unicode = 0033;
},
{
glyphname = four;
lastChange = "2019-07-03 20:28:35 +0000";
layers = (
{
layerId = "DA405910-5117-420C-9605-F5A44EE03BDF";
paths = (
{
closed = 1;
nodes = (
"432 0 LINE",
"497 0 LINE",
"497 491 LINE",
"432 491 LINE"
);
},
{
closed = 1;
nodes = (
"38 184 LINE",
"678 184 LINE",
"678 246 LINE",
"123 246 LINE",
"508 693 LINE",
"422 693 LINE",
"38 246 LINE"
);
}
);
width = 703;
},
{
layerId = "37B2A381-2B9F-4DE4-98E5-835D13A27EF0";
paths = (
{
closed = 1;
nodes = (
"418 0 LINE",
"504 0 LINE",
"504 491 LINE",
"418 491 LINE"
);
},
{
closed = 1;
nodes = (
"37 178 LINE",
"679 178 LINE",
"679 261 LINE",
"156 261 LINE",
"528 693 LINE",
"415 693 LINE",
"37 254 LINE"
);
}
);
width = 703;
}
);
unicode = 0034;
},
{
glyphname = five;
lastChange = "2019-07-17 16:52:35 +0000";
layers = (
{
background = {
paths = (
{
closed = 1;
nodes = (
"95 61 OFFCURVE",
"186 -21 OFFCURVE",
"339 -21 CURVE SMOOTH",
"514 -21 OFFCURVE",
"622 75 OFFCURVE",
"622 208 CURVE SMOOTH",
"622 357 OFFCURVE",
"519 450 OFFCURVE",
"339 450 CURVE SMOOTH",
"267 450 OFFCURVE",
"187 423 OFFCURVE",
"156 396 CURVE",
"156 630 LINE",
"591 629 LINE",
"591 693 LINE",
"95 693 LINE",
"95 324 LINE",
"156 324 LINE",
"195 362 OFFCURVE",
"257 387 OFFCURVE",
"339 387 CURVE SMOOTH",
"458 387 OFFCURVE",
"551 325 OFFCURVE",
"549 208 CURVE SMOOTH",
"547 100 OFFCURVE",
"448 43 OFFCURVE",
"339 43 CURVE SMOOTH",
"234 43 OFFCURVE",
"160 97 OFFCURVE",
"126 198 CURVE",
"62 174 LINE"
);
}
);
};
layerId = "DA405910-5117-420C-9605-F5A44EE03BDF";
paths = (
{
closed = 1;
nodes = (
"95 61 OFFCURVE",
"186 -21 OFFCURVE",
"339 -21 CURVE SMOOTH",
"514 -21 OFFCURVE",
"622 75 OFFCURVE",
"622 208 CURVE SMOOTH",
"622 357 OFFCURVE",
"519 450 OFFCURVE",
"339 450 CURVE SMOOTH",
"267 450 OFFCURVE",
"187 423 OFFCURVE",
"156 396 CURVE",
"156 630 LINE",
"591 629 LINE",
"591 693 LINE",
"95 693 LINE",
"95 324 LINE",
"156 324 LINE",
"195 362 OFFCURVE",
"257 387 OFFCURVE",
"339 387 CURVE SMOOTH",
"458 387 OFFCURVE",
"551 325 OFFCURVE",
"549 208 CURVE SMOOTH",
"547 100 OFFCURVE",
"448 43 OFFCURVE",
"339 43 CURVE SMOOTH",
"234 43 OFFCURVE",
"160 97 OFFCURVE",
"126 198 CURVE",
"62 174 LINE"
);
}
);
width = 670;
},
{
background = {
paths = (
{
closed = 1;
nodes = (
"95 61 OFFCURVE",
"186 -21 OFFCURVE",
"339 -21 CURVE SMOOTH",
"514 -21 OFFCURVE",
"622 75 OFFCURVE",
"622 208 CURVE SMOOTH",
"622 357 OFFCURVE",
"519 450 OFFCURVE",
"339 450 CURVE SMOOTH",
"267 450 OFFCURVE",
"187 423 OFFCURVE",
"156 396 CURVE",
"156 630 LINE",
"591 629 LINE",
"591 693 LINE",
"95 693 LINE",
"95 324 LINE",
"156 324 LINE",
"195 362 OFFCURVE",
"257 387 OFFCURVE",
"339 387 CURVE SMOOTH",
"458 387 OFFCURVE",
"551 325 OFFCURVE",
"549 208 CURVE SMOOTH",
"547 100 OFFCURVE",
"448 43 OFFCURVE",
"339 43 CURVE SMOOTH",
"234 43 OFFCURVE",
"160 97 OFFCURVE",
"126 198 CURVE",
"62 174 LINE"
);
}
);
};
layerId = "37B2A381-2B9F-4DE4-98E5-835D13A27EF0";
paths = (
{
closed = 1;
nodes = (
"97.666 49.255 OFFCURVE",
"198.662 -21 OFFCURVE",
"339 -21 CURVE SMOOTH",
"509 -21 OFFCURVE",
"624 73 OFFCURVE",
"624 212 CURVE SMOOTH",
"624 365 OFFCURVE",
"517 458 OFFCURVE",
"339 458 CURVE SMOOTH",
"282 458 OFFCURVE",
"214 440 OFFCURVE",
"174 416 CURVE",
"174 609 LINE",
"594 608 LINE",
"594 693 LINE",
"91 693 LINE",
"91 313 LINE",
"167 313 LINE",
"205 352 OFFCURVE",
"266 374 OFFCURVE",
"339 374 CURVE SMOOTH",
"458 374 OFFCURVE",
"532 311 OFFCURVE",
"531 212 CURVE SMOOTH",
"529 124 OFFCURVE",
"451 64 OFFCURVE",
"339 64 CURVE SMOOTH",
"242.791 64 OFFCURVE",
"176 111 OFFCURVE",
"144 203 CURVE",
"60.492 173.446 LINE"
);
}
);
width = 670;
}
);
unicode = 0035;
},
{
glyphname = six;
lastChange = "2019-07-03 20:29:57 +0000";
layers = (
{
layerId = "DA405910-5117-420C-9605-F5A44EE03BDF";
paths = (
{
closed = 1;
nodes = (
"57 81 OFFCURVE",
"165 -20 OFFCURVE",
"334 -20 CURVE SMOOTH",
"508 -20 OFFCURVE",
"614 81 OFFCURVE",
"615 214 CURVE SMOOTH",
"616 347 OFFCURVE",
"508 447 OFFCURVE",
"334 447 CURVE SMOOTH",
"299 447 OFFCURVE",
"253 436 OFFCURVE",
"238 428 CURVE",
"452 693 LINE",
"360 693 LINE",
"162 443 LINE",
"94 359 OFFCURVE",
"54 286 OFFCURVE",
"55 214 CURVE SMOOTH"
);
},
{
closed = 1;
nodes = (
"134 316 OFFCURVE",
"217 389 OFFCURVE",
"334 389 CURVE SMOOTH",
"458 389 OFFCURVE",
"540 320 OFFCURVE",
"537 214 CURVE SMOOTH",
"534 106 OFFCURVE",
"454 40 OFFCURVE",
"334 40 CURVE SMOOTH",
"212 40 OFFCURVE",
"132 106 OFFCURVE",
"133 214 CURVE SMOOTH"
);
}
);
width = 657;
},
{
layerId = "37B2A381-2B9F-4DE4-98E5-835D13A27EF0";
paths = (
{
closed = 1;
nodes = (
"55 77 OFFCURVE",
"170 -20 OFFCURVE",
"334 -20 CURVE SMOOTH",
"502 -20 OFFCURVE",
"616 77 OFFCURVE",
"617 218 CURVE SMOOTH",
"619 358 OFFCURVE",
"503 455 OFFCURVE",
"334 455 CURVE SMOOTH",
"317 455 OFFCURVE",
"294 452 OFFCURVE",
"274 448 CURVE",
"472 693 LINE",
"354 693 LINE",
"159 447 LINE SMOOTH",
"84 355 OFFCURVE",
"52 285 OFFCURVE",
"53 218 CURVE SMOOTH"
);
},
{
closed = 1;
nodes = (
"152 310 OFFCURVE",
"228 376 OFFCURVE",
"334 376 CURVE SMOOTH",
"449 376 OFFCURVE",
"522 313 OFFCURVE",
"519 218 CURVE SMOOTH",
"516 122 OFFCURVE",
"445 61 OFFCURVE",
"334 61 CURVE SMOOTH",
"220 61 OFFCURVE",
"150 122 OFFCURVE",
"151 218 CURVE SMOOTH"
);
}
);
width = 657;
}
);
unicode = 0036;
},
{
glyphname = seven;
lastChange = "2019-07-17 16:20:17 +0000";
layers = (
{
layerId = "DA405910-5117-420C-9605-F5A44EE03BDF";
paths = (
{
closed = 1;
nodes = (
"517 629 LINE",
"96 0 LINE",
"180 0 LINE",
"603 629 LINE",
"603 693 LINE",
"40 693 LINE",
"40 629 LINE"
);
}
);
width = 637;
},
{
layerId = "37B2A381-2B9F-4DE4-98E5-835D13A27EF0";
paths = (
{
closed = 1;
nodes = (
"489 608 LINE",
"82 0 LINE",
"191 0 LINE",
"605 616 LINE",
"605 693 LINE",
"38 693 LINE",
"38 608 LINE"
);
}
);
width = 637;
}
);
unicode = 0037;
},
{
glyphname = eight;
lastChange = "2019-07-03 20:30:21 +0000";
layers = (
{
layerId = "DA405910-5117-420C-9605-F5A44EE03BDF";
paths = (
{
closed = 1;
nodes = (
"515 -20 OFFCURVE",
"605 72 OFFCURVE",
"605 176 CURVE SMOOTH",
"605 250 OFFCURVE",
"561 306 OFFCURVE",
"482 339 CURVE",
"561 372 OFFCURVE",
"615 434 OFFCURVE",
"615 508 CURVE SMOOTH",
"615 628 OFFCURVE",
"515 711 OFFCURVE",
"335 711 CURVE SMOOTH",
"155 711 OFFCURVE",
"55 628 OFFCURVE",
"55 508 CURVE SMOOTH",
"55 434 OFFCURVE",
"110 372 OFFCURVE",
"188 339 CURVE",
"110 306 OFFCURVE",
"65 250 OFFCURVE",
"65 176 CURVE SMOOTH",
"65 68 OFFCURVE",
"155 -20 OFFCURVE",
"335 -20 CURVE SMOOTH"
);
},
{
closed = 1;
nodes = (
"219 40 OFFCURVE",
"131 90 OFFCURVE",
"131 177 CURVE SMOOTH",
"131 263 OFFCURVE",
"210 313 OFFCURVE",
"335 312 CURVE SMOOTH",
"460 311 OFFCURVE",
"542 261 OFFCURVE",
"539 177 CURVE SMOOTH",
"537 90 OFFCURVE",
"451 38 OFFCURVE",
"335 39 CURVE SMOOTH"
);
},
{
closed = 1;
nodes = (
"214 368 OFFCURVE",
"123 426 OFFCURVE",
"123 509 CURVE SMOOTH",
"123 592 OFFCURVE",
"214 651 OFFCURVE",
"335 651 CURVE SMOOTH",
"460 651 OFFCURVE",
"549 592 OFFCURVE",
"547 509 CURVE SMOOTH",
"545 426 OFFCURVE",
"455 368 OFFCURVE",
"335 368 CURVE SMOOTH"
);
}
);
width = 670;
},
{
layerId = "37B2A381-2B9F-4DE4-98E5-835D13A27EF0";
paths = (
{
closed = 1;
nodes = (
"499 -20 OFFCURVE",
"608 61 OFFCURVE",
"608 181 CURVE SMOOTH",
"608 249 OFFCURVE",
"572 304 OFFCURVE",
"505 339 CURVE",
"575 376 OFFCURVE",
"618 437 OFFCURVE",
"618 503 CURVE SMOOTH",
"618 631 OFFCURVE",
"508 711 OFFCURVE",
"335 711 CURVE SMOOTH",
"162 711 OFFCURVE",
"52 631 OFFCURVE",
"52 503 CURVE SMOOTH",
"52 437 OFFCURVE",
"95 376 OFFCURVE",
"166 339 CURVE",
"98 304 OFFCURVE",
"62 249 OFFCURVE",
"62 181 CURVE SMOOTH",
"62 59 OFFCURVE",
"169 -20 OFFCURVE",
"335 -20 CURVE SMOOTH"
);
},
{
closed = 1;
nodes = (
"222 61 OFFCURVE",
"149 110 OFFCURVE",
"149 182 CURVE SMOOTH",
"149 257 OFFCURVE",
"218 302 OFFCURVE",
"335 301 CURVE SMOOTH",
"453 301 OFFCURVE",
"523 255 OFFCURVE",
"521 183 CURVE SMOOTH",
"519 108 OFFCURVE",
"446 59 OFFCURVE",
"335 60 CURVE SMOOTH"
);
},
{
closed = 1;
nodes = (
"222 379 OFFCURVE",
"141 432 OFFCURVE",
"141 504 CURVE SMOOTH",
"141 576 OFFCURVE",
"223 630 OFFCURVE",
"335 630 CURVE SMOOTH",
"450 630 OFFCURVE",
"530 577 OFFCURVE",
"529 504 CURVE SMOOTH",
"527 432 OFFCURVE",
"446 379 OFFCURVE",
"335 379 CURVE SMOOTH"
);
}
);
width = 670;
}
);
unicode = 0038;
},
{
glyphname = nine;
lastChange = "2019-07-17 16:52:25 +0000";
layers = (
{
layerId = "DA405910-5117-420C-9605-F5A44EE03BDF";
paths = (
{
closed = 1;
nodes = (
"603 611 OFFCURVE",
"492 712 OFFCURVE",
"323 712 CURVE SMOOTH",
"149 712 OFFCURVE",
"43 611 OFFCURVE",
"42 478 CURVE SMOOTH",
"43 345 OFFCURVE",
"149 245 OFFCURVE",
"323 245 CURVE SMOOTH",
"358 245 OFFCURVE",
"404 256 OFFCURVE",
"419 264 CURVE",
"205 -1 LINE",
"297 -1 LINE",
"495 249 LINE",
"563 333 OFFCURVE",
"603 406 OFFCURVE",
"602 478 CURVE SMOOTH"
);
},
{
closed = 1;
nodes = (
"526 376 OFFCURVE",
"440 303 OFFCURVE",
"323 303 CURVE SMOOTH",
"199 303 OFFCURVE",
"117 372 OFFCURVE",
"120 478 CURVE SMOOTH",
"123 586 OFFCURVE",
"203 652 OFFCURVE",
"323 652 CURVE SMOOTH",
"445 652 OFFCURVE",
"525 586 OFFCURVE",
"524 478 CURVE SMOOTH"
);
}
);
width = 657;
},
{
layerId = "37B2A381-2B9F-4DE4-98E5-835D13A27EF0";
paths = (
{
closed = 1;
nodes = (
"606 613 OFFCURVE",
"488 712 OFFCURVE",
"323 712 CURVE SMOOTH",
"155 712 OFFCURVE",
"41 615 OFFCURVE",
"40 474 CURVE SMOOTH",
"41 333 OFFCURVE",
"155 237 OFFCURVE",
"323 237 CURVE SMOOTH",
"340 237 OFFCURVE",
"363 240 OFFCURVE",
"383 244 CURVE",
"185 0 LINE",
"303 0 LINE",
"498 245 LINE SMOOTH",
"572 338 OFFCURVE",
"605 407 OFFCURVE",
"605 474 CURVE"
);
},
{
closed = 1;
nodes = (
"508 383 OFFCURVE",
"431 316 OFFCURVE",
"323 316 CURVE SMOOTH",
"208 316 OFFCURVE",
"136 379 OFFCURVE",
"138 474 CURVE SMOOTH",
"141 570 OFFCURVE",
"212 631 OFFCURVE",
"323 631 CURVE SMOOTH",
"437 631 OFFCURVE",
"507 570 OFFCURVE",
"506 474 CURVE SMOOTH"
);
}
);
width = 657;
}
);
unicode = 0039;
},
{
glyphname = twoinferior;
lastChange = "2019-07-03 20:58:30 +0000";
layers = (
{
layerId = "DA405910-5117-420C-9605-F5A44EE03BDF";
paths = (
{
closed = 1;
nodes = (
"79 268 LINE",
"84 335 OFFCURVE",
"125 372 OFFCURVE",
"199 372 CURVE SMOOTH",
"275 372 OFFCURVE",
"304 332 OFFCURVE",
"304 302 CURVE SMOOTH",
"304 269 OFFCURVE",
"274 247 OFFCURVE",
"217 192 CURVE SMOOTH",
"61 42 LINE",
"61 0 LINE",
"358 0 LINE",
"358 45 LINE",
"130 45 LINE",
"255 166 LINE SMOOTH",
"309 218 OFFCURVE",
"353 248 OFFCURVE",
"353 302 CURVE SMOOTH",
"353 351 OFFCURVE",
"308 416 OFFCURVE",
"199 416 CURVE SMOOTH",
"104 416 OFFCURVE",
"42 367 OFFCURVE",
"34 283 CURVE"
);
}
);
width = 413;
},
{
layerId = "37B2A381-2B9F-4DE4-98E5-835D13A27EF0";
paths = (
{
closed = 1;
nodes = (
"95 250 LINE",
"98 318 OFFCURVE",
"130 352 OFFCURVE",
"199 352 CURVE SMOOTH",
"251 352 OFFCURVE",
"287 328 OFFCURVE",
"287 297 CURVE SMOOTH",
"287 271 OFFCURVE",
"262 254 OFFCURVE",
"208 201 CURVE SMOOTH",
"57 56 LINE",
"57 0 LINE",
"360 0 LINE",
"360 65 LINE",
"162 65 LINE",
"260 160 LINE SMOOTH",
"310 209 OFFCURVE",
"356 240 OFFCURVE",
"356 297 CURVE SMOOTH",
"356 365 OFFCURVE",
"289 416 OFFCURVE",
"199 416 CURVE SMOOTH",
"99 416 OFFCURVE",
"35 361 OFFCURVE",
"31 271 CURVE"
);
}
);
width = 412;
}
);
leftMetricsKey = two;
rightMetricsKey = two;
unicode = 2082;
},
{
glyphname = fourinferior;
lastChange = "2019-07-03 20:54:06 +0000";
layers = (
{
layerId = "DA405910-5117-420C-9605-F5A44EE03BDF";
paths = (
{
closed = 1;
nodes = (
"268 0 LINE",
"312 0 LINE",
"312 293 LINE",
"268 293 LINE"
);
},
{
closed = 1;
nodes = (
"38 107 LINE",
"417 107 LINE",
"417 150 LINE",
"100 150 LINE",
"323 409 LINE",
"263 409 LINE",
"38 147 LINE"
);
}
);
width = 442;
},
{
layerId = "37B2A381-2B9F-4DE4-98E5-835D13A27EF0";
paths = (
{
closed = 1;
nodes = (
"257 0 LINE",
"322 0 LINE",
"322 267 LINE",
"257 267 LINE"
);
},
{
closed = 1;
nodes = (
"37 101 LINE",
"418 101 LINE",
"418 164 LINE",
"132 164 LINE",
"342 409 LINE",
"256 409 LINE",
"37 154 LINE"
);
}
);
width = 442;
}
);
leftMetricsKey = four;
rightMetricsKey = four;
unicode = 2084;
},
{
glyphname = eightinferior;
lastChange = "2019-07-03 20:41:53 +0000";
layers = (
{
layerId = "DA405910-5117-420C-9605-F5A44EE03BDF";
paths = (
{
closed = 1;
nodes = (
"317 -5 OFFCURVE",
"382 41 OFFCURVE",
"382 113 CURVE SMOOTH",
"382 150 OFFCURVE",
"356 185 OFFCURVE",
"313 206 CURVE",
"358 229 OFFCURVE",
"388 265 OFFCURVE",
"388 305 CURVE SMOOTH",
"388 380 OFFCURVE",
"324 425 OFFCURVE",
"220 425 CURVE SMOOTH",
"119 425 OFFCURVE",
"55 380 OFFCURVE",
"55 305 CURVE SMOOTH",
"55 264 OFFCURVE",
"84 229 OFFCURVE",
"129 206 CURVE",
"86 185 OFFCURVE",
"61 151 OFFCURVE",
"61 113 CURVE SMOOTH",
"61 39 OFFCURVE",
"122 -5 OFFCURVE",
"220 -5 CURVE SMOOTH"
);
},
{
closed = 1;
nodes = (
"151 34 OFFCURVE",
"105 66 OFFCURVE",
"105 113 CURVE SMOOTH",
"105 159 OFFCURVE",
"149 188 OFFCURVE",
"220 188 CURVE SMOOTH",
"293 188 OFFCURVE",
"337 157 OFFCURVE",
"336 113 CURVE SMOOTH",
"334 66 OFFCURVE",
"288 34 OFFCURVE",
"220 34 CURVE SMOOTH"
);
},
{
closed = 1;
nodes = (
"151 225 OFFCURVE",
"100 260 OFFCURVE",
"100 305 CURVE SMOOTH",
"100 349 OFFCURVE",
"153 385 OFFCURVE",
"220 385 CURVE SMOOTH",
"291 385 OFFCURVE",
"343 349 OFFCURVE",
"340 305 CURVE SMOOTH",
"338 259 OFFCURVE",
"289 225 OFFCURVE",
"220 225 CURVE SMOOTH"
);
}
);
width = 443;
},
{
layerId = "37B2A381-2B9F-4DE4-98E5-835D13A27EF0";
paths = (
{
closed = 1;
nodes = (
"319 -5 OFFCURVE",
"385 44 OFFCURVE",
"385 118 CURVE SMOOTH",
"385 152 OFFCURVE",
"365 184 OFFCURVE",
"331 206 CURVE",
"369 231 OFFCURVE",
"391 265 OFFCURVE",
"391 300 CURVE SMOOTH",
"391 377 OFFCURVE",
"325 425 OFFCURVE",
"220 425 CURVE SMOOTH",
"117 425 OFFCURVE",
"52 377 OFFCURVE",
"52 300 CURVE SMOOTH",
"52 264 OFFCURVE",
"74 231 OFFCURVE",
"111 206 CURVE",
"77 184 OFFCURVE",
"58 153 OFFCURVE",
"58 118 CURVE SMOOTH",
"58 42 OFFCURVE",
"120 -5 OFFCURVE",
"220 -5 CURVE SMOOTH"
);
},
{
closed = 1;
nodes = (
"160 53 OFFCURVE",
"121 80 OFFCURVE",
"121 118 CURVE SMOOTH",
"121 156 OFFCURVE",
"158 179 OFFCURVE",
"220 179 CURVE SMOOTH",
"283 179 OFFCURVE",
"321 155 OFFCURVE",
"321 119 CURVE SMOOTH",
"319 80 OFFCURVE",
"279 53 OFFCURVE",
"220 53 CURVE SMOOTH"
);
},
{
closed = 1;
nodes = (
"161 235 OFFCURVE",
"116 263 OFFCURVE",
"116 300 CURVE SMOOTH",
"116 336 OFFCURVE",
"163 365 OFFCURVE",
"220 365 CURVE SMOOTH",
"280 365 OFFCURVE",
"326 336 OFFCURVE",
"324 301 CURVE SMOOTH",
"322 262 OFFCURVE",
"279 235 OFFCURVE",
"220 235 CURVE SMOOTH"
);
}
);
width = 443;
}
);
leftMetricsKey = eight;
rightMetricsKey = eight;
unicode = 2088;
},
{
glyphname = onesuperior;
lastChange = "2019-07-03 20:42:11 +0000";
layers = (
{
layerId = "DA405910-5117-420C-9605-F5A44EE03BDF";
paths = (
{
closed = 1;
nodes = (
"42 636 LINE",
"96 636 OFFCURVE",
"139 645 OFFCURVE",
"162 663 CURVE",
"162 341 LINE",
"207 341 LINE",
"207 750 LINE",
"166 750 LINE",
"151 703 OFFCURVE",
"106 678 OFFCURVE",
"42 679 CURVE"
);
},
{
closed = 1;
nodes = (
"305 341 LINE",
"305 386 LINE",
"66 386 LINE",
"66 341 LINE"
);
}
);
width = 329;
},
{
layerId = "37B2A381-2B9F-4DE4-98E5-835D13A27EF0";
paths = (
{
closed = 1;
nodes = (
"38 620 LINE",
"86 619 OFFCURVE",
"125 624 OFFCURVE",
"151 637 CURVE",
"151 341 LINE",
"216 341 LINE",
"216 750 LINE",
"158 750 LINE",
"147 703 OFFCURVE",
"104 679 OFFCURVE",
"38 683 CURVE"
);
},
{
closed = 1;
nodes = (
"309 341 LINE",
"309 406 LINE",
"61 406 LINE",
"61 341 LINE"
);
}
);
width = 329;
}
);
leftMetricsKey = one;
rightMetricsKey = one;
unicode = 00B9;
},
{
glyphname = twosuperior;
lastChange = "2019-07-03 20:58:40 +0000";
layers = (
{
layerId = "DA405910-5117-420C-9605-F5A44EE03BDF";
paths = (
{
closed = 1;
nodes = (
"78 609 LINE",
"83 676 OFFCURVE",
"125 713 OFFCURVE",
"199 713 CURVE SMOOTH",
"275 713 OFFCURVE",
"304 673 OFFCURVE",
"304 643 CURVE SMOOTH",
"304 610 OFFCURVE",
"274 588 OFFCURVE",
"217 533 CURVE SMOOTH",
"61 383 LINE",
"61 341 LINE",
"358 341 LINE",
"358 386 LINE",
"130 386 LINE",
"255 507 LINE SMOOTH",
"309 559 OFFCURVE",
"353 589 OFFCURVE",
"353 643 CURVE SMOOTH",
"353 692 OFFCURVE",
"308 757 OFFCURVE",
"199 757 CURVE SMOOTH",
"104 757 OFFCURVE",
"42 708 OFFCURVE",
"34 624 CURVE"
);
}
);
width = 413;
},
{
layerId = "37B2A381-2B9F-4DE4-98E5-835D13A27EF0";
paths = (
{
closed = 1;
nodes = (
"95 591 LINE",
"98 659 OFFCURVE",
"130 693 OFFCURVE",
"199 693 CURVE SMOOTH",
"251 693 OFFCURVE",
"287 669 OFFCURVE",
"287 638 CURVE SMOOTH",
"287 612 OFFCURVE",
"263 594 OFFCURVE",
"208 542 CURVE SMOOTH",
"57 397 LINE",
"57 341 LINE",
"360 341 LINE",
"360 406 LINE",
"162 406 LINE",
"260 501 LINE SMOOTH",
"310 550 OFFCURVE",
"356 581 OFFCURVE",
"356 638 CURVE SMOOTH",
"356 706 OFFCURVE",
"289 757 OFFCURVE",
"199 757 CURVE SMOOTH",
"99 757 OFFCURVE",
"35 702 OFFCURVE",
"31 612 CURVE"
);
}
);
width = 412;
}
);
leftMetricsKey = two;
rightMetricsKey = two;
unicode = 00B2;
},
{
glyphname = threesuperior;
lastChange = "2019-07-03 20:58:42 +0000";
layers = (
{
layerId = "DA405910-5117-420C-9605-F5A44EE03BDF";
paths = (
{
closed = 1;
nodes = (
"35 379 OFFCURVE",
"99 336 OFFCURVE",
"183 336 CURVE SMOOTH",
"280 336 OFFCURVE",
"350 394 OFFCURVE",
"350 475 CURVE SMOOTH",
"350 542 OFFCURVE",
"300 590 OFFCURVE",
"218 601 CURVE",
"333 705 LINE",
"333 750 LINE",
"50 750 LINE",
"50 705 LINE",
"264 705 LINE",
"154 600 LINE",
"154 563 LINE",
"163 563 OFFCURVE",
"174 563 OFFCURVE",
"183 563 CURVE SMOOTH",
"252 563 OFFCURVE",
"299 527 OFFCURVE",
"299 475 CURVE SMOOTH",
"299 420 OFFCURVE",
"252 381 OFFCURVE",
"183 381 CURVE SMOOTH",
"107 381 OFFCURVE",
"70 430 OFFCURVE",
"56 467 CURVE",
"14 450 LINE"
);
}
);
width = 405;
},
{
layerId = "37B2A381-2B9F-4DE4-98E5-835D13A27EF0";
paths = (
{
closed = 1;
nodes = (
"27 384 OFFCURVE",
"94 336 OFFCURVE",
"182 336 CURVE SMOOTH",
"280 336 OFFCURVE",
"351 396 OFFCURVE",
"351 479 CURVE SMOOTH",
"351 541 OFFCURVE",
"309 588 OFFCURVE",
"240 605 CURVE",
"335 691 LINE",
"335 750 LINE",
"45 750 LINE",
"45 685 LINE",
"230 685 LINE",
"143 602 LINE",
"143 551 LINE",
"156 551 OFFCURVE",
"169 551 OFFCURVE",
"182 551 CURVE SMOOTH",
"241 551 OFFCURVE",
"280 521 OFFCURVE",
"280 479 CURVE SMOOTH",
"280 433 OFFCURVE",
"240 401 OFFCURVE",
"182 401 CURVE SMOOTH",
"126 401 OFFCURVE",
"84 433 OFFCURVE",
"69 486 CURVE",
"9 462 LINE"
);
}
);
width = 404;
}
);
leftMetricsKey = three;
rightMetricsKey = three;
unicode = 00B3;
},
{
glyphname = fivesuperior;
lastChange = "2019-07-03 20:56:52 +0000";
layers = (
{
layerId = "DA405910-5117-420C-9605-F5A44EE03BDF";
paths = (
{
closed = 1;
nodes = (
"323 336 OFFCURVE",
"391 390 OFFCURVE",
"391 470 CURVE SMOOTH",
"391 559 OFFCURVE",
"327 612 OFFCURVE",
"226 612 CURVE SMOOTH",
"189 612 OFFCURVE",
"149 599 OFFCURVE",
"127 585 CURVE",
"127 706 LINE",
"373 705 LINE",
"373 750 LINE",
"83 750 LINE",
"83 532 LINE",
"123 532 LINE",
"147 555 OFFCURVE",
"181 567 OFFCURVE",
"226 567 CURVE SMOOTH",
"298 567 OFFCURVE",
"340 529 OFFCURVE",
"340 470 CURVE SMOOTH",
"340 417 OFFCURVE",
"294 380 OFFCURVE",
"226 381 CURVE SMOOTH",
"168 382 OFFCURVE",
"126 411 OFFCURVE",
"107 470 CURVE",
"62 454 LINE",
"83 379 OFFCURVE",
"144 336 OFFCURVE",
"226 336 CURVE SMOOTH"
);
}
);
width = 439;
},
{
layerId = "37B2A381-2B9F-4DE4-98E5-835D13A27EF0";
paths = (
{
closed = 1;
nodes = (
"79 381 OFFCURVE",
"142 336 OFFCURVE",
"226 336 CURVE SMOOTH",
"325 336 OFFCURVE",
"393 392 OFFCURVE",
"393 474 CURVE SMOOTH",
"393 564 OFFCURVE",
"329 620 OFFCURVE",
"226 620 CURVE SMOOTH",
"199 620 OFFCURVE",
"168 613 OFFCURVE",
"144 602 CURVE",
"144 686 LINE",
"376 685 LINE",
"376 750 LINE",
"79 750 LINE",
"79 521 LINE",
"133 521 LINE",
"154 543 OFFCURVE",
"185 554 OFFCURVE",
"226 554 CURVE SMOOTH",
"287 554 OFFCURVE",
"322 524 OFFCURVE",
"322 474 CURVE SMOOTH",
"322 430 OFFCURVE",
"284 400 OFFCURVE",
"226 401 CURVE SMOOTH",
"175.022 401.927 OFFCURVE",
"141.226 426.908 OFFCURVE",
"124.612 476.74 CURVE",
"60.425 453.274 LINE"
);
}
);
width = 439;
}
);
leftMetricsKey = five;
rightMetricsKey = five;
unicode = 2075;
},
{
glyphname = sevensuperior;
lastChange = "2019-07-03 20:58:55 +0000";
layers = (
{
layerId = "DA405910-5117-420C-9605-F5A44EE03BDF";
paths = (
{
closed = 1;
nodes = (
"312 704 LINE",
"69 341 LINE",
"126 341 LINE",
"373 704 LINE",
"373 750 LINE",
"40 750 LINE",
"40 704 LINE"
);
}
);
width = 407;
},
{
layerId = "37B2A381-2B9F-4DE4-98E5-835D13A27EF0";
paths = (
{
closed = 1;
nodes = (
"288 685 LINE",
"55 341 LINE",
"136 341 LINE",
"375 685 LINE",
"375 750 LINE",
"38 750 LINE",
"38 685 LINE"
);
}
);
width = 407;
}
);
leftMetricsKey = seven;
rightMetricsKey = seven;
unicode = 2077;
},
{
glyphname = fraction;
lastChange = "2019-07-03 20:52:48 +0000";
layers = (
{
layerId = "DA405910-5117-420C-9605-F5A44EE03BDF";
paths = (
{
closed = 1;
nodes = (
"454 712 LINE",
"-27 5 LINE",
"27 -20 LINE",
"508 690 LINE"
);
}
);
width = 481;
},
{
layerId = "37B2A381-2B9F-4DE4-98E5-835D13A27EF0";
paths = (
{
closed = 1;
nodes = (
"476 712 LINE",
"0 12 LINE",
"67 -20 LINE",
"543 684 LINE"
);
}
);
width = 545;
}
);
unicode = 2044;
},
{
glyphname = onehalf;
lastChange = "2019-07-03 20:55:23 +0000";
layers = (
{
layerId = "DA405910-5117-420C-9605-F5A44EE03BDF";
paths = (
{
closed = 1;
nodes = (
"624 712 LINE",
"145 2 LINE",
"193 -20 LINE",
"672 692 LINE"
);
},
{
closed = 1;
nodes = (
"74 636 OFFCURVE",
"117 645 OFFCURVE",
"140 663 CURVE",
"140 387 LINE",
"44 387 LINE",
"44 341 LINE",
"283 341 LINE",
"283 387 LINE",
"185 387 LINE",
"185 750 LINE",
"144 750 LINE",
"129 703 OFFCURVE",
"84 678 OFFCURVE",
"20 679 CURVE",
"20 636 LINE"
);
},
{
closed = 1;
nodes = (
"557 268 LINE",
"562 335 OFFCURVE",
"604 372 OFFCURVE",
"678 372 CURVE SMOOTH",
"754 372 OFFCURVE",
"783 332 OFFCURVE",
"783 302 CURVE SMOOTH",
"783 269 OFFCURVE",
"753 247 OFFCURVE",
"696 192 CURVE SMOOTH",
"540 42 LINE",
"540 0 LINE",
"837 0 LINE",
"837 45 LINE",
"609 45 LINE",
"734 166 LINE SMOOTH",
"788 218 OFFCURVE",
"832 248 OFFCURVE",
"832 302 CURVE SMOOTH",
"832 351 OFFCURVE",
"787 416 OFFCURVE",
"678 416 CURVE SMOOTH",
"583 416 OFFCURVE",
"521 367 OFFCURVE",
"513 283 CURVE"
);
}
);
width = 883;
},
{
layerId = "37B2A381-2B9F-4DE4-98E5-835D13A27EF0";
paths = (
{
closed = 1;
nodes = (
"20 620 LINE",
"68 619 OFFCURVE",
"107 624 OFFCURVE",
"133 637 CURVE",
"133 341 LINE",
"198 341 LINE",
"198 750 LINE",
"140 750 LINE",
"129 703 OFFCURVE",
"86 679 OFFCURVE",
"20 683 CURVE"
);
},
{
closed = 1;
nodes = (
"291 341 LINE",
"291 406 LINE",
"43 406 LINE",
"43 341 LINE"
);
},
{
closed = 1;
nodes = (
"585 249 LINE",
"588 317 OFFCURVE",
"620 351 OFFCURVE",
"689 351 CURVE SMOOTH",
"741 351 OFFCURVE",
"777 327 OFFCURVE",
"777 296 CURVE SMOOTH",
"777 270 OFFCURVE",
"753 252 OFFCURVE",
"698 200 CURVE SMOOTH",
"547 55 LINE",
"547 -1 LINE",
"850 -1 LINE",
"850 64 LINE",
"652 64 LINE",
"750 159 LINE SMOOTH",
"800 208 OFFCURVE",
"846 239 OFFCURVE",
"846 296 CURVE SMOOTH",
"846 364 OFFCURVE",
"779 415 OFFCURVE",
"689 415 CURVE SMOOTH",
"589 415 OFFCURVE",
"525 360 OFFCURVE",
"521 270 CURVE"
);
},
{
closed = 1;
nodes = (
"619 712 LINE",
"143 12 LINE",
"210 -20 LINE",
"686 684 LINE"
);
}
);
width = 896;
}
);
unicode = 00BD;
},
{
glyphname = onequarter;
lastChange = "2019-07-03 20:54:00 +0000";
layers = (
{
layerId = "DA405910-5117-420C-9605-F5A44EE03BDF";
paths = (
{
closed = 1;
nodes = (
"624 712 LINE",
"145 2 LINE",
"193 -20 LINE",
"672 692 LINE"
);
},
{
closed = 1;
nodes = (
"74 636 OFFCURVE",
"117 645 OFFCURVE",
"140 663 CURVE",
"140 387 LINE",
"44 387 LINE",
"44 341 LINE",
"283 341 LINE",
"283 387 LINE",
"185 387 LINE",
"185 750 LINE",
"144 750 LINE",
"129 703 OFFCURVE",
"84 678 OFFCURVE",
"20 679 CURVE",
"20 636 LINE"
);
},
{
closed = 1;
nodes = (
"656 106 LINE",
"656 0 LINE",
"701 0 LINE",
"701 106 LINE",
"806 106 LINE",
"806 150 LINE",
"701 150 LINE",
"701 293 LINE",
"656 293 LINE",
"656 150 LINE",
"489 150 LINE",
"712 409 LINE",
"652 409 LINE",
"427 147 LINE",
"427 106 LINE"
);
}
);
width = 861;
},
{
layerId = "37B2A381-2B9F-4DE4-98E5-835D13A27EF0";
paths = (
{
closed = 1;
nodes = (
"20 620 LINE",
"68 619 OFFCURVE",
"107 624 OFFCURVE",
"133 637 CURVE",
"133 341 LINE",
"198 341 LINE",
"198 750 LINE",
"140 750 LINE",
"129 703 OFFCURVE",
"86 679 OFFCURVE",
"20 683 CURVE"
);
},
{
closed = 1;
nodes = (
"291 341 LINE",
"291 406 LINE",
"43 406 LINE",
"43 341 LINE"
);
},
{
closed = 1;
nodes = (
"613 712 LINE",
"137 12 LINE",
"204 -20 LINE",
"680 684 LINE"
);
},
{
closed = 1;
nodes = (
"645 0 LINE",
"710 0 LINE",
"710 267 LINE",
"645 267 LINE"
);
},
{
closed = 1;
nodes = (
"424 101 LINE",
"805 101 LINE",
"805 164 LINE",
"519 164 LINE",
"729 409 LINE",
"643 409 LINE",
"424 154 LINE"
);
}
);
width = 860;
}
);
unicode = 00BC;
},
{
glyphname = threequarters;
lastChange = "2019-07-03 20:56:12 +0000";
layers = (
{
layerId = "DA405910-5117-420C-9605-F5A44EE03BDF";
paths = (
{
closed = 1;
nodes = (
"665 712 LINE",
"186 2 LINE",
"234 -20 LINE",
"713 692 LINE"
);
},
{
closed = 1;
nodes = (
"697 106 LINE",
"697 0 LINE",
"742 0 LINE",
"742 106 LINE",
"847 106 LINE",
"847 150 LINE",
"742 150 LINE",
"742 293 LINE",
"697 293 LINE",
"697 150 LINE",
"530 150 LINE",
"753 409 LINE",
"693 409 LINE",
"468 147 LINE",
"468 106 LINE"
);
},
{
closed = 1;
nodes = (
"64 379 OFFCURVE",
"128 336 OFFCURVE",
"212 336 CURVE SMOOTH",
"309 336 OFFCURVE",
"379 394 OFFCURVE",
"379 475 CURVE SMOOTH",
"379 542 OFFCURVE",
"329 590 OFFCURVE",
"247 601 CURVE",
"362 709 LINE",
"362 750 LINE",
"79 750 LINE",
"79 705 LINE",
"293 705 LINE",
"183 600 LINE",
"183 563 LINE",
"192 563 OFFCURVE",
"203 563 OFFCURVE",
"212 563 CURVE SMOOTH",
"281 563 OFFCURVE",
"328 527 OFFCURVE",
"328 475 CURVE SMOOTH",
"328 420 OFFCURVE",
"281 381 OFFCURVE",
"212 381 CURVE SMOOTH",
"136 381 OFFCURVE",
"99 430 OFFCURVE",
"85 467 CURVE",
"43 450 LINE"
);
}
);
width = 902;
},
{
layerId = "37B2A381-2B9F-4DE4-98E5-835D13A27EF0";
paths = (
{
closed = 1;
nodes = (
"654 712 LINE",
"178 12 LINE",
"245 -20 LINE",
"721 684 LINE"
);
},
{
closed = 1;
nodes = (
"686 0 LINE",
"751 0 LINE",
"751 267 LINE",
"686 267 LINE"
);
},
{
closed = 1;
nodes = (
"465 101 LINE",
"846 101 LINE",
"846 164 LINE",
"560 164 LINE",
"770 409 LINE",
"684 409 LINE",
"465 154 LINE"
);
},
{
closed = 1;
nodes = (
"61 384 OFFCURVE",
"128 336 OFFCURVE",
"216 336 CURVE SMOOTH",
"314 336 OFFCURVE",
"385 396 OFFCURVE",
"385 479 CURVE SMOOTH",
"385 541 OFFCURVE",
"343 587 OFFCURVE",
"274 605 CURVE",
"369 691 LINE",
"369 750 LINE",
"79 750 LINE",
"79 685 LINE",
"264 685 LINE",
"177 602 LINE",
"177 551 LINE",
"190 551 OFFCURVE",
"203 551 OFFCURVE",
"216 551 CURVE SMOOTH",
"275 551 OFFCURVE",
"314 521 OFFCURVE",
"314 479 CURVE SMOOTH",
"314 433 OFFCURVE",
"274 401 OFFCURVE",
"216 401 CURVE SMOOTH",
"160 401 OFFCURVE",
"118 433 OFFCURVE",
"103 486 CURVE",
"43 462 LINE"
);
}
);
width = 901;
}
);
unicode = 00BE;
},
{
glyphname = oneeighth;
lastChange = "2019-07-03 20:55:59 +0000";
layers = (
{
layerId = "DA405910-5117-420C-9605-F5A44EE03BDF";
paths = (
{
closed = 1;
nodes = (
"782 -5 OFFCURVE",
"847 41 OFFCURVE",
"847 113 CURVE SMOOTH",
"847 150 OFFCURVE",
"821 185 OFFCURVE",
"778 206 CURVE",
"823 229 OFFCURVE",
"853 265 OFFCURVE",
"853 305 CURVE SMOOTH",
"853 380 OFFCURVE",
"789 425 OFFCURVE",
"685 425 CURVE SMOOTH",
"584 425 OFFCURVE",
"520 380 OFFCURVE",
"520 305 CURVE SMOOTH",
"520 264 OFFCURVE",
"549 229 OFFCURVE",
"594 206 CURVE",
"551 185 OFFCURVE",
"526 151 OFFCURVE",
"526 113 CURVE SMOOTH",
"526 39 OFFCURVE",
"587 -5 OFFCURVE",
"685 -5 CURVE SMOOTH"
);
},
{
closed = 1;
nodes = (
"616 34 OFFCURVE",
"570 66 OFFCURVE",
"570 113 CURVE SMOOTH",
"570 159 OFFCURVE",
"614 188 OFFCURVE",
"685 188 CURVE SMOOTH",
"758 188 OFFCURVE",
"802 157 OFFCURVE",
"801 113 CURVE SMOOTH",
"800 66 OFFCURVE",
"753 34 OFFCURVE",
"685 34 CURVE SMOOTH"
);
},
{
closed = 1;
nodes = (
"616 225 OFFCURVE",
"565 260 OFFCURVE",
"565 305 CURVE SMOOTH",
"565 349 OFFCURVE",
"618 385 OFFCURVE",
"685 385 CURVE SMOOTH",
"756 385 OFFCURVE",
"808 349 OFFCURVE",
"805 305 CURVE SMOOTH",
"802 259 OFFCURVE",
"754 225 OFFCURVE",
"685 225 CURVE SMOOTH"
);
},
{
closed = 1;
nodes = (
"629 712 LINE",
"150 2 LINE",
"198 -20 LINE",
"677 692 LINE"
);
},
{
closed = 1;
nodes = (
"79 636 OFFCURVE",
"122 645 OFFCURVE",
"145 663 CURVE",
"145 387 LINE",
"49 387 LINE",
"49 341 LINE",
"288 341 LINE",
"288 387 LINE",
"190 387 LINE",
"190 750 LINE",
"149 750 LINE",
"134 703 OFFCURVE",
"89 678 OFFCURVE",
"25 679 CURVE",
"25 636 LINE"
);
}
);
width = 913;
},
{
layerId = "37B2A381-2B9F-4DE4-98E5-835D13A27EF0";
paths = (
{
closed = 1;
nodes = (
"26 620 LINE",
"74 619 OFFCURVE",
"113 624 OFFCURVE",
"139 637 CURVE",
"139 341 LINE",
"204 341 LINE",
"204 750 LINE",
"146 750 LINE",
"135 703 OFFCURVE",
"92 679 OFFCURVE",
"26 683 CURVE"
);
},
{
closed = 1;
nodes = (
"297 341 LINE",
"297 406 LINE",
"49 406 LINE",
"49 341 LINE"
);
},
{
closed = 1;
nodes = (
"618 712 LINE",
"142 12 LINE",
"209 -20 LINE",
"685 684 LINE"
);
},
{
closed = 1;
nodes = (
"782 -5 OFFCURVE",
"848 44 OFFCURVE",
"848 118 CURVE SMOOTH",
"848 152 OFFCURVE",
"828 184 OFFCURVE",
"794 206 CURVE",
"832 231 OFFCURVE",
"854 265 OFFCURVE",
"854 300 CURVE SMOOTH",
"854 377 OFFCURVE",
"788 425 OFFCURVE",
"683 425 CURVE SMOOTH",
"580 425 OFFCURVE",
"515 377 OFFCURVE",
"515 300 CURVE SMOOTH",
"515 264 OFFCURVE",
"537 231 OFFCURVE",
"574 206 CURVE",
"540 184 OFFCURVE",
"521 153 OFFCURVE",
"521 118 CURVE SMOOTH",
"521 42 OFFCURVE",
"583 -5 OFFCURVE",
"683 -5 CURVE SMOOTH"
);
},
{
closed = 1;
nodes = (
"623 53 OFFCURVE",
"584 80 OFFCURVE",
"584 118 CURVE SMOOTH",
"584 156 OFFCURVE",
"621 179 OFFCURVE",
"683 179 CURVE SMOOTH",
"746 179 OFFCURVE",
"784 155 OFFCURVE",
"784 119 CURVE SMOOTH",
"784 80 OFFCURVE",
"742 53 OFFCURVE",
"683 53 CURVE SMOOTH"
);
},
{
closed = 1;
nodes = (
"624 235 OFFCURVE",
"579 263 OFFCURVE",
"579 300 CURVE SMOOTH",
"579 336 OFFCURVE",
"626 365 OFFCURVE",
"683 365 CURVE SMOOTH",
"743 365 OFFCURVE",
"789 336 OFFCURVE",
"787 301 CURVE SMOOTH",
"785 262 OFFCURVE",
"741 235 OFFCURVE",
"683 235 CURVE SMOOTH"
);
}
);
width = 913;
}
);
unicode = 215B;
},
{
glyphname = threeeighths;
lastChange = "2019-07-03 20:56:20 +0000";
layers = (
{
layerId = "DA405910-5117-420C-9605-F5A44EE03BDF";
paths = (
{
closed = 1;
nodes = (
"647 712 LINE",
"168 2 LINE",
"216 -20 LINE",
"695 692 LINE"
);
},
{
closed = 1;
nodes = (
"46 379 OFFCURVE",
"110 336 OFFCURVE",
"194 336 CURVE SMOOTH",
"291 336 OFFCURVE",
"361 394 OFFCURVE",
"361 475 CURVE SMOOTH",
"361 542 OFFCURVE",
"311 590 OFFCURVE",
"229 601 CURVE",
"344 709 LINE",
"344 750 LINE",
"61 750 LINE",
"61 705 LINE",
"275 705 LINE",
"165 600 LINE",
"165 563 LINE",
"174 563 OFFCURVE",
"185 563 OFFCURVE",
"194 563 CURVE SMOOTH",
"263 563 OFFCURVE",
"310 527 OFFCURVE",
"310 475 CURVE SMOOTH",
"310 420 OFFCURVE",
"263 381 OFFCURVE",
"194 381 CURVE SMOOTH",
"118 381 OFFCURVE",
"81 430 OFFCURVE",
"67 467 CURVE",
"25 450 LINE"
);
},
{
closed = 1;
nodes = (
"800 -5 OFFCURVE",
"865 41 OFFCURVE",
"865 113 CURVE SMOOTH",
"865 150 OFFCURVE",
"839 185 OFFCURVE",
"796 206 CURVE",
"841 229 OFFCURVE",
"871 265 OFFCURVE",
"871 305 CURVE SMOOTH",
"871 380 OFFCURVE",
"807 425 OFFCURVE",
"703 425 CURVE SMOOTH",
"602 425 OFFCURVE",
"538 380 OFFCURVE",
"538 305 CURVE SMOOTH",
"538 264 OFFCURVE",
"567 229 OFFCURVE",
"612 206 CURVE",
"569 185 OFFCURVE",
"544 151 OFFCURVE",
"544 113 CURVE SMOOTH",
"544 39 OFFCURVE",
"605 -5 OFFCURVE",
"703 -5 CURVE SMOOTH"
);
},
{
closed = 1;
nodes = (
"634 34 OFFCURVE",
"588 66 OFFCURVE",
"588 113 CURVE SMOOTH",
"588 159 OFFCURVE",
"632 188 OFFCURVE",
"703 188 CURVE SMOOTH",
"775 188 OFFCURVE",
"820 157 OFFCURVE",
"819 113 CURVE SMOOTH",
"818 66 OFFCURVE",
"771 34 OFFCURVE",
"703 34 CURVE SMOOTH"
);
},
{
closed = 1;
nodes = (
"634 225 OFFCURVE",
"583 260 OFFCURVE",
"583 305 CURVE SMOOTH",
"583 349 OFFCURVE",
"636 385 OFFCURVE",
"703 385 CURVE SMOOTH",
"774 385 OFFCURVE",
"826 349 OFFCURVE",
"823 305 CURVE SMOOTH",
"820 259 OFFCURVE",
"772 225 OFFCURVE",
"703 225 CURVE SMOOTH"
);
}
);
width = 922;
},
{
layerId = "37B2A381-2B9F-4DE4-98E5-835D13A27EF0";
paths = (
{
closed = 1;
nodes = (
"636 712 LINE",
"160 12 LINE",
"227 -20 LINE",
"703 684 LINE"
);
},
{
closed = 1;
nodes = (
"800 -5 OFFCURVE",
"866 44 OFFCURVE",
"866 118 CURVE SMOOTH",
"866 152 OFFCURVE",
"846 184 OFFCURVE",
"812 206 CURVE",
"850 231 OFFCURVE",
"872 265 OFFCURVE",
"872 300 CURVE SMOOTH",
"872 377 OFFCURVE",
"806 425 OFFCURVE",
"701 425 CURVE SMOOTH",
"598 425 OFFCURVE",
"533 377 OFFCURVE",
"533 300 CURVE SMOOTH",
"533 264 OFFCURVE",
"555 231 OFFCURVE",
"592 206 CURVE",
"558 184 OFFCURVE",
"539 153 OFFCURVE",
"539 118 CURVE SMOOTH",
"539 42 OFFCURVE",
"601 -5 OFFCURVE",
"701 -5 CURVE SMOOTH"
);
},
{
closed = 1;
nodes = (
"641 53 OFFCURVE",
"602 80 OFFCURVE",
"602 118 CURVE SMOOTH",
"602 156 OFFCURVE",
"639 179 OFFCURVE",
"701 179 CURVE SMOOTH",
"764 179 OFFCURVE",
"802 155 OFFCURVE",
"802 119 CURVE SMOOTH",
"802 80 OFFCURVE",
"760 53 OFFCURVE",
"701 53 CURVE SMOOTH"
);
},
{
closed = 1;
nodes = (
"642 235 OFFCURVE",
"597 263 OFFCURVE",
"597 300 CURVE SMOOTH",
"597 336 OFFCURVE",
"644 365 OFFCURVE",
"701 365 CURVE SMOOTH",
"761 365 OFFCURVE",
"807 336 OFFCURVE",
"805 301 CURVE SMOOTH",
"803 262 OFFCURVE",
"759 235 OFFCURVE",
"701 235 CURVE SMOOTH"
);
},
{
closed = 1;
nodes = (
"43 384 OFFCURVE",
"110 336 OFFCURVE",
"198 336 CURVE SMOOTH",
"296 336 OFFCURVE",
"367 396 OFFCURVE",
"367 479 CURVE SMOOTH",
"367 541 OFFCURVE",
"325 587 OFFCURVE",
"256 605 CURVE",
"351 691 LINE",
"351 750 LINE",
"61 750 LINE",
"61 685 LINE",
"246 685 LINE",
"159 602 LINE",
"159 551 LINE",
"172 551 OFFCURVE",
"185 551 OFFCURVE",
"198 551 CURVE SMOOTH",
"257 551 OFFCURVE",
"296 521 OFFCURVE",
"296 479 CURVE SMOOTH",
"296 433 OFFCURVE",
"256 401 OFFCURVE",
"198 401 CURVE SMOOTH",
"142 401 OFFCURVE",
"100 433 OFFCURVE",
"85 486 CURVE",
"25 462 LINE"
);
}
);
width = 922;
}
);
unicode = 215C;
},
{
glyphname = fiveeighths;
lastChange = "2019-07-03 20:56:59 +0000";
layers = (
{
layerId = "DA405910-5117-420C-9605-F5A44EE03BDF";
paths = (
{
closed = 1;
nodes = (
"630 712 LINE",
"151 2 LINE",
"199 -20 LINE",
"678 692 LINE"
);
},
{
closed = 1;
nodes = (
"783 -5 OFFCURVE",
"848 41 OFFCURVE",
"848 113 CURVE SMOOTH",
"848 150 OFFCURVE",
"822 185 OFFCURVE",
"779 206 CURVE",
"824 229 OFFCURVE",
"854 265 OFFCURVE",
"854 305 CURVE SMOOTH",
"854 380 OFFCURVE",
"790 425 OFFCURVE",
"686 425 CURVE SMOOTH",
"585 425 OFFCURVE",
"521 380 OFFCURVE",
"521 305 CURVE SMOOTH",
"521 264 OFFCURVE",
"550 229 OFFCURVE",
"595 206 CURVE",
"552 185 OFFCURVE",
"527 151 OFFCURVE",
"527 113 CURVE SMOOTH",
"527 39 OFFCURVE",
"588 -5 OFFCURVE",
"686 -5 CURVE SMOOTH"
);
},
{
closed = 1;
nodes = (
"617 34 OFFCURVE",
"571 66 OFFCURVE",
"571 113 CURVE SMOOTH",
"571 159 OFFCURVE",
"615 188 OFFCURVE",
"686 188 CURVE SMOOTH",
"758 188 OFFCURVE",
"803 157 OFFCURVE",
"802 113 CURVE SMOOTH",
"801 66 OFFCURVE",
"754 34 OFFCURVE",
"686 34 CURVE SMOOTH"
);
},
{
closed = 1;
nodes = (
"617 225 OFFCURVE",
"566 260 OFFCURVE",
"566 305 CURVE SMOOTH",
"566 349 OFFCURVE",
"619 385 OFFCURVE",
"686 385 CURVE SMOOTH",
"757 385 OFFCURVE",
"809 349 OFFCURVE",
"806 305 CURVE SMOOTH",
"803 259 OFFCURVE",
"755 225 OFFCURVE",
"686 225 CURVE SMOOTH"
);
},
{
closed = 1;
nodes = (
"286 336 OFFCURVE",
"354 390 OFFCURVE",
"354 470 CURVE SMOOTH",
"354 559 OFFCURVE",
"290 612 OFFCURVE",
"189 612 CURVE SMOOTH",
"152 612 OFFCURVE",
"112 599 OFFCURVE",
"90 585 CURVE",
"90 706 LINE",
"336 705 LINE",
"336 750 LINE",
"46 750 LINE",
"46 532 LINE",
"86 532 LINE",
"110 555 OFFCURVE",
"144 567 OFFCURVE",
"189 567 CURVE SMOOTH",
"261 567 OFFCURVE",
"303 529 OFFCURVE",
"303 470 CURVE SMOOTH",
"303 417 OFFCURVE",
"257 380 OFFCURVE",
"189 381 CURVE SMOOTH",
"131 382 OFFCURVE",
"89 411 OFFCURVE",
"70 470 CURVE",
"25 454 LINE",
"46 379 OFFCURVE",
"107 336 OFFCURVE",
"189 336 CURVE SMOOTH"
);
}
);
width = 909;
},
{
layerId = "37B2A381-2B9F-4DE4-98E5-835D13A27EF0";
paths = (
{
closed = 1;
nodes = (
"619 712 LINE",
"143 12 LINE",
"210 -20 LINE",
"686 684 LINE"
);
},
{
closed = 1;
nodes = (
"783 -5 OFFCURVE",
"849 44 OFFCURVE",
"849 118 CURVE SMOOTH",
"849 152 OFFCURVE",
"829 184 OFFCURVE",
"795 206 CURVE",
"833 231 OFFCURVE",
"855 265 OFFCURVE",
"855 300 CURVE SMOOTH",
"855 377 OFFCURVE",
"789 425 OFFCURVE",
"684 425 CURVE SMOOTH",
"581 425 OFFCURVE",
"516 377 OFFCURVE",
"516 300 CURVE SMOOTH",
"516 264 OFFCURVE",
"538 231 OFFCURVE",
"575 206 CURVE",
"541 184 OFFCURVE",
"522 153 OFFCURVE",
"522 118 CURVE SMOOTH",
"522 42 OFFCURVE",
"584 -5 OFFCURVE",
"684 -5 CURVE SMOOTH"
);
},
{
closed = 1;
nodes = (
"624 53 OFFCURVE",
"585 80 OFFCURVE",
"585 118 CURVE SMOOTH",
"585 156 OFFCURVE",
"622 179 OFFCURVE",
"684 179 CURVE SMOOTH",
"747 179 OFFCURVE",
"785 155 OFFCURVE",
"785 119 CURVE SMOOTH",
"785 80 OFFCURVE",
"743 53 OFFCURVE",
"684 53 CURVE SMOOTH"
);
},
{
closed = 1;
nodes = (
"625 235 OFFCURVE",
"580 263 OFFCURVE",
"580 300 CURVE SMOOTH",
"580 336 OFFCURVE",
"627 365 OFFCURVE",
"684 365 CURVE SMOOTH",
"744 365 OFFCURVE",
"790 336 OFFCURVE",
"788 301 CURVE SMOOTH",
"786 262 OFFCURVE",
"742 235 OFFCURVE",
"684 235 CURVE SMOOTH"
);
},
{
closed = 1;
nodes = (
"46 381 OFFCURVE",
"109 336 OFFCURVE",
"193 336 CURVE SMOOTH",
"292 336 OFFCURVE",
"360 392 OFFCURVE",
"360 474 CURVE SMOOTH",
"360 564 OFFCURVE",
"296 620 OFFCURVE",
"193 620 CURVE SMOOTH",
"166 620 OFFCURVE",
"135 613 OFFCURVE",
"111 602 CURVE",
"111 686 LINE",
"343 685 LINE",
"343 750 LINE",
"46 750 LINE",
"46 521 LINE",
"100 521 LINE",
"121 543 OFFCURVE",
"152 554 OFFCURVE",
"193 554 CURVE SMOOTH",
"254 554 OFFCURVE",
"289 524 OFFCURVE",
"289 474 CURVE SMOOTH",
"289 430 OFFCURVE",
"251 400 OFFCURVE",
"193 401 CURVE SMOOTH",
"142 402 OFFCURVE",
"108 427 OFFCURVE",
"91 477 CURVE",
"27 453 LINE"
);
}
);
width = 909;
}
);
unicode = 215D;
},
{
glyphname = seveneighths;
lastChange = "2019-07-03 20:57:56 +0000";
layers = (
{
layerId = "DA405910-5117-420C-9605-F5A44EE03BDF";
paths = (
{
closed = 1;
nodes = (
"550 712 LINE",
"71 2 LINE",
"119 -20 LINE",
"598 692 LINE"
);
},
{
closed = 1;
nodes = (
"727 -5 OFFCURVE",
"792 41 OFFCURVE",
"792 113 CURVE SMOOTH",
"792 150 OFFCURVE",
"766 185 OFFCURVE",
"723 206 CURVE",
"768 229 OFFCURVE",
"798 265 OFFCURVE",
"798 305 CURVE SMOOTH",
"798 380 OFFCURVE",
"734 425 OFFCURVE",
"630 425 CURVE SMOOTH",
"529 425 OFFCURVE",
"465 380 OFFCURVE",
"465 305 CURVE SMOOTH",
"465 264 OFFCURVE",
"494 229 OFFCURVE",
"539 206 CURVE",
"496 185 OFFCURVE",
"471 151 OFFCURVE",
"471 113 CURVE SMOOTH",
"471 39 OFFCURVE",
"532 -5 OFFCURVE",
"630 -5 CURVE SMOOTH"
);
},
{
closed = 1;
nodes = (
"561 34 OFFCURVE",
"515 66 OFFCURVE",
"515 113 CURVE SMOOTH",
"515 159 OFFCURVE",
"559 188 OFFCURVE",
"630 188 CURVE SMOOTH",
"702 188 OFFCURVE",
"747 157 OFFCURVE",
"746 113 CURVE SMOOTH",
"745 66 OFFCURVE",
"698 34 OFFCURVE",
"630 34 CURVE SMOOTH"
);
},
{
closed = 1;
nodes = (
"561 225 OFFCURVE",
"510 260 OFFCURVE",
"510 305 CURVE SMOOTH",
"510 349 OFFCURVE",
"563 385 OFFCURVE",
"630 385 CURVE SMOOTH",
"701 385 OFFCURVE",
"753 349 OFFCURVE",
"750 305 CURVE SMOOTH",
"747 259 OFFCURVE",
"699 225 OFFCURVE",
"630 225 CURVE SMOOTH"
);
},
{
closed = 1;
nodes = (
"293 705 LINE",
"54 348 LINE",
"110 348 LINE",
"353 705 LINE",
"353 750 LINE",
"26 750 LINE",
"26 705 LINE"
);
}
);
width = 829;
},
{
layerId = "37B2A381-2B9F-4DE4-98E5-835D13A27EF0";
paths = (
{
closed = 1;
nodes = (
"539 712 LINE",
"63 12 LINE",
"130 -20 LINE",
"606 684 LINE"
);
},
{
closed = 1;
nodes = (
"726 -5 OFFCURVE",
"792 44 OFFCURVE",
"792 118 CURVE SMOOTH",
"792 152 OFFCURVE",
"772 184 OFFCURVE",
"738 206 CURVE",
"776 231 OFFCURVE",
"798 265 OFFCURVE",
"798 300 CURVE SMOOTH",
"798 377 OFFCURVE",
"732 425 OFFCURVE",
"627 425 CURVE SMOOTH",
"524 425 OFFCURVE",
"459 377 OFFCURVE",
"459 300 CURVE SMOOTH",
"459 264 OFFCURVE",
"481 231 OFFCURVE",
"518 206 CURVE",
"484 184 OFFCURVE",
"465 153 OFFCURVE",
"465 118 CURVE SMOOTH",
"465 42 OFFCURVE",
"527 -5 OFFCURVE",
"627 -5 CURVE SMOOTH"
);
},
{
closed = 1;
nodes = (
"567 53 OFFCURVE",
"528 80 OFFCURVE",
"528 118 CURVE SMOOTH",
"528 156 OFFCURVE",
"565 179 OFFCURVE",
"627 179 CURVE SMOOTH",
"690 179 OFFCURVE",
"728 155 OFFCURVE",
"728 119 CURVE SMOOTH",
"728 80 OFFCURVE",
"686 53 OFFCURVE",
"627 53 CURVE SMOOTH"
);
},
{
closed = 1;
nodes = (
"568 235 OFFCURVE",
"523 263 OFFCURVE",
"523 300 CURVE SMOOTH",
"523 336 OFFCURVE",
"570 365 OFFCURVE",
"627 365 CURVE SMOOTH",
"687 365 OFFCURVE",
"733 336 OFFCURVE",
"731 301 CURVE SMOOTH",
"729 262 OFFCURVE",
"685 235 OFFCURVE",
"627 235 CURVE SMOOTH"
);
},
{
closed = 1;
nodes = (
"276 685 LINE",
"43 341 LINE",
"124 341 LINE",
"363 685 LINE",
"363 750 LINE",
"26 750 LINE",
"26 685 LINE"
);
}
);
width = 829;
}
);
unicode = 215E;
},
{
glyphname = period;
lastChange = "2019-07-03 19:56:41 +0000";
layers = (
{
layerId = "DA405910-5117-420C-9605-F5A44EE03BDF";
paths = (
{
closed = 1;
nodes = (
"179 -5 OFFCURVE",
"205 19 OFFCURVE",
"205 49 CURVE SMOOTH",
"205 79 OFFCURVE",
"179 103 OFFCURVE",
"150 103 CURVE SMOOTH",
"121 103 OFFCURVE",
"95 79 OFFCURVE",
"95 49 CURVE SMOOTH",
"95 19 OFFCURVE",
"121 -5 OFFCURVE",
"150 -5 CURVE SMOOTH"
);
}
);
width = 300;
},
{
layerId = "37B2A381-2B9F-4DE4-98E5-835D13A27EF0";
paths = (
{
closed = 1;
nodes = (
"185 -5 OFFCURVE",
"215 24 OFFCURVE",
"215 59 CURVE SMOOTH",
"215 94 OFFCURVE",
"185 123 OFFCURVE",
"150 123 CURVE SMOOTH",
"115 123 OFFCURVE",
"85 94 OFFCURVE",
"85 59 CURVE SMOOTH",
"85 24 OFFCURVE",
"115 -5 OFFCURVE",
"150 -5 CURVE SMOOTH"
);
}
);
width = 300;
}
);
unicode = 002E;
},
{
glyphname = comma;
lastChange = "2019-07-17 16:56:01 +0000";
layers = (
{
background = {
paths = (
{
closed = 1;
nodes = (
"179 -5 OFFCURVE",
"205 19 OFFCURVE",
"205 49 CURVE SMOOTH",
"205 79 OFFCURVE",
"179 103 OFFCURVE",
"150 103 CURVE SMOOTH",
"121 103 OFFCURVE",
"95 79 OFFCURVE",
"95 49 CURVE SMOOTH",
"95 19 OFFCURVE",
"121 -5 OFFCURVE",
"150 -5 CURVE SMOOTH"
);
}
);
};
layerId = "DA405910-5117-420C-9605-F5A44EE03BDF";
paths = (
{
closed = 1;
nodes = (
"143 8 OFFCURVE",
"95 3 OFFCURVE",
"95 50 CURVE SMOOTH",
"95 78 OFFCURVE",
"117 103 OFFCURVE",
"150 103 CURVE SMOOTH",
"184 103 OFFCURVE",
"206 76 OFFCURVE",
"206 34 CURVE SMOOTH",
"206 -15 OFFCURVE",
"179 -70 OFFCURVE",
"123 -103 CURVE",
"96 -93 LINE",
"128 -70 OFFCURVE",
"143 -21 OFFCURVE",
"143 -7 CURVE SMOOTH"
);
}
);
width = 301;
},
{
layerId = "37B2A381-2B9F-4DE4-98E5-835D13A27EF0";
paths = (
{
closed = 1;
nodes = (
"180 -73 OFFCURVE",
"212 -17 OFFCURVE",
"212 44 CURVE SMOOTH",
"212 94 OFFCURVE",
"182 123 OFFCURVE",
"150 123 CURVE SMOOTH",
"114 123 OFFCURVE",
"89 95 OFFCURVE",
"89 60 CURVE SMOOTH",
"89 16 OFFCURVE",
"132 10 OFFCURVE",
"134 0 CURVE SMOOTH",
"137 -14 OFFCURVE",
"125 -57 OFFCURVE",
"92 -92 CURVE",
"124 -104 LINE"
);
}
);
width = 301;
}
);
unicode = 002C;
},
{
glyphname = colon;
lastChange = "2019-07-03 20:02:53 +0000";
layers = (
{
layerId = "DA405910-5117-420C-9605-F5A44EE03BDF";
paths = (
{
closed = 1;
nodes = (
"179 -5 OFFCURVE",
"205 19 OFFCURVE",
"205 49 CURVE SMOOTH",
"205 79 OFFCURVE",
"179 103 OFFCURVE",
"150 103 CURVE SMOOTH",
"121 103 OFFCURVE",
"95 79 OFFCURVE",
"95 49 CURVE SMOOTH",
"95 19 OFFCURVE",
"121 -5 OFFCURVE",
"150 -5 CURVE SMOOTH"
);
},
{
closed = 1;
nodes = (
"179 318 OFFCURVE",
"205 342 OFFCURVE",
"205 372 CURVE SMOOTH",
"205 402 OFFCURVE",
"179 426 OFFCURVE",
"150 426 CURVE SMOOTH",
"121 426 OFFCURVE",
"95 402 OFFCURVE",
"95 372 CURVE SMOOTH",
"95 342 OFFCURVE",
"121 318 OFFCURVE",
"150 318 CURVE SMOOTH"
);
}
);
width = 300;
},
{
layerId = "37B2A381-2B9F-4DE4-98E5-835D13A27EF0";
paths = (
{
closed = 1;
nodes = (
"185 -5 OFFCURVE",
"215 24 OFFCURVE",
"215 59 CURVE SMOOTH",
"215 94 OFFCURVE",
"185 123 OFFCURVE",
"150 123 CURVE SMOOTH",
"115 123 OFFCURVE",
"85 94 OFFCURVE",
"85 59 CURVE SMOOTH",
"85 24 OFFCURVE",
"115 -5 OFFCURVE",
"150 -5 CURVE SMOOTH"
);
},
{
closed = 1;
nodes = (
"185 298 OFFCURVE",
"215 327 OFFCURVE",
"215 362 CURVE SMOOTH",
"215 397 OFFCURVE",
"185 426 OFFCURVE",
"150 426 CURVE SMOOTH",
"115 426 OFFCURVE",
"85 397 OFFCURVE",
"85 362 CURVE SMOOTH",
"85 327 OFFCURVE",
"115 298 OFFCURVE",
"150 298 CURVE SMOOTH"
);
}
);
width = 300;
}
);
unicode = 003A;
},
{
glyphname = semicolon;
lastChange = "2019-07-05 14:56:50 +0000";
layers = (
{
layerId = "DA405910-5117-420C-9605-F5A44EE03BDF";
paths = (
{
closed = 1;
nodes = (
"183 318 OFFCURVE",
"209 342 OFFCURVE",
"209 372 CURVE SMOOTH",
"209 402 OFFCURVE",
"183 426 OFFCURVE",
"154 426 CURVE SMOOTH",
"125 426 OFFCURVE",
"99 402 OFFCURVE",
"99 372 CURVE SMOOTH",
"99 342 OFFCURVE",
"125 318 OFFCURVE",
"154 318 CURVE SMOOTH"
);
},
{
closed = 1;
nodes = (
"147 8 OFFCURVE",
"99 3 OFFCURVE",
"99 50 CURVE SMOOTH",
"99 78 OFFCURVE",
"121 103 OFFCURVE",
"154 103 CURVE SMOOTH",
"188 103 OFFCURVE",
"210 76 OFFCURVE",
"210 34 CURVE SMOOTH",
"210 -15 OFFCURVE",
"183 -70 OFFCURVE",
"127 -103 CURVE",
"100 -93 LINE",
"132 -70 OFFCURVE",
"147 -21 OFFCURVE",
"147 -7 CURVE SMOOTH"
);
}
);
width = 294;
},
{
layerId = "37B2A381-2B9F-4DE4-98E5-835D13A27EF0";
paths = (
{
closed = 1;
nodes = (
"188 298 OFFCURVE",
"218 327 OFFCURVE",
"218 362 CURVE SMOOTH",
"218 397 OFFCURVE",
"188 426 OFFCURVE",
"153 426 CURVE SMOOTH",
"118 426 OFFCURVE",
"88 397 OFFCURVE",
"88 362 CURVE SMOOTH",
"88 327 OFFCURVE",
"118 298 OFFCURVE",
"153 298 CURVE SMOOTH"
);
},
{
closed = 1;
nodes = (
"183 -73 OFFCURVE",
"215 -17 OFFCURVE",
"215 44 CURVE SMOOTH",
"215 94 OFFCURVE",
"185 123 OFFCURVE",
"153 123 CURVE SMOOTH",
"117 123 OFFCURVE",
"92 95 OFFCURVE",
"92 60 CURVE SMOOTH",
"92 16 OFFCURVE",
"135 10 OFFCURVE",
"137 0 CURVE SMOOTH",
"140 -14 OFFCURVE",
"128 -57 OFFCURVE",
"95 -92 CURVE",
"127 -104 LINE"
);
}
);
width = 294;
}
);
unicode = 003B;
},
{
glyphname = exclam;
lastChange = "2019-07-03 20:05:35 +0000";
layers = (
{
layerId = "DA405910-5117-420C-9605-F5A44EE03BDF";
paths = (
{
closed = 1;
nodes = (
"192 693 LINE",
"106 693 LINE",
"124 211 LINE",
"174 211 LINE"
);
},
{
closed = 1;
nodes = (
"176 -5 OFFCURVE",
"200 17 OFFCURVE",
"200 45 CURVE SMOOTH",
"200 73 OFFCURVE",
"176 95 OFFCURVE",
"149 95 CURVE SMOOTH",
"122 95 OFFCURVE",
"98 73 OFFCURVE",
"98 45 CURVE SMOOTH",
"98 17 OFFCURVE",
"122 -5 OFFCURVE",
"149 -5 CURVE SMOOTH"
);
}
);
width = 296;
},
{
layerId = "37B2A381-2B9F-4DE4-98E5-835D13A27EF0";
paths = (
{
closed = 1;
nodes = (
"202 693 LINE",
"96 693 LINE",
"114 211 LINE",
"184 211 LINE"
);
},
{
closed = 1;
nodes = (
"182 -15 OFFCURVE",
"210 12 OFFCURVE",
"210 45 CURVE SMOOTH",
"210 78 OFFCURVE",
"182 105 OFFCURVE",
"149 105 CURVE SMOOTH",
"116 105 OFFCURVE",
"88 78 OFFCURVE",
"88 45 CURVE SMOOTH",
"88 12 OFFCURVE",
"116 -15 OFFCURVE",
"149 -15 CURVE SMOOTH"
);
}
);
width = 296;
}
);
unicode = 0021;
},
{
glyphname = exclamdown;
lastChange = "2019-07-03 20:06:43 +0000";
layers = (
{
layerId = "DA405910-5117-420C-9605-F5A44EE03BDF";
paths = (
{
closed = 1;
nodes = (
"124 482 LINE",
"106 0 LINE",
"192 0 LINE",
"174 482 LINE"
);
},
{
closed = 1;
nodes = (
"122 698 OFFCURVE",
"98 676 OFFCURVE",
"98 648 CURVE SMOOTH",
"98 620 OFFCURVE",
"122 598 OFFCURVE",
"149 598 CURVE SMOOTH",
"176 598 OFFCURVE",
"200 620 OFFCURVE",
"200 648 CURVE SMOOTH",
"200 676 OFFCURVE",
"176 698 OFFCURVE",
"149 698 CURVE SMOOTH"
);
}
);
width = 296;
},
{
layerId = "37B2A381-2B9F-4DE4-98E5-835D13A27EF0";
paths = (
{
closed = 1;
nodes = (
"114 482 LINE",
"96 0 LINE",
"202 0 LINE",
"184 482 LINE"
);
},
{
closed = 1;
nodes = (
"116 698 OFFCURVE",
"88 671 OFFCURVE",
"88 638 CURVE SMOOTH",
"88 605 OFFCURVE",
"116 578 OFFCURVE",
"149 578 CURVE SMOOTH",
"182 578 OFFCURVE",
"210 605 OFFCURVE",
"210 638 CURVE SMOOTH",
"210 671 OFFCURVE",
"182 698 OFFCURVE",
"149 698 CURVE SMOOTH"
);
}
);
width = 296;
}
);
unicode = 00A1;
},
{
glyphname = question;
lastChange = "2019-07-03 20:23:31 +0000";
layers = (
{
layerId = "DA405910-5117-420C-9605-F5A44EE03BDF";
paths = (
{
closed = 1;
nodes = (
"98 433 LINE",
"71 582 OFFCURVE",
"158 648 OFFCURVE",
"273 648 CURVE SMOOTH",
"379 648 OFFCURVE",
"444 594 OFFCURVE",
"444 510 CURVE SMOOTH",
"444 385 OFFCURVE",
"233 349 OFFCURVE",
"233 200 CURVE",
"305 200 LINE",
"305 305 OFFCURVE",
"516 360 OFFCURVE",
"516 510 CURVE SMOOTH",
"516 634 OFFCURVE",
"419 712 OFFCURVE",
"273 712 CURVE SMOOTH",
"92 712 OFFCURVE",
"2 594 OFFCURVE",
"37 450 CURVE"
);
},
{
closed = 1;
nodes = (
"219 2 OFFCURVE",
"243 -20 OFFCURVE",
"270 -20 CURVE SMOOTH",
"297 -20 OFFCURVE",
"321 2 OFFCURVE",
"321 30 CURVE SMOOTH",
"321 58 OFFCURVE",
"297 80 OFFCURVE",
"270 80 CURVE SMOOTH",
"243 80 OFFCURVE",
"219 58 OFFCURVE",
"219 30 CURVE SMOOTH"
);
}
);
width = 584;
},
{
layerId = "37B2A381-2B9F-4DE4-98E5-835D13A27EF0";
paths = (
{
closed = 1;
nodes = (
"122 418 LINE",
"91 549 OFFCURVE",
"150 628 OFFCURVE",
"274 628 CURVE SMOOTH",
"368 628 OFFCURVE",
"426 582 OFFCURVE",
"426 508 CURVE SMOOTH",
"426 394 OFFCURVE",
"214 361 OFFCURVE",
"225 200 CURVE",
"317 200 LINE",
"317 307 OFFCURVE",
"518 351 OFFCURVE",
"518 508 CURVE SMOOTH",
"518 631 OFFCURVE",
"421 712 OFFCURVE",
"274 712 CURVE SMOOTH",
"99 712 OFFCURVE",
"-2 596 OFFCURVE",
"39 441 CURVE"
);
},
{
closed = 1;
nodes = (
"211 7 OFFCURVE",
"239 -20 OFFCURVE",
"272 -20 CURVE SMOOTH",
"305 -20 OFFCURVE",
"333 7 OFFCURVE",
"333 40 CURVE SMOOTH",
"333 73 OFFCURVE",
"305 100 OFFCURVE",
"272 100 CURVE SMOOTH",
"239 100 OFFCURVE",
"211 73 OFFCURVE",
"211 40 CURVE SMOOTH"
);
}
);
width = 586;
}
);
unicode = 003F;
},
{
glyphname = questiondown;
lastChange = "2019-07-03 20:23:58 +0000";
layers = (
{
layerId = "DA405910-5117-420C-9605-F5A44EE03BDF";
paths = (
{
closed = 1;
nodes = (
"486 57 LINE",
"513 -92 OFFCURVE",
"426 -158 OFFCURVE",
"311 -158 CURVE SMOOTH",
"205 -158 OFFCURVE",
"140 -104 OFFCURVE",
"140 -20 CURVE SMOOTH",
"140 105 OFFCURVE",
"351 141 OFFCURVE",
"351 290 CURVE",
"279 290 LINE",
"279 185 OFFCURVE",
"68 130 OFFCURVE",
"68 -20 CURVE SMOOTH",
"68 -144 OFFCURVE",
"165 -222 OFFCURVE",
"311 -222 CURVE SMOOTH",
"492 -222 OFFCURVE",
"582 -104 OFFCURVE",
"547 40 CURVE"
);
},
{
closed = 1;
nodes = (
"365 488 OFFCURVE",
"341 510 OFFCURVE",
"314 510 CURVE SMOOTH",
"287 510 OFFCURVE",
"263 488 OFFCURVE",
"263 460 CURVE SMOOTH",
"263 432 OFFCURVE",
"287 410 OFFCURVE",
"314 410 CURVE SMOOTH",
"341 410 OFFCURVE",
"365 432 OFFCURVE",
"365 460 CURVE SMOOTH"
);
}
);
width = 584;
},
{
layerId = "37B2A381-2B9F-4DE4-98E5-835D13A27EF0";
paths = (
{
closed = 1;
nodes = (
"464 72 LINE",
"495 -59 OFFCURVE",
"436 -138 OFFCURVE",
"312 -138 CURVE SMOOTH",
"218 -138 OFFCURVE",
"160 -92 OFFCURVE",
"160 -18 CURVE SMOOTH",
"160 96 OFFCURVE",
"372 129 OFFCURVE",
"361 290 CURVE",
"269 290 LINE",
"269 183 OFFCURVE",
"68 139 OFFCURVE",
"68 -18 CURVE SMOOTH",
"68 -141 OFFCURVE",
"165 -222 OFFCURVE",
"312 -222 CURVE SMOOTH",
"487 -222 OFFCURVE",
"588 -106 OFFCURVE",
"547 49 CURVE"
);
},
{
closed = 1;
nodes = (
"375 483 OFFCURVE",
"347 510 OFFCURVE",
"314 510 CURVE SMOOTH",
"281 510 OFFCURVE",
"253 483 OFFCURVE",
"253 450 CURVE SMOOTH",
"253 417 OFFCURVE",
"281 390 OFFCURVE",
"314 390 CURVE SMOOTH",
"347 390 OFFCURVE",
"375 417 OFFCURVE",
"375 450 CURVE SMOOTH"
);
}
);
width = 586;
}
);
unicode = 00BF;
},
{
glyphname = periodcentered;
lastChange = "2019-07-03 20:04:14 +0000";
layers = (
{
layerId = "DA405910-5117-420C-9605-F5A44EE03BDF";
paths = (
{
closed = 1;
nodes = (
"184 300 OFFCURVE",
"210 324 OFFCURVE",
"210 354 CURVE SMOOTH",
"210 384 OFFCURVE",
"184 408 OFFCURVE",
"155 408 CURVE SMOOTH",
"126 408 OFFCURVE",
"100 384 OFFCURVE",
"100 354 CURVE SMOOTH",
"100 324 OFFCURVE",
"126 300 OFFCURVE",
"155 300 CURVE SMOOTH"
);
}
);
width = 310;
},
{
layerId = "37B2A381-2B9F-4DE4-98E5-835D13A27EF0";
paths = (
{
closed = 1;
nodes = (
"190 290 OFFCURVE",
"220 319 OFFCURVE",
"220 354 CURVE SMOOTH",
"220 389 OFFCURVE",
"190 418 OFFCURVE",
"155 418 CURVE SMOOTH",
"120 418 OFFCURVE",
"90 389 OFFCURVE",
"90 354 CURVE SMOOTH",
"90 319 OFFCURVE",
"120 290 OFFCURVE",
"155 290 CURVE SMOOTH"
);
}
);
width = 310;
}
);
unicode = 00B7;
},
{
glyphname = bullet;
lastChange = "2019-07-03 20:04:30 +0000";
layers = (
{
layerId = "DA405910-5117-420C-9605-F5A44EE03BDF";
paths = (
{
closed = 1;
nodes = (
"466 97 OFFCURVE",
"579 209 OFFCURVE",
"579 348 CURVE SMOOTH",
"579 484 OFFCURVE",
"466 596 OFFCURVE",
"329 596 CURVE SMOOTH",
"192 596 OFFCURVE",
"79 484 OFFCURVE",
"79 348 CURVE SMOOTH",
"79 209 OFFCURVE",
"192 97 OFFCURVE",
"329 97 CURVE SMOOTH"
);
}
);
width = 654;
},
{
layerId = "37B2A381-2B9F-4DE4-98E5-835D13A27EF0";
paths = (
{
closed = 1;
nodes = (
"473 85 OFFCURVE",
"591 203 OFFCURVE",
"591 348 CURVE SMOOTH",
"591 491 OFFCURVE",
"473 608 OFFCURVE",
"329 608 CURVE SMOOTH",
"185 608 OFFCURVE",
"67 491 OFFCURVE",
"67 348 CURVE SMOOTH",
"67 203 OFFCURVE",
"185 85 OFFCURVE",
"329 85 CURVE SMOOTH"
);
}
);
width = 654;
}
);
unicode = 2022;
},
{
glyphname = asterisk;
lastChange = "2019-07-03 20:10:00 +0000";
layers = (
{
layerId = "DA405910-5117-420C-9605-F5A44EE03BDF";
paths = (
{
closed = 1;
nodes = (
"81 290 LINE",
"267 411 LINE",
"253 190 LINE",
"325 190 LINE",
"313 411 LINE",
"498 289 LINE",
"533 351 LINE",
"336 451 LINE",
"534 550 LINE",
"498 612 LINE",
"313 491 LINE",
"327 712 LINE",
"255 712 LINE",
"267 491 LINE",
"81 613 LINE",
"46 551 LINE",
"244 451 LINE",
"45 352 LINE"
);
}
);
width = 579;
},
{
layerId = "37B2A381-2B9F-4DE4-98E5-835D13A27EF0";
paths = (
{
closed = 1;
nodes = (
"86 281 LINE",
"255 391 LINE",
"242 190 LINE",
"336 190 LINE",
"325 391 LINE",
"493 280 LINE",
"538 360 LINE",
"359 451 LINE",
"539 541 LINE",
"493 621 LINE",
"325 511 LINE",
"338 712 LINE",
"244 712 LINE",
"255 511 LINE",
"86 622 LINE",
"41 542 LINE",
"220 451 LINE",
"40 361 LINE"
);
}
);
width = 579;
}
);
unicode = 002A;
},
{
glyphname = numbersign;
lastChange = "2019-07-03 20:10:16 +0000";
layers = (
{
layerId = "DA405910-5117-420C-9605-F5A44EE03BDF";
paths = (
{
closed = 1;
nodes = (
"125 432 LINE",
"807 432 LINE",
"807 493 LINE",
"125 493 LINE"
);
},
{
closed = 1;
nodes = (
"84 199 LINE",
"765 199 LINE",
"765 258 LINE",
"84 258 LINE"
);
},
{
closed = 1;
nodes = (
"618 693 LINE",
"495 0 LINE",
"558 0 LINE",
"680 693 LINE"
);
},
{
closed = 1;
nodes = (
"334 693 LINE",
"211 0 LINE",
"275 0 LINE",
"396 693 LINE"
);
}
);
width = 891;
},
{
layerId = "37B2A381-2B9F-4DE4-98E5-835D13A27EF0";
paths = (
{
closed = 1;
nodes = (
"124 418 LINE",
"806 418 LINE",
"806 500 LINE",
"124 500 LINE"
);
},
{
closed = 1;
nodes = (
"85 192 LINE",
"766 192 LINE",
"766 273 LINE",
"85 273 LINE"
);
},
{
closed = 1;
nodes = (
"603 693 LINE",
"480 0 LINE",
"564 0 LINE",
"686 693 LINE"
);
},
{
closed = 1;
nodes = (
"328 693 LINE",
"205 0 LINE",
"290 0 LINE",
"411 693 LINE"
);
}
);
width = 891;
}
);
unicode = 0023;
},
{
glyphname = slash;
lastChange = "2019-07-03 20:11:12 +0000";
layers = (
{
layerId = "DA405910-5117-420C-9605-F5A44EE03BDF";
paths = (
{
closed = 1;
nodes = (
"10 -20 LINE",
"76 -20 LINE",
"404 750 LINE",
"338 750 LINE"
);
}
);
width = 414;
},
{
layerId = "37B2A381-2B9F-4DE4-98E5-835D13A27EF0";
paths = (
{
closed = 1;
nodes = (
"10 -20 LINE",
"98 -20 LINE",
"426 750 LINE",
"338 750 LINE"
);
}
);
width = 436;
}
);
unicode = 002F;
},
{
glyphname = backslash;
lastChange = "2019-07-03 20:11:37 +0000";
layers = (
{
layerId = "DA405910-5117-420C-9605-F5A44EE03BDF";
paths = (
{
closed = 1;
nodes = (
"10 750 LINE",
"338 -20 LINE",
"404 -20 LINE",
"76 750 LINE"
);
}
);
width = 414;
},
{
layerId = "37B2A381-2B9F-4DE4-98E5-835D13A27EF0";
paths = (
{
closed = 1;
nodes = (
"10 750 LINE",
"338 -20 LINE",
"426 -20 LINE",
"98 750 LINE"
);
}
);
width = 436;
}
);
unicode = 005C;
},
{
glyphname = parenleft;
lastChange = "2019-07-03 20:14:01 +0000";
layers = (
{
layerId = "DA405910-5117-420C-9605-F5A44EE03BDF";
paths = (
{
closed = 1;
nodes = (
"89 140 OFFCURVE",
"221 -20 OFFCURVE",
"397 -20 CURVE",
"397 44 LINE",
"263 44 OFFCURVE",
"154 180 OFFCURVE",
"154 365 CURVE SMOOTH",
"154 548 OFFCURVE",
"263 686 OFFCURVE",
"397 686 CURVE",
"397 750 LINE",
"221 750 OFFCURVE",
"89 590 OFFCURVE",
"89 365 CURVE SMOOTH"
);
}
);
width = 432;
},
{
layerId = "37B2A381-2B9F-4DE4-98E5-835D13A27EF0";
paths = (
{
closed = 1;
nodes = (
"85 142 OFFCURVE",
"219 -20 OFFCURVE",
"401 -20 CURVE",
"401 64 LINE",
"272 64 OFFCURVE",
"170 193 OFFCURVE",
"170 365 CURVE SMOOTH",
"170 536 OFFCURVE",
"273 666 OFFCURVE",
"401 666 CURVE",
"401 750 LINE",
"219 750 OFFCURVE",
"85 588 OFFCURVE",
"85 365 CURVE SMOOTH"
);
}
);
width = 432;
}
);
unicode = 0028;
},
{
glyphname = parenright;
lastChange = "2019-07-17 16:21:12 +0000";
layers = (
{
layerId = "DA405910-5117-420C-9605-F5A44EE03BDF";
paths = (
{
closed = 1;
nodes = (
"343 590 OFFCURVE",
"211 750 OFFCURVE",
"35 750 CURVE",
"35 686 LINE",
"169 687 OFFCURVE",
"278 548 OFFCURVE",
"278 365 CURVE SMOOTH",
"278 180 OFFCURVE",
"169 43 OFFCURVE",
"35 44 CURVE",
"35 -20 LINE",
"211 -20 OFFCURVE",
"343 140 OFFCURVE",
"343 365 CURVE SMOOTH"
);
}
);
width = 432;
},
{
layerId = "37B2A381-2B9F-4DE4-98E5-835D13A27EF0";
paths = (
{
closed = 1;
nodes = (
"351 588 OFFCURVE",
"217 750 OFFCURVE",
"35 750 CURVE",
"35 666 LINE",
"163 666 OFFCURVE",
"266 536 OFFCURVE",
"266 365 CURVE SMOOTH",
"266 193 OFFCURVE",
"164 64 OFFCURVE",
"35 64 CURVE",
"35 -20 LINE",
"217 -20 OFFCURVE",
"351 142 OFFCURVE",
"351 365 CURVE SMOOTH"
);
}
);
width = 440;
}
);
unicode = 0029;
},
{
glyphname = braceleft;
lastChange = "2019-07-03 20:14:51 +0000";
layers = (
{
layerId = "DA405910-5117-420C-9605-F5A44EE03BDF";
paths = (
{
closed = 1;
nodes = (
"409 38 LINE",
"308 38 LINE SMOOTH",
"268 38 OFFCURVE",
"233 62 OFFCURVE",
"233 98 CURVE",
"233 632 LINE",
"233 668 OFFCURVE",
"268 692 OFFCURVE",
"308 692 CURVE SMOOTH",
"409 692 LINE",
"409 750 LINE",
"290 750 LINE SMOOTH",
"223 750 OFFCURVE",
"173 700 OFFCURVE",
"173 644 CURVE SMOOTH",
"173 424 LINE",
"173 413 OFFCURVE",
"168 397 OFFCURVE",
"144 397 CURVE",
"80 397 LINE",
"80 333 LINE",
"144 333 LINE",
"168 333 OFFCURVE",
"173 316 OFFCURVE",
"173 306 CURVE",
"173 86 LINE SMOOTH",
"173 30 OFFCURVE",
"223 -20 OFFCURVE",
"290 -20 CURVE SMOOTH",
"409 -20 LINE"
);
}
);
width = 434;
},
{
layerId = "37B2A381-2B9F-4DE4-98E5-835D13A27EF0";
paths = (
{
closed = 1;
nodes = (
"416 60 LINE",
"306 60 LINE SMOOTH",
"271 60 OFFCURVE",
"245 80 OFFCURVE",
"245 106 CURVE SMOOTH",
"245 624 LINE SMOOTH",
"245 650 OFFCURVE",
"271 670 OFFCURVE",
"306 670 CURVE SMOOTH",
"416 670 LINE",
"416 750 LINE",
"289 750 LINE SMOOTH",
"220 750 OFFCURVE",
"164 699 OFFCURVE",
"164 636 CURVE SMOOTH",
"164 422 LINE SMOOTH",
"164 412 OFFCURVE",
"158 408 OFFCURVE",
"147 408 CURVE SMOOTH",
"73 408 LINE",
"73 322 LINE",
"147 322 LINE SMOOTH",
"158 322 OFFCURVE",
"164 317 OFFCURVE",
"164 308 CURVE SMOOTH",
"164 94 LINE SMOOTH",
"164 31 OFFCURVE",
"220 -20 OFFCURVE",
"289 -20 CURVE SMOOTH",
"416 -20 LINE"
);
}
);
width = 434;
}
);
unicode = 007B;
},
{
glyphname = braceright;
lastChange = "2019-07-03 20:15:33 +0000";
layers = (
{
layerId = "DA405910-5117-420C-9605-F5A44EE03BDF";
paths = (
{
closed = 1;
nodes = (
"144 -20 LINE SMOOTH",
"211 -20 OFFCURVE",
"261 30 OFFCURVE",
"261 86 CURVE SMOOTH",
"261 306 LINE",
"261 316 OFFCURVE",
"266 333 OFFCURVE",
"290 333 CURVE",
"354 333 LINE",
"354 397 LINE",
"290 397 LINE",
"266 397 OFFCURVE",
"261 413 OFFCURVE",
"261 424 CURVE",
"261 644 LINE SMOOTH",
"261 700 OFFCURVE",
"211 750 OFFCURVE",
"144 750 CURVE SMOOTH",
"25 750 LINE",
"25 692 LINE",
"126 692 LINE SMOOTH",
"166 692 OFFCURVE",
"201 668 OFFCURVE",
"201 632 CURVE",
"201 98 LINE",
"201 62 OFFCURVE",
"166 38 OFFCURVE",
"126 38 CURVE SMOOTH",
"25 38 LINE",
"25 -20 LINE"
);
}
);
width = 434;
},
{
layerId = "37B2A381-2B9F-4DE4-98E5-835D13A27EF0";
paths = (
{
closed = 1;
nodes = (
"152 -20 LINE SMOOTH",
"221 -20 OFFCURVE",
"277 31 OFFCURVE",
"277 94 CURVE SMOOTH",
"277 308 LINE SMOOTH",
"277 317 OFFCURVE",
"283 322 OFFCURVE",
"294 322 CURVE SMOOTH",
"368 322 LINE",
"368 408 LINE",
"294 408 LINE SMOOTH",
"283 408 OFFCURVE",
"277 412 OFFCURVE",
"277 422 CURVE SMOOTH",
"277 636 LINE SMOOTH",
"277 699 OFFCURVE",
"221 750 OFFCURVE",
"152 750 CURVE SMOOTH",
"25 750 LINE",
"25 670 LINE",
"135 670 LINE SMOOTH",
"170 670 OFFCURVE",
"196 650 OFFCURVE",
"196 624 CURVE SMOOTH",
"196 106 LINE SMOOTH",
"196 80 OFFCURVE",
"170 60 OFFCURVE",
"135 60 CURVE SMOOTH",
"25 60 LINE",
"25 -20 LINE"
);
}
);
width = 448;
}
);
unicode = 007D;
},
{
glyphname = bracketleft;
lastChange = "2019-07-03 20:16:58 +0000";
layers = (
{
layerId = "DA405910-5117-420C-9605-F5A44EE03BDF";
paths = (
{
closed = 1;
nodes = (
"292 -20 LINE",
"292 44 LINE",
"180 44 LINE",
"180 686 LINE",
"292 686 LINE",
"292 750 LINE",
"115 750 LINE",
"115 -20 LINE"
);
}
);
width = 367;
},
{
layerId = "37B2A381-2B9F-4DE4-98E5-835D13A27EF0";
paths = (
{
closed = 1;
nodes = (
"301 -20 LINE",
"301 65 LINE",
"192 65 LINE",
"192 665 LINE",
"301 665 LINE",
"301 750 LINE",
"106 750 LINE",
"106 -20 LINE"
);
}
);
width = 367;
}
);
unicode = 005B;
},
{
glyphname = bracketright;
lastChange = "2019-07-03 20:17:32 +0000";
layers = (
{
layerId = "DA405910-5117-420C-9605-F5A44EE03BDF";
paths = (
{
closed = 1;
nodes = (
"252 750 LINE",
"75 750 LINE",
"75 686 LINE",
"187 686 LINE",
"187 43 LINE",
"75 43 LINE",
"75 -19 LINE",
"252 -19 LINE"
);
}
);
width = 367;
},
{
layerId = "37B2A381-2B9F-4DE4-98E5-835D13A27EF0";
paths = (
{
closed = 1;
nodes = (
"261 750 LINE",
"66 750 LINE",
"66 665 LINE",
"175 665 LINE",
"175 65 LINE",
"66 65 LINE",
"66 -20 LINE",
"261 -20 LINE"
);
}
);
width = 367;
}
);
unicode = 005D;
},
{
glyphname = hyphen;
lastChange = "2019-07-03 20:18:00 +0000";
layers = (
{
layerId = "DA405910-5117-420C-9605-F5A44EE03BDF";
paths = (
{
closed = 1;
nodes = (
"424 394 LINE",
"77 394 LINE",
"77 334 LINE",
"424 334 LINE"
);
}
);
width = 501;
},
{
layerId = "37B2A381-2B9F-4DE4-98E5-835D13A27EF0";
paths = (
{
closed = 1;
nodes = (
"424 406 LINE",
"77 406 LINE",
"77 322 LINE",
"424 322 LINE"
);
}
);
width = 501;
}
);
unicode = 002D;
},
{
glyphname = endash;
lastChange = "2019-07-03 20:18:21 +0000";
layers = (
{
layerId = "DA405910-5117-420C-9605-F5A44EE03BDF";
paths = (
{
closed = 1;
nodes = (
"626 394 LINE",
"7 394 LINE",
"7 334 LINE",
"626 334 LINE"
);
}
);
width = 633;
},
{
layerId = "37B2A381-2B9F-4DE4-98E5-835D13A27EF0";
paths = (
{
closed = 1;
nodes = (
"626 406 LINE",
"7 406 LINE",
"7 322 LINE",
"626 322 LINE"
);
}
);
width = 633;
}
);
unicode = 2013;
},
{
glyphname = emdash;
lastChange = "2019-07-03 20:18:31 +0000";
layers = (
{
layerId = "DA405910-5117-420C-9605-F5A44EE03BDF";
paths = (
{
closed = 1;
nodes = (
"1128 394 LINE",
"7 394 LINE",
"7 334 LINE",
"1128 334 LINE"
);
}
);
width = 1135;
},
{
layerId = "37B2A381-2B9F-4DE4-98E5-835D13A27EF0";
paths = (
{
closed = 1;
nodes = (
"1128 406 LINE",
"7 406 LINE",
"7 322 LINE",
"1128 322 LINE"
);
}
);
width = 1135;
}
);
unicode = 2014;
},
{
glyphname = underscore;
lastChange = "2019-07-03 20:18:43 +0000";
layers = (
{
layerId = "DA405910-5117-420C-9605-F5A44EE03BDF";
paths = (
{
closed = 1;
nodes = (
"615 -75 LINE",
"7 -75 LINE",
"7 -135 LINE",
"615 -135 LINE"
);
}
);
width = 622;
},
{
layerId = "37B2A381-2B9F-4DE4-98E5-835D13A27EF0";
paths = (
{
closed = 1;
nodes = (
"615 -63 LINE",
"7 -63 LINE",
"7 -147 LINE",
"615 -147 LINE"
);
}
);
width = 622;
}
);
unicode = 005F;
},
{
glyphname = quotedblleft;
lastChange = "2019-07-03 20:21:16 +0000";
layers = (
{
layerId = "DA405910-5117-420C-9605-F5A44EE03BDF";
paths = (
{
closed = 1;
nodes = (
"202 491 LINE",
"132 712 LINE",
"50 712 LINE",
"146 491 LINE"
);
},
{
closed = 1;
nodes = (
"354 491 LINE",
"284 712 LINE",
"202 712 LINE",
"298 491 LINE"
);
}
);
width = 394;
},
{
layerId = "37B2A381-2B9F-4DE4-98E5-835D13A27EF0";
paths = (
{
closed = 1;
nodes = (
"202 491 LINE",
"133 712 LINE",
"28 712 LINE",
"126 491 LINE"
);
},
{
closed = 1;
nodes = (
"376 491 LINE",
"307 712 LINE",
"202 712 LINE",
"300 491 LINE"
);
}
);
width = 394;
}
);
unicode = 201C;
},
{
glyphname = quotedblright;
lastChange = "2019-07-17 16:38:22 +0000";
layers = (
{
layerId = "DA405910-5117-420C-9605-F5A44EE03BDF";
paths = (
{
closed = 1;
nodes = (
"344 712 LINE",
"262 712 LINE",
"192 491 LINE",
"248 491 LINE"
);
},
{
closed = 1;
nodes = (
"192 712 LINE",
"110 712 LINE",
"40 491 LINE",
"96 491 LINE"
);
}
);
width = 394;
},
{
layerId = "37B2A381-2B9F-4DE4-98E5-835D13A27EF0";
paths = (
{
closed = 1;
nodes = (
"372 712 LINE",
"267 712 LINE",
"198 491 LINE",
"274 491 LINE"
);
},
{
closed = 1;
nodes = (
"198 712 LINE",
"93 712 LINE",
"24 491 LINE",
"100 491 LINE"
);
}
);
width = 404;
}
);
unicode = 201D;
},
{
glyphname = quoteleft;
lastChange = "2019-07-03 20:20:55 +0000";
layers = (
{
layerId = "DA405910-5117-420C-9605-F5A44EE03BDF";
paths = (
{
closed = 1;
nodes = (
"202 491 LINE",
"132 712 LINE",
"50 712 LINE",
"146 491 LINE"
);
}
);
width = 242;
},
{
layerId = "37B2A381-2B9F-4DE4-98E5-835D13A27EF0";
paths = (
{
closed = 1;
nodes = (
"206 491 LINE",
"137 712 LINE",
"32 712 LINE",
"130 491 LINE"
);
}
);
width = 230;
}
);
unicode = 2018;
},
{
glyphname = quoteright;
lastChange = "2019-07-17 16:38:18 +0000";
layers = (
{
layerId = "DA405910-5117-420C-9605-F5A44EE03BDF";
paths = (
{
closed = 1;
nodes = (
"192 712 LINE",
"110 712 LINE",
"40 491 LINE",
"96 491 LINE"
);
}
);
width = 242;
},
{
layerId = "37B2A381-2B9F-4DE4-98E5-835D13A27EF0";
paths = (
{
closed = 1;
nodes = (
"198 712 LINE",
"93 712 LINE",
"24 491 LINE",
"100 491 LINE"
);
}
);
width = 230;
}
);
unicode = 2019;
},
{
glyphname = guillemetleft;
lastChange = "2019-07-03 20:23:08 +0000";
layers = (
{
layerId = "DA405910-5117-420C-9605-F5A44EE03BDF";
paths = (
{
closed = 1;
nodes = (
"80 245 LINE",
"271 22 LINE",
"349 22 LINE",
"158 245 LINE",
"351 471 LINE",
"273 471 LINE"
);
},
{
closed = 1;
nodes = (
"351 245 LINE",
"542 22 LINE",
"620 22 LINE",
"429 245 LINE",
"622 471 LINE",
"544 471 LINE"
);
}
);
width = 714;
},
{
layerId = "37B2A381-2B9F-4DE4-98E5-835D13A27EF0";
paths = (
{
closed = 1;
nodes = (
"79 245 LINE",
"270 22 LINE",
"374 22 LINE",
"183 245 LINE",
"376 471 LINE",
"272 471 LINE"
);
},
{
closed = 1;
nodes = (
"336 245 LINE",
"527 22 LINE",
"631 22 LINE",
"440 245 LINE",
"633 471 LINE",
"529 471 LINE"
);
}
);
width = 714;
}
);
unicode = 00AB;
},
{
glyphname = guillemetright;
lastChange = "2019-07-03 20:23:13 +0000";
layers = (
{
layerId = "DA405910-5117-420C-9605-F5A44EE03BDF";
paths = (
{
closed = 1;
nodes = (
"363 471 LINE",
"556 245 LINE",
"365 22 LINE",
"443 22 LINE",
"634 245 LINE",
"441 471 LINE"
);
},
{
closed = 1;
nodes = (
"92 471 LINE",
"285 245 LINE",
"94 22 LINE",
"172 22 LINE",
"363 245 LINE",
"170 471 LINE"
);
}
);
width = 714;
},
{
layerId = "37B2A381-2B9F-4DE4-98E5-835D13A27EF0";
paths = (
{
closed = 1;
nodes = (
"338 471 LINE",
"531 245 LINE",
"340 22 LINE",
"444 22 LINE",
"635 245 LINE",
"442 471 LINE"
);
},
{
closed = 1;
nodes = (
"81 471 LINE",
"274 245 LINE",
"83 22 LINE",
"187 22 LINE",
"378 245 LINE",
"185 471 LINE"
);
}
);
width = 714;
}
);
unicode = 00BB;
},
{
glyphname = guilsinglleft;
lastChange = "2019-07-03 20:23:18 +0000";
layers = (
{
layerId = "DA405910-5117-420C-9605-F5A44EE03BDF";
paths = (
{
closed = 1;
nodes = (
"80 245 LINE",
"271 22 LINE",
"349 22 LINE",
"158 245 LINE",
"351 471 LINE",
"273 471 LINE"
);
}
);
width = 443;
},
{
layerId = "37B2A381-2B9F-4DE4-98E5-835D13A27EF0";
paths = (
{
closed = 1;
nodes = (
"72 245 LINE",
"263 22 LINE",
"367 22 LINE",
"176 245 LINE",
"369 471 LINE",
"265 471 LINE"
);
}
);
width = 443;
}
);
unicode = 2039;
},
{
glyphname = guilsinglright;
lastChange = "2019-07-03 20:23:22 +0000";
layers = (
{
layerId = "DA405910-5117-420C-9605-F5A44EE03BDF";
paths = (
{
closed = 1;
nodes = (
"92 471 LINE",
"285 245 LINE",
"94 22 LINE",
"172 22 LINE",
"363 245 LINE",
"170 471 LINE"
);
}
);
width = 443;
},
{
layerId = "37B2A381-2B9F-4DE4-98E5-835D13A27EF0";
paths = (
{
closed = 1;
nodes = (
"74 471 LINE",
"267 245 LINE",
"76 22 LINE",
"180 22 LINE",
"371 245 LINE",
"178 471 LINE"
);
}
);
width = 443;
}
);
unicode = 203A;
},
{
glyphname = quotedbl;
lastChange = "2019-07-17 16:48:58 +0000";
layers = (
{
layerId = "DA405910-5117-420C-9605-F5A44EE03BDF";
paths = (
{
closed = 1;
nodes = (
"136 712 LINE",
"64 712 LINE",
"76 491 LINE",
"122 491 LINE"
);
},
{
closed = 1;
nodes = (
"273 712 LINE",
"201 712 LINE",
"213 491 LINE",
"259 491 LINE"
);
}
);
width = 337;
},
{
layerId = "37B2A381-2B9F-4DE4-98E5-835D13A27EF0";
paths = (
{
closed = 1;
nodes = (
"136 712 LINE",
"48 712 LINE",
"60 491 LINE",
"122 491 LINE"
);
},
{
closed = 1;
nodes = (
"289 712 LINE",
"201 712 LINE",
"213 491 LINE",
"275 491 LINE"
);
}
);
width = 337;
}
);
unicode = 0022;
},
{
glyphname = quotesingle;
lastChange = "2019-07-17 16:48:47 +0000";
layers = (
{
layerId = "DA405910-5117-420C-9605-F5A44EE03BDF";
paths = (
{
closed = 1;
nodes = (
"136 712 LINE",
"64 712 LINE",
"76 491 LINE",
"122 491 LINE"
);
}
);
width = 200;
},
{
layerId = "37B2A381-2B9F-4DE4-98E5-835D13A27EF0";
paths = (
{
closed = 1;
nodes = (
"144 712 LINE",
"56 712 LINE",
"68 491 LINE",
"130 491 LINE"
);
}
);
width = 200;
}
);
unicode = 0027;
},
{
glyphname = cent;
lastChange = "2019-07-03 22:05:38 +0000";
layers = (
{
layerId = "DA405910-5117-420C-9605-F5A44EE03BDF";
paths = (
{
closed = 1;
nodes = (
"48 185 OFFCURVE",
"157 82 OFFCURVE",
"327 82 CURVE SMOOTH",
"458 82 OFFCURVE",
"554 143 OFFCURVE",
"591 245 CURVE",
"525 268 LINE",
"497 186 OFFCURVE",
"425 137 OFFCURVE",
"327 137 CURVE SMOOTH",
"198 137 OFFCURVE",
"117 219 OFFCURVE",
"117 347 CURVE SMOOTH",
"117 474 OFFCURVE",
"198 556 OFFCURVE",
"327 556 CURVE SMOOTH",
"428 556 OFFCURVE",
"500 507 OFFCURVE",
"527 426 CURVE",
"591 449 LINE",
"554 550 OFFCURVE",
"458 611 OFFCURVE",
"327 611 CURVE SMOOTH",
"157 611 OFFCURVE",
"48 508 OFFCURVE",
"48 347 CURVE SMOOTH"
);
},
{
closed = 1;
nodes = (
"287 -70 LINE",
"352 -70 LINE",
"352 762 LINE",
"287 762 LINE"
);
}
);
width = 610;
},
{
layerId = "37B2A381-2B9F-4DE4-98E5-835D13A27EF0";
paths = (
{
closed = 1;
nodes = (
"275 -82 LINE",
"364 -82 LINE",
"364 774 LINE",
"275 774 LINE"
);
},
{
closed = 1;
nodes = (
"459 81 OFFCURVE",
"559 146 OFFCURVE",
"593 255 CURVE",
"508 286 LINE",
"484 204 OFFCURVE",
"418 157 OFFCURVE",
"326 157 CURVE SMOOTH",
"209 157 OFFCURVE",
"136 230 OFFCURVE",
"136 347 CURVE SMOOTH",
"136 463 OFFCURVE",
"209 536 OFFCURVE",
"326 536 CURVE SMOOTH",
"421 536 OFFCURVE",
"487 489 OFFCURVE",
"510 408 CURVE",
"593 438 LINE",
"559 547 OFFCURVE",
"459 612 OFFCURVE",
"326 612 CURVE SMOOTH",
"156 612 OFFCURVE",
"47 508 OFFCURVE",
"47 347 CURVE SMOOTH",
"47 186 OFFCURVE",
"156 81 OFFCURVE",
"326 81 CURVE SMOOTH"
);
}
);
width = 610;
}
);
unicode = 00A2;
},
{
glyphname = currency;
lastChange = "2019-07-03 22:04:30 +0000";
layers = (
{
layerId = "DA405910-5117-420C-9605-F5A44EE03BDF";
paths = (
{
closed = 1;
nodes = (
"183 449 LINE",
"152 414 OFFCURVE",
"135 370 OFFCURVE",
"135 319 CURVE SMOOTH",
"135 267 OFFCURVE",
"153 222 OFFCURVE",
"184 186 CURVE",
"100 112 LINE",
"143 68 LINE",
"232 146 LINE",
"272 121 OFFCURVE",
"323 107 OFFCURVE",
"381 107 CURVE SMOOTH",
"438 107 OFFCURVE",
"488 121 OFFCURVE",
"528 145 CURVE",
"617 68 LINE",
"661 113 LINE",
"578 186 LINE",
"609 221 OFFCURVE",
"627 267 OFFCURVE",
"627 319 CURVE SMOOTH",
"627 370 OFFCURVE",
"609 415 OFFCURVE",
"578 451 CURVE",
"660 522 LINE",
"616 568 LINE",
"529 491 LINE",
"489 515 OFFCURVE",
"438 529 OFFCURVE",
"381 529 CURVE SMOOTH",
"323 529 OFFCURVE",
"272 515 OFFCURVE",
"231 490 CURVE",
"143 568 LINE",
"99 522 LINE"
);
},
{
closed = 1;
nodes = (
"195 399 OFFCURVE",
"272 477 OFFCURVE",
"380 477 CURVE SMOOTH",
"488 477 OFFCURVE",
"565 399 OFFCURVE",
"565 319 CURVE SMOOTH",
"565 238 OFFCURVE",
"488 159 OFFCURVE",
"380 159 CURVE SMOOTH",
"272 159 OFFCURVE",
"195 238 OFFCURVE",
"195 319 CURVE SMOOTH"
);
}
);
width = 758;
},
{
layerId = "37B2A381-2B9F-4DE4-98E5-835D13A27EF0";
paths = (
{
closed = 1;
nodes = (
"180 439 LINE",
"153 406 OFFCURVE",
"139 364 OFFCURVE",
"139 319 CURVE SMOOTH",
"139 273 OFFCURVE",
"154 231 OFFCURVE",
"181 196 CURVE",
"94 119 LINE",
"149 61 LINE",
"243 143 LINE",
"282 121 OFFCURVE",
"329 109 OFFCURVE",
"381 109 CURVE SMOOTH",
"431 109 OFFCURVE",
"478 120 OFFCURVE",
"517 142 CURVE",
"611 62 LINE",
"667 120 LINE",
"581 196 LINE",
"608 230 OFFCURVE",
"623 273 OFFCURVE",
"623 319 CURVE SMOOTH",
"623 364 OFFCURVE",
"608 406 OFFCURVE",
"581 441 CURVE",
"667 516 LINE",
"611 576 LINE",
"518 494 LINE",
"479 515 OFFCURVE",
"432 527 OFFCURVE",
"381 527 CURVE SMOOTH",
"329 527 OFFCURVE",
"282 515 OFFCURVE",
"242 493 CURVE",
"149 575 LINE",
"93 515 LINE"
);
},
{
closed = 1;
nodes = (
"218 393 OFFCURVE",
"291 456 OFFCURVE",
"380 456 CURVE SMOOTH",
"469 456 OFFCURVE",
"542 393 OFFCURVE",
"542 319 CURVE SMOOTH",
"542 244 OFFCURVE",
"469 180 OFFCURVE",
"380 180 CURVE SMOOTH",
"291 180 OFFCURVE",
"218 244 OFFCURVE",
"218 319 CURVE SMOOTH"
);
}
);
width = 758;
}
);
unicode = 00A4;
},
{
glyphname = dollar;
lastChange = "2019-07-19 17:30:53 +0000";
layers = (
{
layerId = "DA405910-5117-420C-9605-F5A44EE03BDF";
paths = (
{
closed = 1;
nodes = (
"331 -94 LINE",
"393 -94 LINE",
"393 786 LINE",
"331 786 LINE"
);
},
{
closed = 1;
nodes = (
"583 -20 OFFCURVE",
"666 77 OFFCURVE",
"667 175 CURVE SMOOTH",
"668 288 OFFCURVE",
"570 329 OFFCURVE",
"479 350 CURVE SMOOTH",
"401 368 OFFCURVE",
"311 381 OFFCURVE",
"267 391 CURVE SMOOTH",
"193 408 OFFCURVE",
"132 441 OFFCURVE",
"132 516 CURVE SMOOTH",
"132 565 OFFCURVE",
"189 650 OFFCURVE",
"364 648 CURVE SMOOTH",
"539 646 OFFCURVE",
"603 527 OFFCURVE",
"611 490 CURVE",
"677 509 LINE",
"660 572 OFFCURVE",
"584 712 OFFCURVE",
"364 712 CURVE SMOOTH",
"133 712 OFFCURVE",
"60 594 OFFCURVE",
"60 516 CURVE SMOOTH",
"60 403 OFFCURVE",
"134 352 OFFCURVE",
"250 327 CURVE SMOOTH",
"306 315 OFFCURVE",
"379 305 OFFCURVE",
"466 285 CURVE SMOOTH",
"532 270 OFFCURVE",
"596 247 OFFCURVE",
"596 177 CURVE SMOOTH",
"596 110 OFFCURVE",
"522 44 OFFCURVE",
"371 44 CURVE SMOOTH",
"207 44 OFFCURVE",
"130 156 OFFCURVE",
"119 194 CURVE",
"46 176 LINE",
"71 103 OFFCURVE",
"157 -20 OFFCURVE",
"369 -20 CURVE SMOOTH"
);
}
);
width = 691;
},
{
layerId = "37B2A381-2B9F-4DE4-98E5-835D13A27EF0";
paths = (
{
closed = 1;
nodes = (
"319 -94 LINE",
"403 -94 LINE",
"403 786 LINE",
"319 786 LINE"
);
},
{
closed = 1;
nodes = (
"552 -20 OFFCURVE",
"668 57 OFFCURVE",
"669 180 CURVE SMOOTH",
"670 273 OFFCURVE",
"608 331 OFFCURVE",
"478 361 CURVE SMOOTH",
"402 379 OFFCURVE",
"315 391 OFFCURVE",
"273 401 CURVE SMOOTH",
"189 420 OFFCURVE",
"151 455 OFFCURVE",
"151 511 CURVE SMOOTH",
"151 577 OFFCURVE",
"242 628 OFFCURVE",
"364 627 CURVE SMOOTH",
"526 625 OFFCURVE",
"584 517 OFFCURVE",
"594 471 CURVE",
"681 496 LINE",
"671 550 OFFCURVE",
"598 712 OFFCURVE",
"364 712 CURVE SMOOTH",
"134 712 OFFCURVE",
"58 589 OFFCURVE",
"58 511 CURVE SMOOTH",
"58 406 OFFCURVE",
"119 345 OFFCURVE",
"251 316 CURVE SMOOTH",
"306 305 OFFCURVE",
"376 295 OFFCURVE",
"460 276 CURVE SMOOTH",
"543 257 OFFCURVE",
"577 231 OFFCURVE",
"577 182 CURVE SMOOTH",
"577 114 OFFCURVE",
"493 65 OFFCURVE",
"371 65 CURVE SMOOTH",
"218 65 OFFCURVE",
"148 167 OFFCURVE",
"135 213 CURVE",
"44 190 LINE",
"63 121 OFFCURVE",
"146 -20 OFFCURVE",
"370 -20 CURVE SMOOTH"
);
}
);
width = 691;
}
);
unicode = 0024;
},
{
glyphname = euro;
lastChange = "2019-07-03 22:02:30 +0000";
layers = (
{
layerId = "DA405910-5117-420C-9605-F5A44EE03BDF";
paths = (
{
closed = 1;
nodes = (
"105 132 OFFCURVE",
"258 -20 OFFCURVE",
"469 -20 CURVE SMOOTH",
"630 -20 OFFCURVE",
"757 67 OFFCURVE",
"809 203 CURVE",
"741 228 LINE",
"700 117 OFFCURVE",
"598 44 OFFCURVE",
"469 44 CURVE SMOOTH",
"300 44 OFFCURVE",
"177 170 OFFCURVE",
"177 345 CURVE SMOOTH",
"177 520 OFFCURVE",
"300 648 OFFCURVE",
"469 648 CURVE SMOOTH",
"597 648 OFFCURVE",
"698 575 OFFCURVE",
"740 465 CURVE",
"808 489 LINE",
"756 625 OFFCURVE",
"630 712 OFFCURVE",
"469 712 CURVE SMOOTH",
"258 712 OFFCURVE",
"105 560 OFFCURVE",
"105 345 CURVE SMOOTH"
);
},
{
closed = 1;
nodes = (
"523 447 LINE",
"17 447 LINE",
"17 387 LINE",
"523 387 LINE"
);
},
{
closed = 1;
nodes = (
"523 301 LINE",
"17 301 LINE",
"17 241 LINE",
"523 241 LINE"
);
}
);
width = 826;
},
{
layerId = "37B2A381-2B9F-4DE4-98E5-835D13A27EF0";
paths = (
{
closed = 1;
nodes = (
"103 133 OFFCURVE",
"256 -20 OFFCURVE",
"467 -20 CURVE SMOOTH",
"629 -20 OFFCURVE",
"761 70 OFFCURVE",
"811 214 CURVE",
"724 247 LINE",
"687 135 OFFCURVE",
"589 65 OFFCURVE",
"467 65 CURVE SMOOTH",
"310 65 OFFCURVE",
"196 182 OFFCURVE",
"196 345 CURVE SMOOTH",
"196 508 OFFCURVE",
"310 627 OFFCURVE",
"467 627 CURVE SMOOTH",
"587 627 OFFCURVE",
"685 558 OFFCURVE",
"723 446 CURVE",
"810 477 LINE",
"760 623 OFFCURVE",
"629 712 OFFCURVE",
"467 712 CURVE SMOOTH",
"255 712 OFFCURVE",
"103 559 OFFCURVE",
"103 345 CURVE SMOOTH"
);
},
{
closed = 1;
nodes = (
"531 455 LINE",
"18 455 LINE",
"18 374 LINE",
"531 374 LINE"
);
},
{
closed = 1;
nodes = (
"531 314 LINE",
"18 314 LINE",
"18 233 LINE",
"531 233 LINE"
);
}
);
width = 826;
}
);
unicode = 20AC;
},
